<?xml version="1.0" encoding="utf-8" standalone="no"?>
<!DOCTYPE svg PUBLIC "-//W3C//DTD SVG 1.1//EN"
  "http://www.w3.org/Graphics/SVG/1.1/DTD/svg11.dtd">
<svg xmlns:xlink="http://www.w3.org/1999/xlink" width="710.895156pt" height="421.927656pt" viewBox="0 0 710.895156 421.927656" xmlns="http://www.w3.org/2000/svg" version="1.1">
 <metadata>
  <rdf:RDF xmlns:dc="http://purl.org/dc/elements/1.1/" xmlns:cc="http://creativecommons.org/ns#" xmlns:rdf="http://www.w3.org/1999/02/22-rdf-syntax-ns#">
   <cc:Work>
    <dc:type rdf:resource="http://purl.org/dc/dcmitype/StillImage"/>
    <dc:date>2026-01-07T21:56:01.140498</dc:date>
    <dc:format>image/svg+xml</dc:format>
    <dc:creator>
     <cc:Agent>
      <dc:title>Matplotlib v3.10.8, https://matplotlib.org/</dc:title>
     </cc:Agent>
    </dc:creator>
   </cc:Work>
  </rdf:RDF>
 </metadata>
 <defs>
  <style type="text/css">*{stroke-linejoin: round; stroke-linecap: butt}</style>
 </defs>
 <g id="figure_1">
  <g id="patch_1">
   <path d="M 0 421.927656 
L 710.895156 421.927656 
L 710.895156 0 
L 0 0 
z
" style="fill: #ffffff"/>
  </g>
  <g id="axes_1">
   <g id="patch_2">
    <path d="M 79.895156 384.967969 
L 703.695156 384.967969 
L 703.695156 37.819969 
L 79.895156 37.819969 
z
" style="fill: #ffffff"/>
   </g>
   <g id="matplotlib.axis_1">
    <g id="xtick_1">
     <g id="line2d_1">
      <path d="M 112.726735 384.967969 
L 112.726735 37.819969 
" clip-path="url(#pb5e4c1abdc)" style="fill: none; stroke: #cccccc; stroke-width: 0.8; stroke-linecap: round"/>
     </g>
     <g id="line2d_2"/>
     <g id="text_1">
      <!-- −0.4 -->
      <g style="fill: #262626" transform="translate(99.371188 396.82625) scale(0.11 -0.11)">
       <defs>
        <path id="DejaVuSerif-2212" d="M 678 2259 
L 4684 2259 
L 4684 1753 
L 678 1753 
L 678 2259 
z
" transform="scale(0.015625)"/>
        <path id="DejaVuSerif-30" d="M 2034 219 
Q 2513 219 2750 744 
Q 2988 1269 2988 2328 
Q 2988 3391 2750 3916 
Q 2513 4441 2034 4441 
Q 1556 4441 1318 3916 
Q 1081 3391 1081 2328 
Q 1081 1269 1318 744 
Q 1556 219 2034 219 
z
M 2034 -91 
Q 1275 -91 848 546 
Q 422 1184 422 2328 
Q 422 3475 848 4112 
Q 1275 4750 2034 4750 
Q 2797 4750 3222 4112 
Q 3647 3475 3647 2328 
Q 3647 1184 3222 546 
Q 2797 -91 2034 -91 
z
" transform="scale(0.015625)"/>
        <path id="DejaVuSerif-2e" d="M 603 325 
Q 603 500 722 622 
Q 841 744 1019 744 
Q 1191 744 1312 622 
Q 1434 500 1434 325 
Q 1434 153 1312 31 
Q 1191 -91 1019 -91 
Q 841 -91 722 29 
Q 603 150 603 325 
z
" transform="scale(0.015625)"/>
        <path id="DejaVuSerif-34" d="M 2234 1581 
L 2234 4063 
L 641 1581 
L 2234 1581 
z
M 3609 0 
L 1484 0 
L 1484 331 
L 2234 331 
L 2234 1247 
L 197 1247 
L 197 1588 
L 2241 4750 
L 2859 4750 
L 2859 1581 
L 3750 1581 
L 3750 1247 
L 2859 1247 
L 2859 331 
L 3609 331 
L 3609 0 
z
" transform="scale(0.015625)"/>
       </defs>
       <use xlink:href="#DejaVuSerif-2212"/>
       <use xlink:href="#DejaVuSerif-30" transform="translate(83.789062 0)"/>
       <use xlink:href="#DejaVuSerif-2e" transform="translate(147.412109 0)"/>
       <use xlink:href="#DejaVuSerif-34" transform="translate(179.199219 0)"/>
      </g>
     </g>
    </g>
    <g id="xtick_2">
     <g id="line2d_3">
      <path d="M 244.053051 384.967969 
L 244.053051 37.819969 
" clip-path="url(#pb5e4c1abdc)" style="fill: none; stroke: #cccccc; stroke-width: 0.8; stroke-linecap: round"/>
     </g>
     <g id="line2d_4"/>
     <g id="text_2">
      <!-- −0.2 -->
      <g style="fill: #262626" transform="translate(230.697504 396.82625) scale(0.11 -0.11)">
       <defs>
        <path id="DejaVuSerif-32" d="M 819 3553 
L 469 3553 
L 469 4384 
Q 803 4563 1142 4656 
Q 1481 4750 1806 4750 
Q 2534 4750 2956 4397 
Q 3378 4044 3378 3438 
Q 3378 2753 2422 1800 
Q 2347 1728 2309 1691 
L 1131 513 
L 3078 513 
L 3078 1088 
L 3444 1088 
L 3444 0 
L 434 0 
L 434 341 
L 1850 1753 
Q 2319 2222 2519 2614 
Q 2719 3006 2719 3438 
Q 2719 3909 2473 4175 
Q 2228 4441 1797 4441 
Q 1350 4441 1106 4219 
Q 863 3997 819 3553 
z
" transform="scale(0.015625)"/>
       </defs>
       <use xlink:href="#DejaVuSerif-2212"/>
       <use xlink:href="#DejaVuSerif-30" transform="translate(83.789062 0)"/>
       <use xlink:href="#DejaVuSerif-2e" transform="translate(147.412109 0)"/>
       <use xlink:href="#DejaVuSerif-32" transform="translate(179.199219 0)"/>
      </g>
     </g>
    </g>
    <g id="xtick_3">
     <g id="line2d_5">
      <path d="M 375.379367 384.967969 
L 375.379367 37.819969 
" clip-path="url(#pb5e4c1abdc)" style="fill: none; stroke: #cccccc; stroke-width: 0.8; stroke-linecap: round"/>
     </g>
     <g id="line2d_6"/>
     <g id="text_3">
      <!-- 0.0 -->
      <g style="fill: #262626" transform="translate(366.632648 396.82625) scale(0.11 -0.11)">
       <use xlink:href="#DejaVuSerif-30"/>
       <use xlink:href="#DejaVuSerif-2e" transform="translate(63.623047 0)"/>
       <use xlink:href="#DejaVuSerif-30" transform="translate(95.410156 0)"/>
      </g>
     </g>
    </g>
    <g id="xtick_4">
     <g id="line2d_7">
      <path d="M 506.705683 384.967969 
L 506.705683 37.819969 
" clip-path="url(#pb5e4c1abdc)" style="fill: none; stroke: #cccccc; stroke-width: 0.8; stroke-linecap: round"/>
     </g>
     <g id="line2d_8"/>
     <g id="text_4">
      <!-- 0.2 -->
      <g style="fill: #262626" transform="translate(497.958964 396.82625) scale(0.11 -0.11)">
       <use xlink:href="#DejaVuSerif-30"/>
       <use xlink:href="#DejaVuSerif-2e" transform="translate(63.623047 0)"/>
       <use xlink:href="#DejaVuSerif-32" transform="translate(95.410156 0)"/>
      </g>
     </g>
    </g>
    <g id="xtick_5">
     <g id="line2d_9">
      <path d="M 638.031998 384.967969 
L 638.031998 37.819969 
" clip-path="url(#pb5e4c1abdc)" style="fill: none; stroke: #cccccc; stroke-width: 0.8; stroke-linecap: round"/>
     </g>
     <g id="line2d_10"/>
     <g id="text_5">
      <!-- 0.4 -->
      <g style="fill: #262626" transform="translate(629.28528 396.82625) scale(0.11 -0.11)">
       <use xlink:href="#DejaVuSerif-30"/>
       <use xlink:href="#DejaVuSerif-2e" transform="translate(63.623047 0)"/>
       <use xlink:href="#DejaVuSerif-34" transform="translate(95.410156 0)"/>
      </g>
     </g>
    </g>
    <g id="text_6">
     <!-- Calibration Bias (posterior - prior) -->
     <g style="fill: #262626" transform="translate(287.504844 412.232031) scale(0.12 -0.12)">
      <defs>
       <path id="DejaVuSerif-43" d="M 4513 1234 
Q 4306 581 3820 245 
Q 3334 -91 2591 -91 
Q 2134 -91 1743 65 
Q 1353 222 1050 525 
Q 700 875 529 1320 
Q 359 1766 359 2328 
Q 359 3416 987 4083 
Q 1616 4750 2644 4750 
Q 3025 4750 3456 4650 
Q 3888 4550 4384 4347 
L 4384 3272 
L 4031 3272 
Q 3916 3859 3567 4137 
Q 3219 4416 2591 4416 
Q 1844 4416 1459 3886 
Q 1075 3356 1075 2328 
Q 1075 1303 1459 773 
Q 1844 244 2591 244 
Q 3113 244 3450 492 
Q 3788 741 3938 1234 
L 4513 1234 
z
" transform="scale(0.015625)"/>
       <path id="DejaVuSerif-61" d="M 2547 1044 
L 2547 1747 
L 1806 1747 
Q 1378 1747 1168 1562 
Q 959 1378 959 997 
Q 959 650 1171 447 
Q 1384 244 1747 244 
Q 2106 244 2326 466 
Q 2547 688 2547 1044 
z
M 3122 2075 
L 3122 331 
L 3634 331 
L 3634 0 
L 2547 0 
L 2547 359 
Q 2356 128 2106 18 
Q 1856 -91 1522 -91 
Q 969 -91 644 203 
Q 319 497 319 997 
Q 319 1513 691 1797 
Q 1063 2081 1741 2081 
L 2547 2081 
L 2547 2309 
Q 2547 2688 2317 2895 
Q 2088 3103 1672 3103 
Q 1328 3103 1125 2947 
Q 922 2791 872 2484 
L 575 2484 
L 575 3156 
Q 875 3284 1158 3348 
Q 1441 3413 1709 3413 
Q 2400 3413 2761 3070 
Q 3122 2728 3122 2075 
z
" transform="scale(0.015625)"/>
       <path id="DejaVuSerif-6c" d="M 1313 331 
L 1856 331 
L 1856 0 
L 184 0 
L 184 331 
L 738 331 
L 738 4531 
L 184 4531 
L 184 4863 
L 1313 4863 
L 1313 331 
z
" transform="scale(0.015625)"/>
       <path id="DejaVuSerif-69" d="M 622 4353 
Q 622 4497 726 4603 
Q 831 4709 978 4709 
Q 1122 4709 1226 4603 
Q 1331 4497 1331 4353 
Q 1331 4206 1228 4103 
Q 1125 4000 978 4000 
Q 831 4000 726 4103 
Q 622 4206 622 4353 
z
M 1356 331 
L 1900 331 
L 1900 0 
L 231 0 
L 231 331 
L 781 331 
L 781 2988 
L 231 2988 
L 231 3322 
L 1356 3322 
L 1356 331 
z
" transform="scale(0.015625)"/>
       <path id="DejaVuSerif-62" d="M 738 331 
L 738 4531 
L 184 4531 
L 184 4863 
L 1313 4863 
L 1313 2803 
Q 1481 3116 1742 3264 
Q 2003 3413 2388 3413 
Q 3000 3413 3387 2928 
Q 3775 2444 3775 1663 
Q 3775 881 3387 395 
Q 3000 -91 2388 -91 
Q 2003 -91 1742 57 
Q 1481 206 1313 519 
L 1313 0 
L 184 0 
L 184 331 
L 738 331 
z
M 1313 1497 
Q 1313 897 1542 583 
Q 1772 269 2209 269 
Q 2650 269 2876 622 
Q 3103 975 3103 1663 
Q 3103 2353 2876 2703 
Q 2650 3053 2209 3053 
Q 1772 3053 1542 2737 
Q 1313 2422 1313 1825 
L 1313 1497 
z
" transform="scale(0.015625)"/>
       <path id="DejaVuSerif-72" d="M 3059 3328 
L 3059 2497 
L 2728 2497 
Q 2713 2744 2591 2866 
Q 2469 2988 2234 2988 
Q 1809 2988 1582 2694 
Q 1356 2400 1356 1850 
L 1356 331 
L 2022 331 
L 2022 0 
L 263 0 
L 263 331 
L 781 331 
L 781 2994 
L 231 2994 
L 231 3322 
L 1356 3322 
L 1356 2731 
Q 1525 3078 1790 3245 
Q 2056 3413 2438 3413 
Q 2578 3413 2733 3391 
Q 2888 3369 3059 3328 
z
" transform="scale(0.015625)"/>
       <path id="DejaVuSerif-74" d="M 691 2988 
L 184 2988 
L 184 3322 
L 691 3322 
L 691 4353 
L 1269 4353 
L 1269 3322 
L 2350 3322 
L 2350 2988 
L 1269 2988 
L 1269 878 
Q 1269 456 1350 337 
Q 1431 219 1650 219 
Q 1875 219 1978 351 
Q 2081 484 2088 781 
L 2522 781 
Q 2497 328 2275 118 
Q 2053 -91 1600 -91 
Q 1103 -91 897 129 
Q 691 350 691 878 
L 691 2988 
z
" transform="scale(0.015625)"/>
       <path id="DejaVuSerif-6f" d="M 1925 219 
Q 2388 219 2623 584 
Q 2859 950 2859 1663 
Q 2859 2375 2623 2739 
Q 2388 3103 1925 3103 
Q 1463 3103 1227 2739 
Q 991 2375 991 1663 
Q 991 950 1228 584 
Q 1466 219 1925 219 
z
M 1925 -91 
Q 1200 -91 759 389 
Q 319 869 319 1663 
Q 319 2456 758 2934 
Q 1197 3413 1925 3413 
Q 2653 3413 3092 2934 
Q 3531 2456 3531 1663 
Q 3531 869 3092 389 
Q 2653 -91 1925 -91 
z
" transform="scale(0.015625)"/>
       <path id="DejaVuSerif-6e" d="M 263 0 
L 263 331 
L 781 331 
L 781 2988 
L 231 2988 
L 231 3322 
L 1356 3322 
L 1356 2731 
Q 1516 3069 1770 3241 
Q 2025 3413 2363 3413 
Q 2913 3413 3172 3097 
Q 3431 2781 3431 2113 
L 3431 331 
L 3944 331 
L 3944 0 
L 2356 0 
L 2356 331 
L 2853 331 
L 2853 1931 
Q 2853 2541 2703 2767 
Q 2553 2994 2175 2994 
Q 1775 2994 1565 2701 
Q 1356 2409 1356 1850 
L 1356 331 
L 1856 331 
L 1856 0 
L 263 0 
z
" transform="scale(0.015625)"/>
       <path id="DejaVuSerif-20" transform="scale(0.015625)"/>
       <path id="DejaVuSerif-42" d="M 1581 331 
L 2516 331 
Q 3078 331 3337 575 
Q 3597 819 3597 1350 
Q 3597 1878 3339 2120 
Q 3081 2363 2516 2363 
L 1581 2363 
L 1581 331 
z
M 1581 2694 
L 2375 2694 
Q 2888 2694 3123 2891 
Q 3359 3088 3359 3513 
Q 3359 3941 3123 4136 
Q 2888 4331 2375 4331 
L 1581 4331 
L 1581 2694 
z
M 353 0 
L 353 331 
L 947 331 
L 947 4331 
L 353 4331 
L 353 4666 
L 2656 4666 
Q 3363 4666 3720 4377 
Q 4078 4088 4078 3513 
Q 4078 3097 3829 2850 
Q 3581 2603 3103 2547 
Q 3697 2472 4005 2167 
Q 4313 1863 4313 1350 
Q 4313 656 3875 328 
Q 3438 0 2509 0 
L 353 0 
z
" transform="scale(0.015625)"/>
       <path id="DejaVuSerif-73" d="M 359 184 
L 359 959 
L 691 959 
Q 703 588 923 403 
Q 1144 219 1575 219 
Q 1963 219 2166 364 
Q 2369 509 2369 788 
Q 2369 1006 2220 1140 
Q 2072 1275 1594 1428 
L 1178 1569 
Q 750 1706 558 1912 
Q 366 2119 366 2438 
Q 366 2894 700 3153 
Q 1034 3413 1625 3413 
Q 1888 3413 2178 3344 
Q 2469 3275 2778 3144 
L 2778 2419 
L 2447 2419 
Q 2434 2741 2221 2922 
Q 2009 3103 1644 3103 
Q 1281 3103 1095 2975 
Q 909 2847 909 2591 
Q 909 2381 1050 2254 
Q 1191 2128 1613 1997 
L 2069 1856 
Q 2541 1709 2748 1489 
Q 2956 1269 2956 922 
Q 2956 450 2595 179 
Q 2234 -91 1600 -91 
Q 1278 -91 972 -22 
Q 666 47 359 184 
z
" transform="scale(0.015625)"/>
       <path id="DejaVuSerif-28" d="M 2041 -997 
Q 1281 -656 893 83 
Q 506 822 506 1931 
Q 506 3044 893 3783 
Q 1281 4522 2041 4863 
L 2041 4556 
Q 1559 4225 1350 3623 
Q 1141 3022 1141 1931 
Q 1141 844 1350 242 
Q 1559 -359 2041 -691 
L 2041 -997 
z
" transform="scale(0.015625)"/>
       <path id="DejaVuSerif-70" d="M 1313 1825 
L 1313 1497 
Q 1313 897 1542 583 
Q 1772 269 2209 269 
Q 2650 269 2876 622 
Q 3103 975 3103 1663 
Q 3103 2353 2876 2703 
Q 2650 3053 2209 3053 
Q 1772 3053 1542 2737 
Q 1313 2422 1313 1825 
z
M 738 2988 
L 184 2988 
L 184 3322 
L 1313 3322 
L 1313 2803 
Q 1481 3116 1742 3264 
Q 2003 3413 2388 3413 
Q 3000 3413 3387 2928 
Q 3775 2444 3775 1663 
Q 3775 881 3387 395 
Q 3000 -91 2388 -91 
Q 2003 -91 1742 57 
Q 1481 206 1313 519 
L 1313 -997 
L 1856 -997 
L 1856 -1331 
L 184 -1331 
L 184 -997 
L 738 -997 
L 738 2988 
z
" transform="scale(0.015625)"/>
       <path id="DejaVuSerif-65" d="M 3469 1600 
L 991 1600 
L 991 1575 
Q 991 903 1244 561 
Q 1497 219 1991 219 
Q 2369 219 2611 417 
Q 2853 616 2950 1006 
L 3413 1006 
Q 3275 459 2904 184 
Q 2534 -91 1931 -91 
Q 1203 -91 761 389 
Q 319 869 319 1663 
Q 319 2450 753 2931 
Q 1188 3413 1894 3413 
Q 2647 3413 3050 2948 
Q 3453 2484 3469 1600 
z
M 2791 1931 
Q 2772 2513 2545 2808 
Q 2319 3103 1894 3103 
Q 1497 3103 1269 2806 
Q 1041 2509 991 1931 
L 2791 1931 
z
" transform="scale(0.015625)"/>
       <path id="DejaVuSerif-2d" d="M 281 1959 
L 1881 1959 
L 1881 1472 
L 281 1472 
L 281 1959 
z
" transform="scale(0.015625)"/>
       <path id="DejaVuSerif-29" d="M 453 -997 
L 453 -691 
Q 934 -359 1145 242 
Q 1356 844 1356 1931 
Q 1356 3022 1145 3623 
Q 934 4225 453 4556 
L 453 4863 
Q 1216 4522 1603 3783 
Q 1991 3044 1991 1931 
Q 1991 822 1603 83 
Q 1216 -656 453 -997 
z
" transform="scale(0.015625)"/>
      </defs>
      <use xlink:href="#DejaVuSerif-43"/>
      <use xlink:href="#DejaVuSerif-61" transform="translate(76.513672 0)"/>
      <use xlink:href="#DejaVuSerif-6c" transform="translate(136.132812 0)"/>
      <use xlink:href="#DejaVuSerif-69" transform="translate(168.115234 0)"/>
      <use xlink:href="#DejaVuSerif-62" transform="translate(200.097656 0)"/>
      <use xlink:href="#DejaVuSerif-72" transform="translate(264.111328 0)"/>
      <use xlink:href="#DejaVuSerif-61" transform="translate(311.914062 0)"/>
      <use xlink:href="#DejaVuSerif-74" transform="translate(371.533203 0)"/>
      <use xlink:href="#DejaVuSerif-69" transform="translate(411.71875 0)"/>
      <use xlink:href="#DejaVuSerif-6f" transform="translate(443.701172 0)"/>
      <use xlink:href="#DejaVuSerif-6e" transform="translate(503.90625 0)"/>
      <use xlink:href="#DejaVuSerif-20" transform="translate(568.310547 0)"/>
      <use xlink:href="#DejaVuSerif-42" transform="translate(600.097656 0)"/>
      <use xlink:href="#DejaVuSerif-69" transform="translate(673.583984 0)"/>
      <use xlink:href="#DejaVuSerif-61" transform="translate(705.566406 0)"/>
      <use xlink:href="#DejaVuSerif-73" transform="translate(765.185547 0)"/>
      <use xlink:href="#DejaVuSerif-20" transform="translate(816.503906 0)"/>
      <use xlink:href="#DejaVuSerif-28" transform="translate(848.291016 0)"/>
      <use xlink:href="#DejaVuSerif-70" transform="translate(887.304688 0)"/>
      <use xlink:href="#DejaVuSerif-6f" transform="translate(951.318359 0)"/>
      <use xlink:href="#DejaVuSerif-73" transform="translate(1011.523438 0)"/>
      <use xlink:href="#DejaVuSerif-74" transform="translate(1062.841797 0)"/>
      <use xlink:href="#DejaVuSerif-65" transform="translate(1103.027344 0)"/>
      <use xlink:href="#DejaVuSerif-72" transform="translate(1162.207031 0)"/>
      <use xlink:href="#DejaVuSerif-69" transform="translate(1210.009766 0)"/>
      <use xlink:href="#DejaVuSerif-6f" transform="translate(1241.992188 0)"/>
      <use xlink:href="#DejaVuSerif-72" transform="translate(1302.197266 0)"/>
      <use xlink:href="#DejaVuSerif-20" transform="translate(1350 0)"/>
      <use xlink:href="#DejaVuSerif-2d" transform="translate(1381.787109 0)"/>
      <use xlink:href="#DejaVuSerif-20" transform="translate(1415.576172 0)"/>
      <use xlink:href="#DejaVuSerif-70" transform="translate(1447.363281 0)"/>
      <use xlink:href="#DejaVuSerif-72" transform="translate(1511.376953 0)"/>
      <use xlink:href="#DejaVuSerif-69" transform="translate(1559.179688 0)"/>
      <use xlink:href="#DejaVuSerif-6f" transform="translate(1591.162109 0)"/>
      <use xlink:href="#DejaVuSerif-72" transform="translate(1651.367188 0)"/>
      <use xlink:href="#DejaVuSerif-29" transform="translate(1699.169922 0)"/>
     </g>
    </g>
   </g>
   <g id="matplotlib.axis_2">
    <g id="ytick_1">
     <g id="line2d_11">
      <path d="M 79.895156 359.326355 
L 703.695156 359.326355 
" clip-path="url(#pb5e4c1abdc)" style="fill: none; stroke: #cccccc; stroke-width: 0.8; stroke-linecap: round"/>
     </g>
     <g id="line2d_12"/>
     <g id="text_7">
      <!-- clarity -->
      <g style="fill: #262626" transform="translate(40.746562 363.505496) scale(0.11 -0.11)">
       <defs>
        <path id="DejaVuSerif-63" d="M 3291 997 
Q 3169 466 2822 187 
Q 2475 -91 1925 -91 
Q 1200 -91 759 389 
Q 319 869 319 1663 
Q 319 2459 759 2936 
Q 1200 3413 1925 3413 
Q 2241 3413 2553 3339 
Q 2866 3266 3181 3116 
L 3181 2266 
L 2847 2266 
Q 2781 2703 2561 2903 
Q 2341 3103 1931 3103 
Q 1466 3103 1228 2742 
Q 991 2381 991 1663 
Q 991 944 1227 581 
Q 1463 219 1931 219 
Q 2303 219 2525 412 
Q 2747 606 2828 997 
L 3291 997 
z
" transform="scale(0.015625)"/>
        <path id="DejaVuSerif-79" d="M 1381 -609 
L 1600 -56 
L 359 2988 
L -19 2988 
L -19 3322 
L 1509 3322 
L 1509 2988 
L 978 2988 
L 1913 703 
L 2847 2988 
L 2350 2988 
L 2350 3322 
L 3597 3322 
L 3597 2988 
L 3225 2988 
L 1703 -750 
Q 1547 -1138 1356 -1280 
Q 1166 -1422 819 -1422 
Q 672 -1422 517 -1397 
Q 363 -1372 206 -1325 
L 206 -691 
L 500 -691 
Q 519 -903 608 -995 
Q 697 -1088 884 -1088 
Q 1056 -1088 1161 -992 
Q 1266 -897 1381 -609 
z
" transform="scale(0.015625)"/>
       </defs>
       <use xlink:href="#DejaVuSerif-63"/>
       <use xlink:href="#DejaVuSerif-6c" transform="translate(56.005859 0)"/>
       <use xlink:href="#DejaVuSerif-61" transform="translate(87.988281 0)"/>
       <use xlink:href="#DejaVuSerif-72" transform="translate(147.607422 0)"/>
       <use xlink:href="#DejaVuSerif-69" transform="translate(195.410156 0)"/>
       <use xlink:href="#DejaVuSerif-74" transform="translate(227.392578 0)"/>
       <use xlink:href="#DejaVuSerif-79" transform="translate(267.578125 0)"/>
      </g>
     </g>
    </g>
    <g id="ytick_2">
     <g id="line2d_13">
      <path d="M 79.895156 334.670957 
L 703.695156 334.670957 
" clip-path="url(#pb5e4c1abdc)" style="fill: none; stroke: #cccccc; stroke-width: 0.8; stroke-linecap: round"/>
     </g>
     <g id="line2d_14"/>
     <g id="text_8">
      <!-- engagement -->
      <g style="fill: #262626" transform="translate(7.2 338.771895) scale(0.11 -0.11)">
       <defs>
        <path id="DejaVuSerif-67" d="M 3359 2988 
L 3359 72 
Q 3359 -644 2965 -1033 
Q 2572 -1422 1844 -1422 
Q 1516 -1422 1216 -1362 
Q 916 -1303 641 -1184 
L 641 -488 
L 941 -488 
Q 997 -813 1206 -963 
Q 1416 -1113 1806 -1113 
Q 2313 -1113 2548 -827 
Q 2784 -541 2784 72 
L 2784 519 
Q 2616 206 2355 57 
Q 2094 -91 1709 -91 
Q 1097 -91 708 395 
Q 319 881 319 1663 
Q 319 2444 706 2928 
Q 1094 3413 1709 3413 
Q 2094 3413 2355 3264 
Q 2616 3116 2784 2803 
L 2784 3322 
L 3909 3322 
L 3909 2988 
L 3359 2988 
z
M 2784 1825 
Q 2784 2422 2554 2737 
Q 2325 3053 1888 3053 
Q 1444 3053 1217 2703 
Q 991 2353 991 1663 
Q 991 975 1217 622 
Q 1444 269 1888 269 
Q 2325 269 2554 583 
Q 2784 897 2784 1497 
L 2784 1825 
z
" transform="scale(0.015625)"/>
        <path id="DejaVuSerif-6d" d="M 3316 2675 
Q 3481 3041 3739 3227 
Q 3997 3413 4341 3413 
Q 4863 3413 5119 3089 
Q 5375 2766 5375 2113 
L 5375 331 
L 5894 331 
L 5894 0 
L 4300 0 
L 4300 331 
L 4800 331 
L 4800 2047 
Q 4800 2556 4650 2772 
Q 4500 2988 4153 2988 
Q 3769 2988 3567 2697 
Q 3366 2406 3366 1850 
L 3366 331 
L 3866 331 
L 3866 0 
L 2291 0 
L 2291 331 
L 2791 331 
L 2791 2069 
Q 2791 2566 2641 2777 
Q 2491 2988 2144 2988 
Q 1759 2988 1557 2697 
Q 1356 2406 1356 1850 
L 1356 331 
L 1856 331 
L 1856 0 
L 263 0 
L 263 331 
L 781 331 
L 781 2994 
L 231 2994 
L 231 3322 
L 1356 3322 
L 1356 2731 
Q 1516 3063 1762 3238 
Q 2009 3413 2322 3413 
Q 2709 3413 2968 3220 
Q 3228 3028 3316 2675 
z
" transform="scale(0.015625)"/>
       </defs>
       <use xlink:href="#DejaVuSerif-65"/>
       <use xlink:href="#DejaVuSerif-6e" transform="translate(59.179688 0)"/>
       <use xlink:href="#DejaVuSerif-67" transform="translate(123.583984 0)"/>
       <use xlink:href="#DejaVuSerif-61" transform="translate(187.597656 0)"/>
       <use xlink:href="#DejaVuSerif-67" transform="translate(247.216797 0)"/>
       <use xlink:href="#DejaVuSerif-65" transform="translate(311.230469 0)"/>
       <use xlink:href="#DejaVuSerif-6d" transform="translate(370.410156 0)"/>
       <use xlink:href="#DejaVuSerif-65" transform="translate(465.234375 0)"/>
       <use xlink:href="#DejaVuSerif-6e" transform="translate(524.414062 0)"/>
       <use xlink:href="#DejaVuSerif-74" transform="translate(588.818359 0)"/>
      </g>
     </g>
    </g>
    <g id="ytick_3">
     <g id="line2d_15">
      <path d="M 79.895156 310.01556 
L 703.695156 310.01556 
" clip-path="url(#pb5e4c1abdc)" style="fill: none; stroke: #cccccc; stroke-width: 0.8; stroke-linecap: round"/>
     </g>
     <g id="line2d_16"/>
     <g id="text_9">
      <!-- do -->
      <g style="fill: #262626" transform="translate(62.731094 314.1947) scale(0.11 -0.11)">
       <defs>
        <path id="DejaVuSerif-64" d="M 3359 331 
L 3909 331 
L 3909 0 
L 2784 0 
L 2784 519 
Q 2616 206 2355 57 
Q 2094 -91 1709 -91 
Q 1097 -91 708 395 
Q 319 881 319 1663 
Q 319 2444 706 2928 
Q 1094 3413 1709 3413 
Q 2094 3413 2355 3264 
Q 2616 3116 2784 2803 
L 2784 4531 
L 2241 4531 
L 2241 4863 
L 3359 4863 
L 3359 331 
z
M 2784 1497 
L 2784 1825 
Q 2784 2422 2554 2737 
Q 2325 3053 1888 3053 
Q 1444 3053 1217 2703 
Q 991 2353 991 1663 
Q 991 975 1217 622 
Q 1444 269 1888 269 
Q 2325 269 2554 583 
Q 2784 897 2784 1497 
z
" transform="scale(0.015625)"/>
       </defs>
       <use xlink:href="#DejaVuSerif-64"/>
       <use xlink:href="#DejaVuSerif-6f" transform="translate(64.013672 0)"/>
      </g>
     </g>
    </g>
    <g id="ytick_4">
     <g id="line2d_17">
      <path d="M 79.895156 285.360162 
L 703.695156 285.360162 
" clip-path="url(#pb5e4c1abdc)" style="fill: none; stroke: #cccccc; stroke-width: 0.8; stroke-linecap: round"/>
     </g>
     <g id="line2d_18"/>
     <g id="text_10">
      <!-- coherence -->
      <g style="fill: #262626" transform="translate(18.493906 289.539303) scale(0.11 -0.11)">
       <defs>
        <path id="DejaVuSerif-68" d="M 263 0 
L 263 331 
L 781 331 
L 781 4531 
L 231 4531 
L 231 4863 
L 1356 4863 
L 1356 2731 
Q 1516 3069 1770 3241 
Q 2025 3413 2363 3413 
Q 2913 3413 3172 3097 
Q 3431 2781 3431 2113 
L 3431 331 
L 3944 331 
L 3944 0 
L 2356 0 
L 2356 331 
L 2853 331 
L 2853 1931 
Q 2853 2541 2704 2764 
Q 2556 2988 2175 2988 
Q 1775 2988 1565 2697 
Q 1356 2406 1356 1850 
L 1356 331 
L 1856 331 
L 1856 0 
L 263 0 
z
" transform="scale(0.015625)"/>
       </defs>
       <use xlink:href="#DejaVuSerif-63"/>
       <use xlink:href="#DejaVuSerif-6f" transform="translate(56.005859 0)"/>
       <use xlink:href="#DejaVuSerif-68" transform="translate(116.210938 0)"/>
       <use xlink:href="#DejaVuSerif-65" transform="translate(180.615234 0)"/>
       <use xlink:href="#DejaVuSerif-72" transform="translate(239.794922 0)"/>
       <use xlink:href="#DejaVuSerif-65" transform="translate(287.597656 0)"/>
       <use xlink:href="#DejaVuSerif-6e" transform="translate(346.777344 0)"/>
       <use xlink:href="#DejaVuSerif-63" transform="translate(411.181641 0)"/>
       <use xlink:href="#DejaVuSerif-65" transform="translate(467.1875 0)"/>
      </g>
     </g>
    </g>
    <g id="ytick_5">
     <g id="line2d_19">
      <path d="M 79.895156 260.704764 
L 703.695156 260.704764 
" clip-path="url(#pb5e4c1abdc)" style="fill: none; stroke: #cccccc; stroke-width: 0.8; stroke-linecap: round"/>
     </g>
     <g id="line2d_20"/>
     <g id="text_11">
      <!-- state -->
      <g style="fill: #262626" transform="translate(48.840156 264.883905) scale(0.11 -0.11)">
       <use xlink:href="#DejaVuSerif-73"/>
       <use xlink:href="#DejaVuSerif-74" transform="translate(51.318359 0)"/>
       <use xlink:href="#DejaVuSerif-61" transform="translate(91.503906 0)"/>
       <use xlink:href="#DejaVuSerif-74" transform="translate(151.123047 0)"/>
       <use xlink:href="#DejaVuSerif-65" transform="translate(191.308594 0)"/>
      </g>
     </g>
    </g>
    <g id="ytick_6">
     <g id="line2d_21">
      <path d="M 79.895156 236.049366 
L 703.695156 236.049366 
" clip-path="url(#pb5e4c1abdc)" style="fill: none; stroke: #cccccc; stroke-width: 0.8; stroke-linecap: round"/>
     </g>
     <g id="line2d_22"/>
     <g id="text_12">
      <!-- context -->
      <g style="fill: #262626" transform="translate(34.973281 240.228507) scale(0.11 -0.11)">
       <defs>
        <path id="DejaVuSerif-78" d="M 1863 2028 
L 2559 2988 
L 2113 2988 
L 2113 3322 
L 3391 3322 
L 3391 2988 
L 2950 2988 
L 2059 1759 
L 3097 331 
L 3531 331 
L 3531 0 
L 1997 0 
L 1997 331 
L 2419 331 
L 1697 1325 
L 972 331 
L 1403 331 
L 1403 0 
L 141 0 
L 141 331 
L 581 331 
L 1497 1594 
L 488 2988 
L 78 2988 
L 78 3322 
L 1563 3322 
L 1563 2988 
L 1166 2988 
L 1863 2028 
z
" transform="scale(0.015625)"/>
       </defs>
       <use xlink:href="#DejaVuSerif-63"/>
       <use xlink:href="#DejaVuSerif-6f" transform="translate(56.005859 0)"/>
       <use xlink:href="#DejaVuSerif-6e" transform="translate(116.210938 0)"/>
       <use xlink:href="#DejaVuSerif-74" transform="translate(180.615234 0)"/>
       <use xlink:href="#DejaVuSerif-65" transform="translate(220.800781 0)"/>
       <use xlink:href="#DejaVuSerif-78" transform="translate(279.980469 0)"/>
       <use xlink:href="#DejaVuSerif-74" transform="translate(336.376953 0)"/>
      </g>
     </g>
    </g>
    <g id="ytick_7">
     <g id="line2d_23">
      <path d="M 79.895156 211.393969 
L 703.695156 211.393969 
" clip-path="url(#pb5e4c1abdc)" style="fill: none; stroke: #cccccc; stroke-width: 0.8; stroke-linecap: round"/>
     </g>
     <g id="line2d_24"/>
     <g id="text_13">
      <!-- signal -->
      <g style="fill: #262626" transform="translate(43.029063 215.573109) scale(0.11 -0.11)">
       <use xlink:href="#DejaVuSerif-73"/>
       <use xlink:href="#DejaVuSerif-69" transform="translate(51.318359 0)"/>
       <use xlink:href="#DejaVuSerif-67" transform="translate(83.300781 0)"/>
       <use xlink:href="#DejaVuSerif-6e" transform="translate(147.314453 0)"/>
       <use xlink:href="#DejaVuSerif-61" transform="translate(211.71875 0)"/>
       <use xlink:href="#DejaVuSerif-6c" transform="translate(271.337891 0)"/>
      </g>
     </g>
    </g>
    <g id="ytick_8">
     <g id="line2d_25">
      <path d="M 79.895156 186.738571 
L 703.695156 186.738571 
" clip-path="url(#pb5e4c1abdc)" style="fill: none; stroke: #cccccc; stroke-width: 0.8; stroke-linecap: round"/>
     </g>
     <g id="line2d_26"/>
     <g id="text_14">
      <!-- know -->
      <g style="fill: #262626" transform="translate(46.6075 190.917712) scale(0.11 -0.11)">
       <defs>
        <path id="DejaVuSerif-6b" d="M 1831 0 
L 219 0 
L 219 331 
L 738 331 
L 738 4531 
L 184 4531 
L 184 4863 
L 1313 4863 
L 1313 1697 
L 2713 2988 
L 2234 2988 
L 2234 3322 
L 3738 3322 
L 3738 2988 
L 3169 2988 
L 2181 2075 
L 3444 331 
L 3922 331 
L 3922 0 
L 2284 0 
L 2284 331 
L 2759 331 
L 1766 1697 
L 1313 1275 
L 1313 331 
L 1831 331 
L 1831 0 
z
" transform="scale(0.015625)"/>
        <path id="DejaVuSerif-77" d="M 3072 3322 
L 3922 728 
L 4672 2988 
L 4191 2988 
L 4191 3322 
L 5394 3322 
L 5394 2988 
L 5025 2988 
L 4038 0 
L 3559 0 
L 2741 2484 
L 1919 0 
L 1459 0 
L 475 2988 
L 103 2988 
L 103 3322 
L 1606 3322 
L 1606 2988 
L 1069 2988 
L 1813 728 
L 2669 3322 
L 3072 3322 
z
" transform="scale(0.015625)"/>
       </defs>
       <use xlink:href="#DejaVuSerif-6b"/>
       <use xlink:href="#DejaVuSerif-6e" transform="translate(60.595703 0)"/>
       <use xlink:href="#DejaVuSerif-6f" transform="translate(125 0)"/>
       <use xlink:href="#DejaVuSerif-77" transform="translate(185.205078 0)"/>
      </g>
     </g>
    </g>
    <g id="ytick_9">
     <g id="line2d_27">
      <path d="M 79.895156 162.083173 
L 703.695156 162.083173 
" clip-path="url(#pb5e4c1abdc)" style="fill: none; stroke: #cccccc; stroke-width: 0.8; stroke-linecap: round"/>
     </g>
     <g id="line2d_28"/>
     <g id="text_15">
      <!-- completion -->
      <g style="fill: #262626" transform="translate(14.465156 166.262314) scale(0.11 -0.11)">
       <use xlink:href="#DejaVuSerif-63"/>
       <use xlink:href="#DejaVuSerif-6f" transform="translate(56.005859 0)"/>
       <use xlink:href="#DejaVuSerif-6d" transform="translate(116.210938 0)"/>
       <use xlink:href="#DejaVuSerif-70" transform="translate(211.035156 0)"/>
       <use xlink:href="#DejaVuSerif-6c" transform="translate(275.048828 0)"/>
       <use xlink:href="#DejaVuSerif-65" transform="translate(307.03125 0)"/>
       <use xlink:href="#DejaVuSerif-74" transform="translate(366.210938 0)"/>
       <use xlink:href="#DejaVuSerif-69" transform="translate(406.396484 0)"/>
       <use xlink:href="#DejaVuSerif-6f" transform="translate(438.378906 0)"/>
       <use xlink:href="#DejaVuSerif-6e" transform="translate(498.583984 0)"/>
      </g>
     </g>
    </g>
    <g id="ytick_10">
     <g id="line2d_29">
      <path d="M 79.895156 137.427776 
L 703.695156 137.427776 
" clip-path="url(#pb5e4c1abdc)" style="fill: none; stroke: #cccccc; stroke-width: 0.8; stroke-linecap: round"/>
     </g>
     <g id="line2d_30"/>
     <g id="text_16">
      <!-- impact -->
      <g style="fill: #262626" transform="translate(38.264688 141.606916) scale(0.11 -0.11)">
       <use xlink:href="#DejaVuSerif-69"/>
       <use xlink:href="#DejaVuSerif-6d" transform="translate(31.982422 0)"/>
       <use xlink:href="#DejaVuSerif-70" transform="translate(126.806641 0)"/>
       <use xlink:href="#DejaVuSerif-61" transform="translate(190.820312 0)"/>
       <use xlink:href="#DejaVuSerif-63" transform="translate(250.439453 0)"/>
       <use xlink:href="#DejaVuSerif-74" transform="translate(306.445312 0)"/>
      </g>
     </g>
    </g>
    <g id="ytick_11">
     <g id="line2d_31">
      <path d="M 79.895156 112.772378 
L 703.695156 112.772378 
" clip-path="url(#pb5e4c1abdc)" style="fill: none; stroke: #cccccc; stroke-width: 0.8; stroke-linecap: round"/>
     </g>
     <g id="line2d_32"/>
     <g id="text_17">
      <!-- change -->
      <g style="fill: #262626" transform="translate(35.954687 116.951518) scale(0.11 -0.11)">
       <use xlink:href="#DejaVuSerif-63"/>
       <use xlink:href="#DejaVuSerif-68" transform="translate(56.005859 0)"/>
       <use xlink:href="#DejaVuSerif-61" transform="translate(120.410156 0)"/>
       <use xlink:href="#DejaVuSerif-6e" transform="translate(180.029297 0)"/>
       <use xlink:href="#DejaVuSerif-67" transform="translate(244.433594 0)"/>
       <use xlink:href="#DejaVuSerif-65" transform="translate(308.447266 0)"/>
      </g>
     </g>
    </g>
    <g id="ytick_12">
     <g id="line2d_33">
      <path d="M 79.895156 88.11698 
L 703.695156 88.11698 
" clip-path="url(#pb5e4c1abdc)" style="fill: none; stroke: #cccccc; stroke-width: 0.8; stroke-linecap: round"/>
     </g>
     <g id="line2d_34"/>
     <g id="text_18">
      <!-- density -->
      <g style="fill: #262626" transform="translate(35.959844 92.296121) scale(0.11 -0.11)">
       <use xlink:href="#DejaVuSerif-64"/>
       <use xlink:href="#DejaVuSerif-65" transform="translate(64.013672 0)"/>
       <use xlink:href="#DejaVuSerif-6e" transform="translate(123.193359 0)"/>
       <use xlink:href="#DejaVuSerif-73" transform="translate(187.597656 0)"/>
       <use xlink:href="#DejaVuSerif-69" transform="translate(238.916016 0)"/>
       <use xlink:href="#DejaVuSerif-74" transform="translate(270.898438 0)"/>
       <use xlink:href="#DejaVuSerif-79" transform="translate(311.083984 0)"/>
      </g>
     </g>
    </g>
    <g id="ytick_13">
     <g id="line2d_35">
      <path d="M 79.895156 63.461582 
L 703.695156 63.461582 
" clip-path="url(#pb5e4c1abdc)" style="fill: none; stroke: #cccccc; stroke-width: 0.8; stroke-linecap: round"/>
     </g>
     <g id="line2d_36"/>
     <g id="text_19">
      <!-- uncertainty -->
      <g style="fill: #262626" transform="translate(12.079531 67.56252) scale(0.11 -0.11)">
       <defs>
        <path id="DejaVuSerif-75" d="M 2266 3322 
L 3341 3322 
L 3341 331 
L 3884 331 
L 3884 0 
L 2766 0 
L 2766 588 
Q 2606 256 2353 82 
Q 2100 -91 1766 -91 
Q 1213 -91 952 223 
Q 691 538 691 1209 
L 691 2988 
L 172 2988 
L 172 3322 
L 1269 3322 
L 1269 1388 
Q 1269 781 1417 556 
Q 1566 331 1947 331 
Q 2347 331 2556 625 
Q 2766 919 2766 1478 
L 2766 2988 
L 2266 2988 
L 2266 3322 
z
" transform="scale(0.015625)"/>
       </defs>
       <use xlink:href="#DejaVuSerif-75"/>
       <use xlink:href="#DejaVuSerif-6e" transform="translate(64.404297 0)"/>
       <use xlink:href="#DejaVuSerif-63" transform="translate(128.808594 0)"/>
       <use xlink:href="#DejaVuSerif-65" transform="translate(184.814453 0)"/>
       <use xlink:href="#DejaVuSerif-72" transform="translate(243.994141 0)"/>
       <use xlink:href="#DejaVuSerif-74" transform="translate(291.796875 0)"/>
       <use xlink:href="#DejaVuSerif-61" transform="translate(331.982422 0)"/>
       <use xlink:href="#DejaVuSerif-69" transform="translate(391.601562 0)"/>
       <use xlink:href="#DejaVuSerif-6e" transform="translate(423.583984 0)"/>
       <use xlink:href="#DejaVuSerif-74" transform="translate(487.988281 0)"/>
       <use xlink:href="#DejaVuSerif-79" transform="translate(528.173828 0)"/>
      </g>
     </g>
    </g>
   </g>
   <g id="patch_3">
    <path d="M 375.379367 369.188514 
L 620.302946 369.188514 
L 620.302946 349.464196 
L 375.379367 349.464196 
z
" clip-path="url(#pb5e4c1abdc)" style="fill: #2ecc71; stroke: #000000; stroke-width: 0.5; stroke-linejoin: miter"/>
   </g>
   <g id="patch_4">
    <path d="M 375.379367 344.533116 
L 615.706525 344.533116 
L 615.706525 324.808798 
L 375.379367 324.808798 
z
" clip-path="url(#pb5e4c1abdc)" style="fill: #2ecc71; stroke: #000000; stroke-width: 0.5; stroke-linejoin: miter"/>
   </g>
   <g id="patch_5">
    <path d="M 375.379367 319.877719 
L 608.483577 319.877719 
L 608.483577 300.153401 
L 375.379367 300.153401 
z
" clip-path="url(#pb5e4c1abdc)" style="fill: #2ecc71; stroke: #000000; stroke-width: 0.5; stroke-linejoin: miter"/>
   </g>
   <g id="patch_6">
    <path d="M 375.379367 295.222321 
L 607.826946 295.222321 
L 607.826946 275.498003 
L 375.379367 275.498003 
z
" clip-path="url(#pb5e4c1abdc)" style="fill: #2ecc71; stroke: #000000; stroke-width: 0.5; stroke-linejoin: miter"/>
   </g>
   <g id="patch_7">
    <path d="M 375.379367 270.566923 
L 603.230525 270.566923 
L 603.230525 250.842605 
L 375.379367 250.842605 
z
" clip-path="url(#pb5e4c1abdc)" style="fill: #2ecc71; stroke: #000000; stroke-width: 0.5; stroke-linejoin: miter"/>
   </g>
   <g id="patch_8">
    <path d="M 375.379367 245.911526 
L 601.917262 245.911526 
L 601.917262 226.187207 
L 375.379367 226.187207 
z
" clip-path="url(#pb5e4c1abdc)" style="fill: #2ecc71; stroke: #000000; stroke-width: 0.5; stroke-linejoin: miter"/>
   </g>
   <g id="patch_9">
    <path d="M 375.379367 221.256128 
L 599.947367 221.256128 
L 599.947367 201.53181 
L 375.379367 201.53181 
z
" clip-path="url(#pb5e4c1abdc)" style="fill: #2ecc71; stroke: #000000; stroke-width: 0.5; stroke-linejoin: miter"/>
   </g>
   <g id="patch_10">
    <path d="M 375.379367 196.60073 
L 592.067788 196.60073 
L 592.067788 176.876412 
L 375.379367 176.876412 
z
" clip-path="url(#pb5e4c1abdc)" style="fill: #2ecc71; stroke: #000000; stroke-width: 0.5; stroke-linejoin: miter"/>
   </g>
   <g id="patch_11">
    <path d="M 375.379367 171.945332 
L 586.158104 171.945332 
L 586.158104 152.221014 
L 375.379367 152.221014 
z
" clip-path="url(#pb5e4c1abdc)" style="fill: #2ecc71; stroke: #000000; stroke-width: 0.5; stroke-linejoin: miter"/>
   </g>
   <g id="patch_12">
    <path d="M 375.379367 147.289935 
L 580.248419 147.289935 
L 580.248419 127.565616 
L 375.379367 127.565616 
z
" clip-path="url(#pb5e4c1abdc)" style="fill: #2ecc71; stroke: #000000; stroke-width: 0.5; stroke-linejoin: miter"/>
   </g>
   <g id="patch_13">
    <path d="M 375.379367 122.634537 
L 578.278525 122.634537 
L 578.278525 102.910219 
L 375.379367 102.910219 
z
" clip-path="url(#pb5e4c1abdc)" style="fill: #2ecc71; stroke: #000000; stroke-width: 0.5; stroke-linejoin: miter"/>
   </g>
   <g id="patch_14">
    <path d="M 375.379367 97.979139 
L 506.049051 97.979139 
L 506.049051 78.254821 
L 375.379367 78.254821 
z
" clip-path="url(#pb5e4c1abdc)" style="fill: #2ecc71; stroke: #000000; stroke-width: 0.5; stroke-linejoin: miter"/>
   </g>
   <g id="patch_15">
    <path d="M 375.379367 73.323741 
L 171.166946 73.323741 
L 171.166946 53.599423 
L 375.379367 53.599423 
z
" clip-path="url(#pb5e4c1abdc)" style="fill: #e74c3c; stroke: #000000; stroke-width: 0.5; stroke-linejoin: miter"/>
   </g>
   <g id="line2d_37">
    <path d="M 375.379367 384.967969 
L 375.379367 37.819969 
" clip-path="url(#pb5e4c1abdc)" style="fill: none; stroke: #000000; stroke-width: 1.5; stroke-linecap: round"/>
   </g>
   <g id="patch_16">
    <path d="M 79.895156 384.967969 
L 79.895156 37.819969 
" style="fill: none; stroke: #cccccc; stroke-linejoin: miter; stroke-linecap: square"/>
   </g>
   <g id="patch_17">
    <path d="M 703.695156 384.967969 
L 703.695156 37.819969 
" style="fill: none; stroke: #cccccc; stroke-linejoin: miter; stroke-linecap: square"/>
   </g>
   <g id="patch_18">
    <path d="M 79.895156 384.967969 
L 703.695156 384.967969 
" style="fill: none; stroke: #cccccc; stroke-linejoin: miter; stroke-linecap: square"/>
   </g>
   <g id="patch_19">
    <path d="M 79.895156 37.819969 
L 703.695156 37.819969 
" style="fill: none; stroke: #cccccc; stroke-linejoin: miter; stroke-linecap: square"/>
   </g>
   <g id="text_20">
    <!-- +0.373 -->
    <g style="fill: #262626" transform="translate(633.435577 362.08573) scale(0.1 -0.1)">
     <defs>
      <path id="DejaVuSerif-Bold-2b" d="M 3041 4013 
L 3041 2369 
L 4684 2369 
L 4684 1650 
L 3041 1650 
L 3041 6 
L 2322 6 
L 2322 1650 
L 678 1650 
L 678 2369 
L 2322 2369 
L 2322 4013 
L 3041 4013 
z
" transform="scale(0.015625)"/>
      <path id="DejaVuSerif-Bold-30" d="M 2228 275 
Q 2603 275 2742 615 
Q 2881 956 2881 2328 
Q 2881 3691 2742 4037 
Q 2603 4384 2228 4384 
Q 1853 4384 1714 4043 
Q 1575 3703 1575 2328 
Q 1575 956 1714 615 
Q 1853 275 2228 275 
z
M 2228 -91 
Q 1294 -91 797 532 
Q 300 1156 300 2328 
Q 300 3500 797 4125 
Q 1294 4750 2228 4750 
Q 3159 4750 3656 4125 
Q 4153 3500 4153 2328 
Q 4153 1156 3656 532 
Q 3159 -91 2228 -91 
z
" transform="scale(0.015625)"/>
      <path id="DejaVuSerif-Bold-2e" d="M 519 506 
Q 519 750 694 925 
Q 869 1100 1113 1100 
Q 1359 1100 1534 925 
Q 1709 750 1709 506 
Q 1709 259 1534 84 
Q 1359 -91 1113 -91 
Q 869 -91 694 84 
Q 519 259 519 506 
z
" transform="scale(0.015625)"/>
      <path id="DejaVuSerif-Bold-33" d="M 550 4531 
Q 963 4641 1350 4695 
Q 1738 4750 2106 4750 
Q 2950 4750 3401 4448 
Q 3853 4147 3853 3584 
Q 3853 3163 3593 2900 
Q 3334 2638 2834 2547 
Q 3444 2450 3744 2131 
Q 4044 1813 4044 1259 
Q 4044 606 3526 257 
Q 3009 -91 2028 -91 
Q 1659 -91 1267 -28 
Q 875 34 447 159 
L 447 1184 
L 825 1184 
Q 859 741 1103 508 
Q 1347 275 1778 275 
Q 2253 275 2512 539 
Q 2772 803 2772 1288 
Q 2772 1794 2501 2069 
Q 2231 2344 1734 2344 
L 1528 2344 
L 1528 2719 
L 1691 2719 
Q 2150 2719 2381 2931 
Q 2613 3144 2613 3566 
Q 2613 3963 2395 4173 
Q 2178 4384 1772 4384 
Q 1403 4384 1187 4182 
Q 972 3981 928 3597 
L 550 3597 
L 550 4531 
z
" transform="scale(0.015625)"/>
      <path id="DejaVuSerif-Bold-37" d="M 3922 3872 
L 1997 0 
L 1363 0 
L 3238 3781 
L 934 3781 
L 934 3150 
L 506 3150 
L 506 4666 
L 3922 4666 
L 3922 3872 
z
" transform="scale(0.015625)"/>
     </defs>
     <use xlink:href="#DejaVuSerif-Bold-2b"/>
     <use xlink:href="#DejaVuSerif-Bold-30" transform="translate(83.789062 0)"/>
     <use xlink:href="#DejaVuSerif-Bold-2e" transform="translate(153.369141 0)"/>
     <use xlink:href="#DejaVuSerif-Bold-33" transform="translate(188.183594 0)"/>
     <use xlink:href="#DejaVuSerif-Bold-37" transform="translate(257.763672 0)"/>
     <use xlink:href="#DejaVuSerif-Bold-33" transform="translate(327.34375 0)"/>
    </g>
   </g>
   <g id="text_21">
    <!-- +0.366 -->
    <g style="fill: #262626" transform="translate(628.839156 337.430332) scale(0.1 -0.1)">
     <defs>
      <path id="DejaVuSerif-Bold-36" d="M 1575 2766 
Q 1778 2928 2029 3009 
Q 2281 3091 2578 3091 
Q 3294 3091 3701 2672 
Q 4109 2253 4109 1522 
Q 4109 750 3650 329 
Q 3191 -91 2344 -91 
Q 1388 -91 895 486 
Q 403 1063 403 2181 
Q 403 3453 950 4101 
Q 1497 4750 2572 4750 
Q 2853 4750 3175 4703 
Q 3497 4656 3866 4563 
L 3866 3738 
L 3488 3738 
Q 3409 4056 3192 4220 
Q 2975 4384 2631 4384 
Q 2075 4384 1826 4003 
Q 1578 3622 1575 2766 
z
M 2272 275 
Q 2594 275 2731 548 
Q 2869 822 2869 1497 
Q 2869 2172 2731 2445 
Q 2594 2719 2272 2719 
Q 1950 2719 1814 2445 
Q 1678 2172 1678 1497 
Q 1678 822 1814 548 
Q 1950 275 2272 275 
z
" transform="scale(0.015625)"/>
     </defs>
     <use xlink:href="#DejaVuSerif-Bold-2b"/>
     <use xlink:href="#DejaVuSerif-Bold-30" transform="translate(83.789062 0)"/>
     <use xlink:href="#DejaVuSerif-Bold-2e" transform="translate(153.369141 0)"/>
     <use xlink:href="#DejaVuSerif-Bold-33" transform="translate(188.183594 0)"/>
     <use xlink:href="#DejaVuSerif-Bold-36" transform="translate(257.763672 0)"/>
     <use xlink:href="#DejaVuSerif-Bold-36" transform="translate(327.34375 0)"/>
    </g>
   </g>
   <g id="text_22">
    <!-- +0.355 -->
    <g style="fill: #262626" transform="translate(621.616209 312.774935) scale(0.1 -0.1)">
     <defs>
      <path id="DejaVuSerif-Bold-35" d="M 3609 4666 
L 3609 3847 
L 1113 3847 
L 1113 2822 
Q 1319 2981 1572 3062 
Q 1825 3144 2106 3144 
Q 2969 3144 3469 2708 
Q 3969 2272 3969 1522 
Q 3969 759 3469 334 
Q 2969 -91 2069 -91 
Q 1688 -91 1311 -28 
Q 934 34 525 166 
L 525 1184 
L 900 1184 
Q 919 725 1139 500 
Q 1359 275 1791 275 
Q 2250 275 2472 583 
Q 2694 891 2694 1522 
Q 2694 2144 2476 2451 
Q 2259 2759 1819 2759 
Q 1581 2759 1395 2661 
Q 1209 2563 1050 2356 
L 738 2356 
L 738 4666 
L 3609 4666 
z
" transform="scale(0.015625)"/>
     </defs>
     <use xlink:href="#DejaVuSerif-Bold-2b"/>
     <use xlink:href="#DejaVuSerif-Bold-30" transform="translate(83.789062 0)"/>
     <use xlink:href="#DejaVuSerif-Bold-2e" transform="translate(153.369141 0)"/>
     <use xlink:href="#DejaVuSerif-Bold-33" transform="translate(188.183594 0)"/>
     <use xlink:href="#DejaVuSerif-Bold-35" transform="translate(257.763672 0)"/>
     <use xlink:href="#DejaVuSerif-Bold-35" transform="translate(327.34375 0)"/>
    </g>
   </g>
   <g id="text_23">
    <!-- +0.354 -->
    <g style="fill: #262626" transform="translate(620.959577 288.119537) scale(0.1 -0.1)">
     <defs>
      <path id="DejaVuSerif-Bold-34" d="M 4084 0 
L 1516 0 
L 1516 378 
L 2209 378 
L 2209 1228 
L 263 1228 
L 263 1588 
L 2216 4750 
L 3391 4750 
L 3391 1631 
L 4191 1631 
L 4191 1228 
L 3391 1228 
L 3391 378 
L 4084 378 
L 4084 0 
z
M 2209 1631 
L 2209 3897 
L 819 1631 
L 2209 1631 
z
" transform="scale(0.015625)"/>
     </defs>
     <use xlink:href="#DejaVuSerif-Bold-2b"/>
     <use xlink:href="#DejaVuSerif-Bold-30" transform="translate(83.789062 0)"/>
     <use xlink:href="#DejaVuSerif-Bold-2e" transform="translate(153.369141 0)"/>
     <use xlink:href="#DejaVuSerif-Bold-33" transform="translate(188.183594 0)"/>
     <use xlink:href="#DejaVuSerif-Bold-35" transform="translate(257.763672 0)"/>
     <use xlink:href="#DejaVuSerif-Bold-34" transform="translate(327.34375 0)"/>
    </g>
   </g>
   <g id="text_24">
    <!-- +0.347 -->
    <g style="fill: #262626" transform="translate(616.363156 263.464139) scale(0.1 -0.1)">
     <use xlink:href="#DejaVuSerif-Bold-2b"/>
     <use xlink:href="#DejaVuSerif-Bold-30" transform="translate(83.789062 0)"/>
     <use xlink:href="#DejaVuSerif-Bold-2e" transform="translate(153.369141 0)"/>
     <use xlink:href="#DejaVuSerif-Bold-33" transform="translate(188.183594 0)"/>
     <use xlink:href="#DejaVuSerif-Bold-34" transform="translate(257.763672 0)"/>
     <use xlink:href="#DejaVuSerif-Bold-37" transform="translate(327.34375 0)"/>
    </g>
   </g>
   <g id="text_25">
    <!-- +0.345 -->
    <g style="fill: #262626" transform="translate(615.049893 238.808741) scale(0.1 -0.1)">
     <use xlink:href="#DejaVuSerif-Bold-2b"/>
     <use xlink:href="#DejaVuSerif-Bold-30" transform="translate(83.789062 0)"/>
     <use xlink:href="#DejaVuSerif-Bold-2e" transform="translate(153.369141 0)"/>
     <use xlink:href="#DejaVuSerif-Bold-33" transform="translate(188.183594 0)"/>
     <use xlink:href="#DejaVuSerif-Bold-34" transform="translate(257.763672 0)"/>
     <use xlink:href="#DejaVuSerif-Bold-35" transform="translate(327.34375 0)"/>
    </g>
   </g>
   <g id="text_26">
    <!-- +0.342 -->
    <g style="fill: #262626" transform="translate(613.079998 214.153344) scale(0.1 -0.1)">
     <defs>
      <path id="DejaVuSerif-Bold-32" d="M 844 3513 
L 469 3513 
L 469 4519 
Q 850 4634 1223 4692 
Q 1597 4750 1978 4750 
Q 2869 4750 3367 4386 
Q 3866 4022 3866 3372 
Q 3866 2909 3591 2542 
Q 3316 2175 2541 1672 
L 1241 819 
L 3450 819 
L 3450 1369 
L 3878 1369 
L 3878 0 
L 428 0 
L 428 763 
L 1119 1241 
Q 2003 1850 2297 2278 
Q 2591 2706 2591 3278 
Q 2591 3819 2367 4101 
Q 2144 4384 1716 4384 
Q 1347 4384 1125 4161 
Q 903 3938 844 3513 
z
" transform="scale(0.015625)"/>
     </defs>
     <use xlink:href="#DejaVuSerif-Bold-2b"/>
     <use xlink:href="#DejaVuSerif-Bold-30" transform="translate(83.789062 0)"/>
     <use xlink:href="#DejaVuSerif-Bold-2e" transform="translate(153.369141 0)"/>
     <use xlink:href="#DejaVuSerif-Bold-33" transform="translate(188.183594 0)"/>
     <use xlink:href="#DejaVuSerif-Bold-34" transform="translate(257.763672 0)"/>
     <use xlink:href="#DejaVuSerif-Bold-32" transform="translate(327.34375 0)"/>
    </g>
   </g>
   <g id="text_27">
    <!-- +0.330 -->
    <g style="fill: #262626" transform="translate(605.200419 189.497946) scale(0.1 -0.1)">
     <use xlink:href="#DejaVuSerif-Bold-2b"/>
     <use xlink:href="#DejaVuSerif-Bold-30" transform="translate(83.789062 0)"/>
     <use xlink:href="#DejaVuSerif-Bold-2e" transform="translate(153.369141 0)"/>
     <use xlink:href="#DejaVuSerif-Bold-33" transform="translate(188.183594 0)"/>
     <use xlink:href="#DejaVuSerif-Bold-33" transform="translate(257.763672 0)"/>
     <use xlink:href="#DejaVuSerif-Bold-30" transform="translate(327.34375 0)"/>
    </g>
   </g>
   <g id="text_28">
    <!-- +0.321 -->
    <g style="fill: #262626" transform="translate(599.290735 164.842548) scale(0.1 -0.1)">
     <defs>
      <path id="DejaVuSerif-Bold-31" d="M 878 0 
L 878 378 
L 1753 378 
L 1753 4153 
L 781 3578 
L 781 4044 
L 1953 4750 
L 2938 4750 
L 2938 378 
L 3816 378 
L 3816 0 
L 878 0 
z
" transform="scale(0.015625)"/>
     </defs>
     <use xlink:href="#DejaVuSerif-Bold-2b"/>
     <use xlink:href="#DejaVuSerif-Bold-30" transform="translate(83.789062 0)"/>
     <use xlink:href="#DejaVuSerif-Bold-2e" transform="translate(153.369141 0)"/>
     <use xlink:href="#DejaVuSerif-Bold-33" transform="translate(188.183594 0)"/>
     <use xlink:href="#DejaVuSerif-Bold-32" transform="translate(257.763672 0)"/>
     <use xlink:href="#DejaVuSerif-Bold-31" transform="translate(327.34375 0)"/>
    </g>
   </g>
   <g id="text_29">
    <!-- +0.312 -->
    <g style="fill: #262626" transform="translate(593.381051 140.187151) scale(0.1 -0.1)">
     <use xlink:href="#DejaVuSerif-Bold-2b"/>
     <use xlink:href="#DejaVuSerif-Bold-30" transform="translate(83.789062 0)"/>
     <use xlink:href="#DejaVuSerif-Bold-2e" transform="translate(153.369141 0)"/>
     <use xlink:href="#DejaVuSerif-Bold-33" transform="translate(188.183594 0)"/>
     <use xlink:href="#DejaVuSerif-Bold-31" transform="translate(257.763672 0)"/>
     <use xlink:href="#DejaVuSerif-Bold-32" transform="translate(327.34375 0)"/>
    </g>
   </g>
   <g id="text_30">
    <!-- +0.309 -->
    <g style="fill: #262626" transform="translate(591.411156 115.531753) scale(0.1 -0.1)">
     <defs>
      <path id="DejaVuSerif-Bold-39" d="M 2181 4384 
Q 1859 4384 1723 4111 
Q 1588 3838 1588 3163 
Q 1588 2488 1723 2214 
Q 1859 1941 2181 1941 
Q 2503 1941 2640 2214 
Q 2778 2488 2778 3163 
Q 2778 3838 2640 4111 
Q 2503 4384 2181 4384 
z
M 2878 1900 
Q 2672 1734 2420 1651 
Q 2169 1569 1875 1569 
Q 1163 1569 755 1986 
Q 347 2403 347 3138 
Q 347 3913 803 4331 
Q 1259 4750 2106 4750 
Q 3063 4750 3556 4172 
Q 4050 3594 4050 2478 
Q 4050 1206 3503 557 
Q 2956 -91 1881 -91 
Q 1600 -91 1278 -44 
Q 956 3 588 97 
L 588 922 
L 966 922 
Q 1044 603 1261 439 
Q 1478 275 1825 275 
Q 2375 275 2625 658 
Q 2875 1041 2878 1900 
z
" transform="scale(0.015625)"/>
     </defs>
     <use xlink:href="#DejaVuSerif-Bold-2b"/>
     <use xlink:href="#DejaVuSerif-Bold-30" transform="translate(83.789062 0)"/>
     <use xlink:href="#DejaVuSerif-Bold-2e" transform="translate(153.369141 0)"/>
     <use xlink:href="#DejaVuSerif-Bold-33" transform="translate(188.183594 0)"/>
     <use xlink:href="#DejaVuSerif-Bold-30" transform="translate(257.763672 0)"/>
     <use xlink:href="#DejaVuSerif-Bold-39" transform="translate(327.34375 0)"/>
    </g>
   </g>
   <g id="text_31">
    <!-- +0.199 -->
    <g style="fill: #262626" transform="translate(519.181683 90.876355) scale(0.1 -0.1)">
     <use xlink:href="#DejaVuSerif-Bold-2b"/>
     <use xlink:href="#DejaVuSerif-Bold-30" transform="translate(83.789062 0)"/>
     <use xlink:href="#DejaVuSerif-Bold-2e" transform="translate(153.369141 0)"/>
     <use xlink:href="#DejaVuSerif-Bold-31" transform="translate(188.183594 0)"/>
     <use xlink:href="#DejaVuSerif-Bold-39" transform="translate(257.763672 0)"/>
     <use xlink:href="#DejaVuSerif-Bold-39" transform="translate(327.34375 0)"/>
    </g>
   </g>
   <g id="text_32">
    <!-- -0.311 -->
    <g style="fill: #262626" transform="translate(122.571814 66.220957) scale(0.1 -0.1)">
     <defs>
      <path id="DejaVuSerif-Bold-2d" d="M 347 2138 
L 2309 2138 
L 2309 1294 
L 347 1294 
L 347 2138 
z
" transform="scale(0.015625)"/>
     </defs>
     <use xlink:href="#DejaVuSerif-Bold-2d"/>
     <use xlink:href="#DejaVuSerif-Bold-30" transform="translate(41.503906 0)"/>
     <use xlink:href="#DejaVuSerif-Bold-2e" transform="translate(111.083984 0)"/>
     <use xlink:href="#DejaVuSerif-Bold-33" transform="translate(145.898438 0)"/>
     <use xlink:href="#DejaVuSerif-Bold-31" transform="translate(215.478516 0)"/>
     <use xlink:href="#DejaVuSerif-Bold-31" transform="translate(285.058594 0)"/>
    </g>
   </g>
   <g id="text_33">
    <!-- Figure 1: Systematic Calibration Bias Across 13 Epistemic Vectors -->
    <g style="fill: #262626" transform="translate(172.240391 17.077969) scale(0.13 -0.13)">
     <defs>
      <path id="DejaVuSerif-46" d="M 353 0 
L 353 331 
L 947 331 
L 947 4331 
L 353 4331 
L 353 4666 
L 4172 4666 
L 4172 3628 
L 3788 3628 
L 3788 4281 
L 1581 4281 
L 1581 2719 
L 3175 2719 
L 3175 3303 
L 3559 3303 
L 3559 1753 
L 3175 1753 
L 3175 2338 
L 1581 2338 
L 1581 331 
L 2328 331 
L 2328 0 
L 353 0 
z
" transform="scale(0.015625)"/>
      <path id="DejaVuSerif-31" d="M 909 0 
L 909 331 
L 1722 331 
L 1722 4213 
L 781 3603 
L 781 4013 
L 1919 4750 
L 2350 4750 
L 2350 331 
L 3163 331 
L 3163 0 
L 909 0 
z
" transform="scale(0.015625)"/>
      <path id="DejaVuSerif-3a" d="M 666 325 
Q 666 500 786 622 
Q 906 744 1081 744 
Q 1256 744 1376 622 
Q 1497 500 1497 325 
Q 1497 150 1378 29 
Q 1259 -91 1081 -91 
Q 903 -91 784 29 
Q 666 150 666 325 
z
M 666 2363 
Q 666 2538 786 2658 
Q 906 2778 1081 2778 
Q 1259 2778 1378 2659 
Q 1497 2541 1497 2363 
Q 1497 2184 1378 2065 
Q 1259 1947 1081 1947 
Q 906 1947 786 2067 
Q 666 2188 666 2363 
z
" transform="scale(0.015625)"/>
      <path id="DejaVuSerif-53" d="M 594 225 
L 594 1288 
L 953 1284 
Q 969 753 1261 498 
Q 1553 244 2150 244 
Q 2706 244 2998 464 
Q 3291 684 3291 1106 
Q 3291 1444 3114 1625 
Q 2938 1806 2369 1978 
L 1753 2163 
Q 1084 2366 811 2669 
Q 538 2972 538 3500 
Q 538 4094 959 4422 
Q 1381 4750 2144 4750 
Q 2469 4750 2856 4679 
Q 3244 4609 3681 4475 
L 3681 3481 
L 3328 3481 
Q 3275 3975 2998 4195 
Q 2722 4416 2156 4416 
Q 1663 4416 1405 4214 
Q 1147 4013 1147 3628 
Q 1147 3294 1340 3103 
Q 1534 2913 2163 2725 
L 2741 2553 
Q 3375 2363 3645 2067 
Q 3916 1772 3916 1275 
Q 3916 597 3481 253 
Q 3047 -91 2188 -91 
Q 1803 -91 1404 -12 
Q 1006 66 594 225 
z
" transform="scale(0.015625)"/>
      <path id="DejaVuSerif-41" d="M 1281 1691 
L 2994 1691 
L 2138 3909 
L 1281 1691 
z
M -38 0 
L -38 331 
L 372 331 
L 2034 4666 
L 2559 4666 
L 4225 331 
L 4684 331 
L 4684 0 
L 2988 0 
L 2988 331 
L 3506 331 
L 3116 1356 
L 1153 1356 
L 763 331 
L 1275 331 
L 1275 0 
L -38 0 
z
" transform="scale(0.015625)"/>
      <path id="DejaVuSerif-33" d="M 622 4469 
Q 988 4606 1323 4678 
Q 1659 4750 1953 4750 
Q 2638 4750 3022 4454 
Q 3406 4159 3406 3634 
Q 3406 3213 3140 2930 
Q 2875 2647 2388 2547 
Q 2963 2466 3280 2130 
Q 3597 1794 3597 1259 
Q 3597 606 3158 257 
Q 2719 -91 1894 -91 
Q 1528 -91 1179 -12 
Q 831 66 488 225 
L 488 1131 
L 838 1131 
Q 869 681 1141 450 
Q 1413 219 1906 219 
Q 2384 219 2661 495 
Q 2938 772 2938 1253 
Q 2938 1803 2653 2086 
Q 2369 2369 1819 2369 
L 1522 2369 
L 1522 2688 
L 1678 2688 
Q 2225 2688 2498 2914 
Q 2772 3141 2772 3597 
Q 2772 4006 2547 4223 
Q 2322 4441 1900 4441 
Q 1478 4441 1245 4241 
Q 1013 4041 972 3647 
L 622 3647 
L 622 4469 
z
" transform="scale(0.015625)"/>
      <path id="DejaVuSerif-45" d="M 353 0 
L 353 331 
L 947 331 
L 947 4331 
L 353 4331 
L 353 4666 
L 4109 4666 
L 4109 3628 
L 3725 3628 
L 3725 4281 
L 1581 4281 
L 1581 2719 
L 3109 2719 
L 3109 3303 
L 3494 3303 
L 3494 1753 
L 3109 1753 
L 3109 2338 
L 1581 2338 
L 1581 384 
L 3775 384 
L 3775 1038 
L 4159 1038 
L 4159 0 
L 353 0 
z
" transform="scale(0.015625)"/>
      <path id="DejaVuSerif-56" d="M 1119 4331 
L 2497 750 
L 3872 4331 
L 3347 4331 
L 3347 4666 
L 4716 4666 
L 4716 4331 
L 4263 4331 
L 2597 0 
L 2059 0 
L 403 4331 
L -63 4331 
L -63 4666 
L 1638 4666 
L 1638 4331 
L 1119 4331 
z
" transform="scale(0.015625)"/>
     </defs>
     <use xlink:href="#DejaVuSerif-46"/>
     <use xlink:href="#DejaVuSerif-69" transform="translate(69.384766 0)"/>
     <use xlink:href="#DejaVuSerif-67" transform="translate(101.367188 0)"/>
     <use xlink:href="#DejaVuSerif-75" transform="translate(165.380859 0)"/>
     <use xlink:href="#DejaVuSerif-72" transform="translate(229.785156 0)"/>
     <use xlink:href="#DejaVuSerif-65" transform="translate(277.587891 0)"/>
     <use xlink:href="#DejaVuSerif-20" transform="translate(336.767578 0)"/>
     <use xlink:href="#DejaVuSerif-31" transform="translate(368.554688 0)"/>
     <use xlink:href="#DejaVuSerif-3a" transform="translate(432.177734 0)"/>
     <use xlink:href="#DejaVuSerif-20" transform="translate(465.869141 0)"/>
     <use xlink:href="#DejaVuSerif-53" transform="translate(497.65625 0)"/>
     <use xlink:href="#DejaVuSerif-79" transform="translate(566.162109 0)"/>
     <use xlink:href="#DejaVuSerif-73" transform="translate(622.65625 0)"/>
     <use xlink:href="#DejaVuSerif-74" transform="translate(673.974609 0)"/>
     <use xlink:href="#DejaVuSerif-65" transform="translate(714.160156 0)"/>
     <use xlink:href="#DejaVuSerif-6d" transform="translate(773.339844 0)"/>
     <use xlink:href="#DejaVuSerif-61" transform="translate(868.164062 0)"/>
     <use xlink:href="#DejaVuSerif-74" transform="translate(927.783203 0)"/>
     <use xlink:href="#DejaVuSerif-69" transform="translate(967.96875 0)"/>
     <use xlink:href="#DejaVuSerif-63" transform="translate(999.951172 0)"/>
     <use xlink:href="#DejaVuSerif-20" transform="translate(1055.957031 0)"/>
     <use xlink:href="#DejaVuSerif-43" transform="translate(1087.744141 0)"/>
     <use xlink:href="#DejaVuSerif-61" transform="translate(1164.257812 0)"/>
     <use xlink:href="#DejaVuSerif-6c" transform="translate(1223.876953 0)"/>
     <use xlink:href="#DejaVuSerif-69" transform="translate(1255.859375 0)"/>
     <use xlink:href="#DejaVuSerif-62" transform="translate(1287.841797 0)"/>
     <use xlink:href="#DejaVuSerif-72" transform="translate(1351.855469 0)"/>
     <use xlink:href="#DejaVuSerif-61" transform="translate(1399.658203 0)"/>
     <use xlink:href="#DejaVuSerif-74" transform="translate(1459.277344 0)"/>
     <use xlink:href="#DejaVuSerif-69" transform="translate(1499.462891 0)"/>
     <use xlink:href="#DejaVuSerif-6f" transform="translate(1531.445312 0)"/>
     <use xlink:href="#DejaVuSerif-6e" transform="translate(1591.650391 0)"/>
     <use xlink:href="#DejaVuSerif-20" transform="translate(1656.054688 0)"/>
     <use xlink:href="#DejaVuSerif-42" transform="translate(1687.841797 0)"/>
     <use xlink:href="#DejaVuSerif-69" transform="translate(1761.328125 0)"/>
     <use xlink:href="#DejaVuSerif-61" transform="translate(1793.310547 0)"/>
     <use xlink:href="#DejaVuSerif-73" transform="translate(1852.929688 0)"/>
     <use xlink:href="#DejaVuSerif-20" transform="translate(1904.248047 0)"/>
     <use xlink:href="#DejaVuSerif-41" transform="translate(1936.035156 0)"/>
     <use xlink:href="#DejaVuSerif-63" transform="translate(2008.251953 0)"/>
     <use xlink:href="#DejaVuSerif-72" transform="translate(2064.257812 0)"/>
     <use xlink:href="#DejaVuSerif-6f" transform="translate(2112.060547 0)"/>
     <use xlink:href="#DejaVuSerif-73" transform="translate(2172.265625 0)"/>
     <use xlink:href="#DejaVuSerif-73" transform="translate(2223.583984 0)"/>
     <use xlink:href="#DejaVuSerif-20" transform="translate(2274.902344 0)"/>
     <use xlink:href="#DejaVuSerif-31" transform="translate(2306.689453 0)"/>
     <use xlink:href="#DejaVuSerif-33" transform="translate(2370.3125 0)"/>
     <use xlink:href="#DejaVuSerif-20" transform="translate(2433.935547 0)"/>
     <use xlink:href="#DejaVuSerif-45" transform="translate(2465.722656 0)"/>
     <use xlink:href="#DejaVuSerif-70" transform="translate(2538.720703 0)"/>
     <use xlink:href="#DejaVuSerif-69" transform="translate(2602.734375 0)"/>
     <use xlink:href="#DejaVuSerif-73" transform="translate(2634.716797 0)"/>
     <use xlink:href="#DejaVuSerif-74" transform="translate(2686.035156 0)"/>
     <use xlink:href="#DejaVuSerif-65" transform="translate(2726.220703 0)"/>
     <use xlink:href="#DejaVuSerif-6d" transform="translate(2785.400391 0)"/>
     <use xlink:href="#DejaVuSerif-69" transform="translate(2880.224609 0)"/>
     <use xlink:href="#DejaVuSerif-63" transform="translate(2912.207031 0)"/>
     <use xlink:href="#DejaVuSerif-20" transform="translate(2968.212891 0)"/>
     <use xlink:href="#DejaVuSerif-56" transform="translate(3000 0)"/>
     <use xlink:href="#DejaVuSerif-65" transform="translate(3063.091797 0)"/>
     <use xlink:href="#DejaVuSerif-63" transform="translate(3122.271484 0)"/>
     <use xlink:href="#DejaVuSerif-74" transform="translate(3178.277344 0)"/>
     <use xlink:href="#DejaVuSerif-6f" transform="translate(3218.462891 0)"/>
     <use xlink:href="#DejaVuSerif-72" transform="translate(3278.667969 0)"/>
     <use xlink:href="#DejaVuSerif-73" transform="translate(3326.470703 0)"/>
    </g>
    <!-- (N=1,184 belief updates, 35,268 cumulative evidence) -->
    <g style="fill: #262626" transform="translate(211.62125 31.819969) scale(0.13 -0.13)">
     <defs>
      <path id="DejaVuSerif-4e" d="M 313 0 
L 313 331 
L 941 331 
L 941 4331 
L 313 4331 
L 313 4666 
L 1509 4666 
L 4306 984 
L 4306 4331 
L 3681 4331 
L 3681 4666 
L 5319 4666 
L 5319 4331 
L 4691 4331 
L 4691 -91 
L 4313 -91 
L 1325 3841 
L 1325 331 
L 1953 331 
L 1953 0 
L 313 0 
z
" transform="scale(0.015625)"/>
      <path id="DejaVuSerif-3d" d="M 678 2894 
L 4684 2894 
L 4684 2394 
L 678 2394 
L 678 2894 
z
M 678 1619 
L 4684 1619 
L 4684 1119 
L 678 1119 
L 678 1619 
z
" transform="scale(0.015625)"/>
      <path id="DejaVuSerif-2c" d="M 231 -622 
Q 525 -406 662 -114 
Q 800 178 800 594 
L 800 709 
L 1416 709 
Q 1391 175 1164 -208 
Q 938 -591 481 -872 
L 231 -622 
z
" transform="scale(0.015625)"/>
      <path id="DejaVuSerif-38" d="M 2981 1275 
Q 2981 1775 2732 2051 
Q 2484 2328 2034 2328 
Q 1584 2328 1336 2051 
Q 1088 1775 1088 1275 
Q 1088 772 1336 495 
Q 1584 219 2034 219 
Q 2484 219 2732 495 
Q 2981 772 2981 1275 
z
M 2853 3541 
Q 2853 3966 2637 4203 
Q 2422 4441 2034 4441 
Q 1650 4441 1433 4203 
Q 1216 3966 1216 3541 
Q 1216 3113 1433 2875 
Q 1650 2638 2034 2638 
Q 2422 2638 2637 2875 
Q 2853 3113 2853 3541 
z
M 2516 2484 
Q 3047 2413 3344 2092 
Q 3641 1772 3641 1275 
Q 3641 619 3225 264 
Q 2809 -91 2034 -91 
Q 1263 -91 845 264 
Q 428 619 428 1275 
Q 428 1772 725 2092 
Q 1022 2413 1556 2484 
Q 1084 2569 832 2842 
Q 581 3116 581 3541 
Q 581 4103 968 4426 
Q 1356 4750 2034 4750 
Q 2713 4750 3100 4426 
Q 3488 4103 3488 3541 
Q 3488 3116 3236 2842 
Q 2984 2569 2516 2484 
z
" transform="scale(0.015625)"/>
      <path id="DejaVuSerif-66" d="M 2753 4078 
L 2450 4078 
Q 2447 4313 2317 4434 
Q 2188 4556 1941 4556 
Q 1619 4556 1487 4379 
Q 1356 4203 1356 3750 
L 1356 3322 
L 2284 3322 
L 2284 2988 
L 1356 2988 
L 1356 331 
L 2094 331 
L 2094 0 
L 231 0 
L 231 331 
L 781 331 
L 781 2988 
L 231 2988 
L 231 3322 
L 781 3322 
L 781 3738 
Q 781 4294 1070 4578 
Q 1359 4863 1919 4863 
Q 2128 4863 2337 4825 
Q 2547 4788 2753 4709 
L 2753 4078 
z
" transform="scale(0.015625)"/>
      <path id="DejaVuSerif-35" d="M 3219 4666 
L 3219 4153 
L 1081 4153 
L 1081 2816 
Q 1244 2928 1461 2984 
Q 1678 3041 1947 3041 
Q 2703 3041 3140 2622 
Q 3578 2203 3578 1478 
Q 3578 738 3136 323 
Q 2694 -91 1894 -91 
Q 1572 -91 1234 -12 
Q 897 66 544 225 
L 544 1131 
L 897 1131 
Q 925 688 1179 453 
Q 1434 219 1894 219 
Q 2388 219 2653 544 
Q 2919 869 2919 1478 
Q 2919 2084 2655 2407 
Q 2391 2731 1894 2731 
Q 1613 2731 1398 2631 
Q 1184 2531 1019 2322 
L 750 2322 
L 750 4666 
L 3219 4666 
z
" transform="scale(0.015625)"/>
      <path id="DejaVuSerif-36" d="M 2094 219 
Q 2534 219 2771 542 
Q 3009 866 3009 1472 
Q 3009 2078 2771 2401 
Q 2534 2725 2094 2725 
Q 1647 2725 1412 2412 
Q 1178 2100 1178 1509 
Q 1178 888 1415 553 
Q 1653 219 2094 219 
z
M 1075 2569 
Q 1288 2803 1556 2918 
Q 1825 3034 2163 3034 
Q 2859 3034 3264 2615 
Q 3669 2197 3669 1472 
Q 3669 763 3233 336 
Q 2797 -91 2069 -91 
Q 1278 -91 853 498 
Q 428 1088 428 2181 
Q 428 3406 931 4078 
Q 1434 4750 2350 4750 
Q 2597 4750 2869 4703 
Q 3141 4656 3425 4563 
L 3425 3794 
L 3072 3794 
Q 3034 4109 2831 4275 
Q 2628 4441 2284 4441 
Q 1678 4441 1381 3981 
Q 1084 3522 1075 2569 
z
" transform="scale(0.015625)"/>
      <path id="DejaVuSerif-76" d="M 1581 0 
L 359 2988 
L -19 2988 
L -19 3322 
L 1509 3322 
L 1509 2988 
L 978 2988 
L 1913 703 
L 2847 2988 
L 2350 2988 
L 2350 3322 
L 3597 3322 
L 3597 2988 
L 3225 2988 
L 2003 0 
L 1581 0 
z
" transform="scale(0.015625)"/>
     </defs>
     <use xlink:href="#DejaVuSerif-28"/>
     <use xlink:href="#DejaVuSerif-4e" transform="translate(39.013672 0)"/>
     <use xlink:href="#DejaVuSerif-3d" transform="translate(126.513672 0)"/>
     <use xlink:href="#DejaVuSerif-31" transform="translate(210.302734 0)"/>
     <use xlink:href="#DejaVuSerif-2c" transform="translate(273.925781 0)"/>
     <use xlink:href="#DejaVuSerif-31" transform="translate(305.712891 0)"/>
     <use xlink:href="#DejaVuSerif-38" transform="translate(369.335938 0)"/>
     <use xlink:href="#DejaVuSerif-34" transform="translate(432.958984 0)"/>
     <use xlink:href="#DejaVuSerif-20" transform="translate(496.582031 0)"/>
     <use xlink:href="#DejaVuSerif-62" transform="translate(528.369141 0)"/>
     <use xlink:href="#DejaVuSerif-65" transform="translate(592.382812 0)"/>
     <use xlink:href="#DejaVuSerif-6c" transform="translate(651.5625 0)"/>
     <use xlink:href="#DejaVuSerif-69" transform="translate(683.544922 0)"/>
     <use xlink:href="#DejaVuSerif-65" transform="translate(715.527344 0)"/>
     <use xlink:href="#DejaVuSerif-66" transform="translate(774.707031 0)"/>
     <use xlink:href="#DejaVuSerif-20" transform="translate(811.71875 0)"/>
     <use xlink:href="#DejaVuSerif-75" transform="translate(843.505859 0)"/>
     <use xlink:href="#DejaVuSerif-70" transform="translate(907.910156 0)"/>
     <use xlink:href="#DejaVuSerif-64" transform="translate(971.923828 0)"/>
     <use xlink:href="#DejaVuSerif-61" transform="translate(1035.9375 0)"/>
     <use xlink:href="#DejaVuSerif-74" transform="translate(1095.556641 0)"/>
     <use xlink:href="#DejaVuSerif-65" transform="translate(1135.742188 0)"/>
     <use xlink:href="#DejaVuSerif-73" transform="translate(1194.921875 0)"/>
     <use xlink:href="#DejaVuSerif-2c" transform="translate(1246.240234 0)"/>
     <use xlink:href="#DejaVuSerif-20" transform="translate(1278.027344 0)"/>
     <use xlink:href="#DejaVuSerif-33" transform="translate(1309.814453 0)"/>
     <use xlink:href="#DejaVuSerif-35" transform="translate(1373.4375 0)"/>
     <use xlink:href="#DejaVuSerif-2c" transform="translate(1437.060547 0)"/>
     <use xlink:href="#DejaVuSerif-32" transform="translate(1468.847656 0)"/>
     <use xlink:href="#DejaVuSerif-36" transform="translate(1532.470703 0)"/>
     <use xlink:href="#DejaVuSerif-38" transform="translate(1596.09375 0)"/>
     <use xlink:href="#DejaVuSerif-20" transform="translate(1659.716797 0)"/>
     <use xlink:href="#DejaVuSerif-63" transform="translate(1691.503906 0)"/>
     <use xlink:href="#DejaVuSerif-75" transform="translate(1747.509766 0)"/>
     <use xlink:href="#DejaVuSerif-6d" transform="translate(1811.914062 0)"/>
     <use xlink:href="#DejaVuSerif-75" transform="translate(1906.738281 0)"/>
     <use xlink:href="#DejaVuSerif-6c" transform="translate(1971.142578 0)"/>
     <use xlink:href="#DejaVuSerif-61" transform="translate(2003.125 0)"/>
     <use xlink:href="#DejaVuSerif-74" transform="translate(2062.744141 0)"/>
     <use xlink:href="#DejaVuSerif-69" transform="translate(2102.929688 0)"/>
     <use xlink:href="#DejaVuSerif-76" transform="translate(2134.912109 0)"/>
     <use xlink:href="#DejaVuSerif-65" transform="translate(2191.40625 0)"/>
     <use xlink:href="#DejaVuSerif-20" transform="translate(2250.585938 0)"/>
     <use xlink:href="#DejaVuSerif-65" transform="translate(2282.373047 0)"/>
     <use xlink:href="#DejaVuSerif-76" transform="translate(2341.552734 0)"/>
     <use xlink:href="#DejaVuSerif-69" transform="translate(2398.046875 0)"/>
     <use xlink:href="#DejaVuSerif-64" transform="translate(2430.029297 0)"/>
     <use xlink:href="#DejaVuSerif-65" transform="translate(2494.042969 0)"/>
     <use xlink:href="#DejaVuSerif-6e" transform="translate(2553.222656 0)"/>
     <use xlink:href="#DejaVuSerif-63" transform="translate(2617.626953 0)"/>
     <use xlink:href="#DejaVuSerif-65" transform="translate(2673.632812 0)"/>
     <use xlink:href="#DejaVuSerif-29" transform="translate(2732.8125 0)"/>
    </g>
   </g>
   <g id="legend_1">
    <g id="patch_20">
     <path d="M 430.237344 359.067969 
L 450.237344 359.067969 
L 450.237344 352.067969 
L 430.237344 352.067969 
z
" style="fill: #2ecc71; stroke: #2ecc71; stroke-linejoin: miter"/>
    </g>
    <g id="text_34">
     <!-- Underestimated (AI reports lower than actual) -->
     <g style="fill: #262626" transform="translate(458.237344 359.067969) scale(0.1 -0.1)">
      <defs>
       <path id="DejaVuSerif-55" d="M 897 4331 
L 300 4331 
L 300 4666 
L 2125 4666 
L 2125 4331 
L 1528 4331 
L 1528 1919 
Q 1528 1025 1820 672 
Q 2113 319 2828 319 
Q 3544 319 3836 672 
Q 4128 1025 4128 1919 
L 4128 4331 
L 3531 4331 
L 3531 4666 
L 5106 4666 
L 5106 4331 
L 4513 4331 
L 4513 1856 
Q 4513 791 4103 350 
Q 3694 -91 2713 -91 
Q 1731 -91 1314 353 
Q 897 797 897 1856 
L 897 4331 
z
" transform="scale(0.015625)"/>
       <path id="DejaVuSerif-49" d="M 1581 331 
L 2175 331 
L 2175 0 
L 353 0 
L 353 331 
L 947 331 
L 947 4331 
L 353 4331 
L 353 4666 
L 2175 4666 
L 2175 4331 
L 1581 4331 
L 1581 331 
z
" transform="scale(0.015625)"/>
      </defs>
      <use xlink:href="#DejaVuSerif-55"/>
      <use xlink:href="#DejaVuSerif-6e" transform="translate(84.277344 0)"/>
      <use xlink:href="#DejaVuSerif-64" transform="translate(148.681641 0)"/>
      <use xlink:href="#DejaVuSerif-65" transform="translate(212.695312 0)"/>
      <use xlink:href="#DejaVuSerif-72" transform="translate(271.875 0)"/>
      <use xlink:href="#DejaVuSerif-65" transform="translate(319.677734 0)"/>
      <use xlink:href="#DejaVuSerif-73" transform="translate(378.857422 0)"/>
      <use xlink:href="#DejaVuSerif-74" transform="translate(430.175781 0)"/>
      <use xlink:href="#DejaVuSerif-69" transform="translate(470.361328 0)"/>
      <use xlink:href="#DejaVuSerif-6d" transform="translate(502.34375 0)"/>
      <use xlink:href="#DejaVuSerif-61" transform="translate(597.167969 0)"/>
      <use xlink:href="#DejaVuSerif-74" transform="translate(656.787109 0)"/>
      <use xlink:href="#DejaVuSerif-65" transform="translate(696.972656 0)"/>
      <use xlink:href="#DejaVuSerif-64" transform="translate(756.152344 0)"/>
      <use xlink:href="#DejaVuSerif-20" transform="translate(820.166016 0)"/>
      <use xlink:href="#DejaVuSerif-28" transform="translate(851.953125 0)"/>
      <use xlink:href="#DejaVuSerif-41" transform="translate(890.966797 0)"/>
      <use xlink:href="#DejaVuSerif-49" transform="translate(963.183594 0)"/>
      <use xlink:href="#DejaVuSerif-20" transform="translate(1002.685547 0)"/>
      <use xlink:href="#DejaVuSerif-72" transform="translate(1034.472656 0)"/>
      <use xlink:href="#DejaVuSerif-65" transform="translate(1082.275391 0)"/>
      <use xlink:href="#DejaVuSerif-70" transform="translate(1141.455078 0)"/>
      <use xlink:href="#DejaVuSerif-6f" transform="translate(1205.46875 0)"/>
      <use xlink:href="#DejaVuSerif-72" transform="translate(1265.673828 0)"/>
      <use xlink:href="#DejaVuSerif-74" transform="translate(1313.476562 0)"/>
      <use xlink:href="#DejaVuSerif-73" transform="translate(1353.662109 0)"/>
      <use xlink:href="#DejaVuSerif-20" transform="translate(1404.980469 0)"/>
      <use xlink:href="#DejaVuSerif-6c" transform="translate(1436.767578 0)"/>
      <use xlink:href="#DejaVuSerif-6f" transform="translate(1468.75 0)"/>
      <use xlink:href="#DejaVuSerif-77" transform="translate(1528.955078 0)"/>
      <use xlink:href="#DejaVuSerif-65" transform="translate(1614.550781 0)"/>
      <use xlink:href="#DejaVuSerif-72" transform="translate(1673.730469 0)"/>
      <use xlink:href="#DejaVuSerif-20" transform="translate(1721.533203 0)"/>
      <use xlink:href="#DejaVuSerif-74" transform="translate(1753.320312 0)"/>
      <use xlink:href="#DejaVuSerif-68" transform="translate(1793.505859 0)"/>
      <use xlink:href="#DejaVuSerif-61" transform="translate(1857.910156 0)"/>
      <use xlink:href="#DejaVuSerif-6e" transform="translate(1917.529297 0)"/>
      <use xlink:href="#DejaVuSerif-20" transform="translate(1981.933594 0)"/>
      <use xlink:href="#DejaVuSerif-61" transform="translate(2013.720703 0)"/>
      <use xlink:href="#DejaVuSerif-63" transform="translate(2073.339844 0)"/>
      <use xlink:href="#DejaVuSerif-74" transform="translate(2129.345703 0)"/>
      <use xlink:href="#DejaVuSerif-75" transform="translate(2169.53125 0)"/>
      <use xlink:href="#DejaVuSerif-61" transform="translate(2233.935547 0)"/>
      <use xlink:href="#DejaVuSerif-6c" transform="translate(2293.554688 0)"/>
      <use xlink:href="#DejaVuSerif-29" transform="translate(2325.537109 0)"/>
     </g>
    </g>
    <g id="patch_21">
     <path d="M 430.237344 373.746094 
L 450.237344 373.746094 
L 450.237344 366.746094 
L 430.237344 366.746094 
z
" style="fill: #e74c3c; stroke: #e74c3c; stroke-linejoin: miter"/>
    </g>
    <g id="text_35">
     <!-- Overestimated (AI reports higher than actual) -->
     <g style="fill: #262626" transform="translate(458.237344 373.746094) scale(0.1 -0.1)">
      <defs>
       <path id="DejaVuSerif-4f" d="M 2625 244 
Q 3391 244 3781 770 
Q 4172 1297 4172 2328 
Q 4172 3363 3781 3889 
Q 3391 4416 2625 4416 
Q 1856 4416 1465 3889 
Q 1075 3363 1075 2328 
Q 1075 1297 1465 770 
Q 1856 244 2625 244 
z
M 2625 -91 
Q 2150 -91 1751 65 
Q 1353 222 1050 525 
Q 700 875 529 1319 
Q 359 1763 359 2328 
Q 359 2894 529 3339 
Q 700 3784 1050 4134 
Q 1356 4441 1750 4595 
Q 2144 4750 2625 4750 
Q 3641 4750 4266 4084 
Q 4891 3419 4891 2328 
Q 4891 1769 4719 1320 
Q 4547 872 4197 525 
Q 3891 219 3497 64 
Q 3103 -91 2625 -91 
z
" transform="scale(0.015625)"/>
      </defs>
      <use xlink:href="#DejaVuSerif-4f"/>
      <use xlink:href="#DejaVuSerif-76" transform="translate(81.982422 0)"/>
      <use xlink:href="#DejaVuSerif-65" transform="translate(138.476562 0)"/>
      <use xlink:href="#DejaVuSerif-72" transform="translate(197.65625 0)"/>
      <use xlink:href="#DejaVuSerif-65" transform="translate(245.458984 0)"/>
      <use xlink:href="#DejaVuSerif-73" transform="translate(304.638672 0)"/>
      <use xlink:href="#DejaVuSerif-74" transform="translate(355.957031 0)"/>
      <use xlink:href="#DejaVuSerif-69" transform="translate(396.142578 0)"/>
      <use xlink:href="#DejaVuSerif-6d" transform="translate(428.125 0)"/>
      <use xlink:href="#DejaVuSerif-61" transform="translate(522.949219 0)"/>
      <use xlink:href="#DejaVuSerif-74" transform="translate(582.568359 0)"/>
      <use xlink:href="#DejaVuSerif-65" transform="translate(622.753906 0)"/>
      <use xlink:href="#DejaVuSerif-64" transform="translate(681.933594 0)"/>
      <use xlink:href="#DejaVuSerif-20" transform="translate(745.947266 0)"/>
      <use xlink:href="#DejaVuSerif-28" transform="translate(777.734375 0)"/>
      <use xlink:href="#DejaVuSerif-41" transform="translate(816.748047 0)"/>
      <use xlink:href="#DejaVuSerif-49" transform="translate(888.964844 0)"/>
      <use xlink:href="#DejaVuSerif-20" transform="translate(928.466797 0)"/>
      <use xlink:href="#DejaVuSerif-72" transform="translate(960.253906 0)"/>
      <use xlink:href="#DejaVuSerif-65" transform="translate(1008.056641 0)"/>
      <use xlink:href="#DejaVuSerif-70" transform="translate(1067.236328 0)"/>
      <use xlink:href="#DejaVuSerif-6f" transform="translate(1131.25 0)"/>
      <use xlink:href="#DejaVuSerif-72" transform="translate(1191.455078 0)"/>
      <use xlink:href="#DejaVuSerif-74" transform="translate(1239.257812 0)"/>
      <use xlink:href="#DejaVuSerif-73" transform="translate(1279.443359 0)"/>
      <use xlink:href="#DejaVuSerif-20" transform="translate(1330.761719 0)"/>
      <use xlink:href="#DejaVuSerif-68" transform="translate(1362.548828 0)"/>
      <use xlink:href="#DejaVuSerif-69" transform="translate(1426.953125 0)"/>
      <use xlink:href="#DejaVuSerif-67" transform="translate(1458.935547 0)"/>
      <use xlink:href="#DejaVuSerif-68" transform="translate(1522.949219 0)"/>
      <use xlink:href="#DejaVuSerif-65" transform="translate(1587.353516 0)"/>
      <use xlink:href="#DejaVuSerif-72" transform="translate(1646.533203 0)"/>
      <use xlink:href="#DejaVuSerif-20" transform="translate(1694.335938 0)"/>
      <use xlink:href="#DejaVuSerif-74" transform="translate(1726.123047 0)"/>
      <use xlink:href="#DejaVuSerif-68" transform="translate(1766.308594 0)"/>
      <use xlink:href="#DejaVuSerif-61" transform="translate(1830.712891 0)"/>
      <use xlink:href="#DejaVuSerif-6e" transform="translate(1890.332031 0)"/>
      <use xlink:href="#DejaVuSerif-20" transform="translate(1954.736328 0)"/>
      <use xlink:href="#DejaVuSerif-61" transform="translate(1986.523438 0)"/>
      <use xlink:href="#DejaVuSerif-63" transform="translate(2046.142578 0)"/>
      <use xlink:href="#DejaVuSerif-74" transform="translate(2102.148438 0)"/>
      <use xlink:href="#DejaVuSerif-75" transform="translate(2142.333984 0)"/>
      <use xlink:href="#DejaVuSerif-61" transform="translate(2206.738281 0)"/>
      <use xlink:href="#DejaVuSerif-6c" transform="translate(2266.357422 0)"/>
      <use xlink:href="#DejaVuSerif-29" transform="translate(2298.339844 0)"/>
     </g>
    </g>
   </g>
  </g>
 </g>
 <defs>
  <clipPath id="pb5e4c1abdc">
   <rect x="79.895156" y="37.819969" width="623.8" height="347.148"/>
  </clipPath>
 </defs>
</svg>
