<?xml version="1.0" encoding="utf-8" standalone="no"?>
<!DOCTYPE svg PUBLIC "-//W3C//DTD SVG 1.1//EN"
  "http://www.w3.org/Graphics/SVG/1.1/DTD/svg11.dtd">
<svg xmlns:xlink="http://www.w3.org/1999/xlink" width="855.10625pt" height="495.370036pt" viewBox="0 0 855.10625 495.370036" xmlns="http://www.w3.org/2000/svg" version="1.1">
 <metadata>
  <rdf:RDF xmlns:dc="http://purl.org/dc/elements/1.1/" xmlns:cc="http://creativecommons.org/ns#" xmlns:rdf="http://www.w3.org/1999/02/22-rdf-syntax-ns#">
   <cc:Work>
    <dc:type rdf:resource="http://purl.org/dc/dcmitype/StillImage"/>
    <dc:date>2026-01-07T22:07:38.431553</dc:date>
    <dc:format>image/svg+xml</dc:format>
    <dc:creator>
     <cc:Agent>
      <dc:title>Matplotlib v3.10.8, https://matplotlib.org/</dc:title>
     </cc:Agent>
    </dc:creator>
   </cc:Work>
  </rdf:RDF>
 </metadata>
 <defs>
  <style type="text/css">*{stroke-linejoin: round; stroke-linecap: butt}</style>
 </defs>
 <g id="figure_1">
  <g id="patch_1">
   <path d="M 0 495.370036 
L 855.10625 495.370036 
L 855.10625 0 
L 0 0 
z
" style="fill: #ffffff"/>
  </g>
  <g id="axes_1">
   <g id="patch_2">
    <path d="M 41.17625 406.915663 
L 847.90625 406.915663 
L 847.90625 36.623562 
L 41.17625 36.623562 
z
" style="fill: #ffffff"/>
   </g>
   <g id="matplotlib.axis_1">
    <g id="xtick_1">
     <g id="line2d_1">
      <path d="M 98.057356 406.915663 
L 98.057356 36.623562 
" clip-path="url(#p065267a132)" style="fill: none; stroke: #cccccc; stroke-width: 0.8; stroke-linecap: round"/>
     </g>
     <g id="line2d_2"/>
     <g id="text_1">
      <!-- CHANGE -->
      <g style="fill: #262626" transform="translate(63.164951 449.330843) rotate(-45) scale(0.11 -0.11)">
       <defs>
        <path id="LiberationSans-43" d="M 2475 3981 
Q 1744 3981 1337 3511 
Q 931 3041 931 2222 
Q 931 1413 1354 920 
Q 1778 428 2500 428 
Q 3425 428 3891 1344 
L 4378 1100 
Q 4106 531 3614 234 
Q 3122 -63 2472 -63 
Q 1806 -63 1320 214 
Q 834 491 579 1005 
Q 325 1519 325 2222 
Q 325 3275 894 3872 
Q 1463 4469 2469 4469 
Q 3172 4469 3644 4194 
Q 4116 3919 4338 3378 
L 3772 3191 
Q 3619 3575 3280 3778 
Q 2941 3981 2475 3981 
z
" transform="scale(0.015625)"/>
        <path id="LiberationSans-48" d="M 3503 0 
L 3503 2041 
L 1122 2041 
L 1122 0 
L 525 0 
L 525 4403 
L 1122 4403 
L 1122 2541 
L 3503 2541 
L 3503 4403 
L 4100 4403 
L 4100 0 
L 3503 0 
z
" transform="scale(0.015625)"/>
        <path id="LiberationSans-41" d="M 3647 0 
L 3144 1288 
L 1138 1288 
L 631 0 
L 13 0 
L 1809 4403 
L 2488 4403 
L 4256 0 
L 3647 0 
z
M 2141 3953 
L 2113 3866 
Q 2034 3606 1881 3200 
L 1319 1753 
L 2966 1753 
L 2400 3206 
Q 2313 3422 2225 3694 
L 2141 3953 
z
" transform="scale(0.015625)"/>
        <path id="LiberationSans-4e" d="M 3381 0 
L 1025 3750 
L 1041 3447 
L 1056 2925 
L 1056 0 
L 525 0 
L 525 4403 
L 1219 4403 
L 3600 628 
Q 3563 1241 3563 1516 
L 3563 4403 
L 4100 4403 
L 4100 0 
L 3381 0 
z
" transform="scale(0.015625)"/>
        <path id="LiberationSans-47" d="M 322 2222 
Q 322 3294 897 3881 
Q 1472 4469 2513 4469 
Q 3244 4469 3700 4222 
Q 4156 3975 4403 3431 
L 3834 3263 
Q 3647 3638 3317 3809 
Q 2988 3981 2497 3981 
Q 1734 3981 1331 3520 
Q 928 3059 928 2222 
Q 928 1388 1356 905 
Q 1784 422 2541 422 
Q 2972 422 3345 553 
Q 3719 684 3950 909 
L 3950 1703 
L 2634 1703 
L 2634 2203 
L 4500 2203 
L 4500 684 
Q 4150 328 3642 132 
Q 3134 -63 2541 -63 
Q 1850 -63 1350 212 
Q 850 488 586 1005 
Q 322 1522 322 2222 
z
" transform="scale(0.015625)"/>
        <path id="LiberationSans-45" d="M 525 0 
L 525 4403 
L 3866 4403 
L 3866 3916 
L 1122 3916 
L 1122 2503 
L 3678 2503 
L 3678 2022 
L 1122 2022 
L 1122 488 
L 3994 488 
L 3994 0 
L 525 0 
z
" transform="scale(0.015625)"/>
       </defs>
       <use xlink:href="#LiberationSans-43"/>
       <use xlink:href="#LiberationSans-48" transform="translate(72.216797 0)"/>
       <use xlink:href="#LiberationSans-41" transform="translate(144.433594 0)"/>
       <use xlink:href="#LiberationSans-4e" transform="translate(211.132812 0)"/>
       <use xlink:href="#LiberationSans-47" transform="translate(283.349609 0)"/>
       <use xlink:href="#LiberationSans-45" transform="translate(361.132812 0)"/>
      </g>
     </g>
    </g>
    <g id="xtick_2">
     <g id="line2d_3">
      <path d="M 155.804672 406.915663 
L 155.804672 36.623562 
" clip-path="url(#p065267a132)" style="fill: none; stroke: #cccccc; stroke-width: 0.8; stroke-linecap: round"/>
     </g>
     <g id="line2d_4"/>
     <g id="text_2">
      <!-- CLARITY -->
      <g style="fill: #262626" transform="translate(121.342497 448.900613) rotate(-45) scale(0.11 -0.11)">
       <defs>
        <path id="LiberationSans-4c" d="M 525 0 
L 525 4403 
L 1122 4403 
L 1122 488 
L 3347 488 
L 3347 0 
L 525 0 
z
" transform="scale(0.015625)"/>
        <path id="LiberationSans-52" d="M 3638 0 
L 2494 1828 
L 1122 1828 
L 1122 0 
L 525 0 
L 525 4403 
L 2597 4403 
Q 3341 4403 3745 4070 
Q 4150 3738 4150 3144 
Q 4150 2653 3864 2318 
Q 3578 1984 3075 1897 
L 4325 0 
L 3638 0 
z
M 3550 3138 
Q 3550 3522 3289 3723 
Q 3028 3925 2538 3925 
L 1122 3925 
L 1122 2300 
L 2563 2300 
Q 3034 2300 3292 2520 
Q 3550 2741 3550 3138 
z
" transform="scale(0.015625)"/>
        <path id="LiberationSans-49" d="M 591 0 
L 591 4403 
L 1188 4403 
L 1188 0 
L 591 0 
z
" transform="scale(0.015625)"/>
        <path id="LiberationSans-54" d="M 2250 3916 
L 2250 0 
L 1656 0 
L 1656 3916 
L 144 3916 
L 144 4403 
L 3763 4403 
L 3763 3916 
L 2250 3916 
z
" transform="scale(0.015625)"/>
        <path id="LiberationSans-59" d="M 2428 1825 
L 2428 0 
L 1834 0 
L 1834 1825 
L 141 4403 
L 797 4403 
L 2138 2306 
L 3472 4403 
L 4128 4403 
L 2428 1825 
z
" transform="scale(0.015625)"/>
       </defs>
       <use xlink:href="#LiberationSans-43"/>
       <use xlink:href="#LiberationSans-4c" transform="translate(72.216797 0)"/>
       <use xlink:href="#LiberationSans-41" transform="translate(127.832031 0)"/>
       <use xlink:href="#LiberationSans-52" transform="translate(194.53125 0)"/>
       <use xlink:href="#LiberationSans-49" transform="translate(266.748047 0)"/>
       <use xlink:href="#LiberationSans-54" transform="translate(294.53125 0)"/>
       <use xlink:href="#LiberationSans-59" transform="translate(355.615234 0)"/>
      </g>
     </g>
    </g>
    <g id="xtick_3">
     <g id="line2d_5">
      <path d="M 213.551987 406.915663 
L 213.551987 36.623562 
" clip-path="url(#p065267a132)" style="fill: none; stroke: #cccccc; stroke-width: 0.8; stroke-linecap: round"/>
     </g>
     <g id="line2d_6"/>
     <g id="text_3">
      <!-- COHERENCE -->
      <g style="fill: #262626" transform="translate(162.236696 465.753729) rotate(-45) scale(0.11 -0.11)">
       <defs>
        <path id="LiberationSans-4f" d="M 4672 2222 
Q 4672 1531 4408 1012 
Q 4144 494 3650 215 
Q 3156 -63 2484 -63 
Q 1806 -63 1314 212 
Q 822 488 562 1008 
Q 303 1528 303 2222 
Q 303 3278 881 3873 
Q 1459 4469 2491 4469 
Q 3163 4469 3656 4201 
Q 4150 3934 4411 3425 
Q 4672 2916 4672 2222 
z
M 4063 2222 
Q 4063 3044 3652 3512 
Q 3241 3981 2491 3981 
Q 1734 3981 1321 3518 
Q 909 3056 909 2222 
Q 909 1394 1326 908 
Q 1744 422 2484 422 
Q 3247 422 3655 892 
Q 4063 1363 4063 2222 
z
" transform="scale(0.015625)"/>
       </defs>
       <use xlink:href="#LiberationSans-43"/>
       <use xlink:href="#LiberationSans-4f" transform="translate(72.216797 0)"/>
       <use xlink:href="#LiberationSans-48" transform="translate(150 0)"/>
       <use xlink:href="#LiberationSans-45" transform="translate(222.216797 0)"/>
       <use xlink:href="#LiberationSans-52" transform="translate(288.916016 0)"/>
       <use xlink:href="#LiberationSans-45" transform="translate(361.132812 0)"/>
       <use xlink:href="#LiberationSans-4e" transform="translate(427.832031 0)"/>
       <use xlink:href="#LiberationSans-43" transform="translate(500.048828 0)"/>
       <use xlink:href="#LiberationSans-45" transform="translate(572.265625 0)"/>
      </g>
     </g>
    </g>
    <g id="xtick_4">
     <g id="line2d_7">
      <path d="M 271.299303 406.915663 
L 271.299303 36.623562 
" clip-path="url(#p065267a132)" style="fill: none; stroke: #cccccc; stroke-width: 0.8; stroke-linecap: round"/>
     </g>
     <g id="line2d_8"/>
     <g id="text_4">
      <!-- COMPLETION -->
      <g style="fill: #262626" transform="translate(218.258229 467.479512) rotate(-45) scale(0.11 -0.11)">
       <defs>
        <path id="LiberationSans-4d" d="M 4269 0 
L 4269 2938 
Q 4269 3425 4297 3875 
Q 4144 3316 4022 3000 
L 2884 0 
L 2466 0 
L 1313 3000 
L 1138 3531 
L 1034 3875 
L 1044 3528 
L 1056 2938 
L 1056 0 
L 525 0 
L 525 4403 
L 1309 4403 
L 2481 1350 
Q 2544 1166 2601 955 
Q 2659 744 2678 650 
Q 2703 775 2783 1029 
Q 2863 1284 2891 1350 
L 4041 4403 
L 4806 4403 
L 4806 0 
L 4269 0 
z
" transform="scale(0.015625)"/>
        <path id="LiberationSans-50" d="M 3931 3078 
Q 3931 2453 3523 2084 
Q 3116 1716 2416 1716 
L 1122 1716 
L 1122 0 
L 525 0 
L 525 4403 
L 2378 4403 
Q 3119 4403 3525 4056 
Q 3931 3709 3931 3078 
z
M 3331 3072 
Q 3331 3925 2306 3925 
L 1122 3925 
L 1122 2188 
L 2331 2188 
Q 3331 2188 3331 3072 
z
" transform="scale(0.015625)"/>
       </defs>
       <use xlink:href="#LiberationSans-43"/>
       <use xlink:href="#LiberationSans-4f" transform="translate(72.216797 0)"/>
       <use xlink:href="#LiberationSans-4d" transform="translate(150 0)"/>
       <use xlink:href="#LiberationSans-50" transform="translate(233.300781 0)"/>
       <use xlink:href="#LiberationSans-4c" transform="translate(300 0)"/>
       <use xlink:href="#LiberationSans-45" transform="translate(355.615234 0)"/>
       <use xlink:href="#LiberationSans-54" transform="translate(422.314453 0)"/>
       <use xlink:href="#LiberationSans-49" transform="translate(483.398438 0)"/>
       <use xlink:href="#LiberationSans-4f" transform="translate(511.181641 0)"/>
       <use xlink:href="#LiberationSans-4e" transform="translate(588.964844 0)"/>
      </g>
     </g>
    </g>
    <g id="xtick_5">
     <g id="line2d_9">
      <path d="M 329.046619 406.915663 
L 329.046619 36.623562 
" clip-path="url(#p065267a132)" style="fill: none; stroke: #cccccc; stroke-width: 0.8; stroke-linecap: round"/>
     </g>
     <g id="line2d_10"/>
     <g id="text_5">
      <!-- CONTEXT -->
      <g style="fill: #262626" transform="translate(290.269988 453.215069) rotate(-45) scale(0.11 -0.11)">
       <defs>
        <path id="LiberationSans-58" d="M 3475 0 
L 2153 1925 
L 803 0 
L 144 0 
L 1819 2288 
L 272 4403 
L 931 4403 
L 2156 2675 
L 3347 4403 
L 4006 4403 
L 2500 2309 
L 4134 0 
L 3475 0 
z
" transform="scale(0.015625)"/>
       </defs>
       <use xlink:href="#LiberationSans-43"/>
       <use xlink:href="#LiberationSans-4f" transform="translate(72.216797 0)"/>
       <use xlink:href="#LiberationSans-4e" transform="translate(150 0)"/>
       <use xlink:href="#LiberationSans-54" transform="translate(222.216797 0)"/>
       <use xlink:href="#LiberationSans-45" transform="translate(283.300781 0)"/>
       <use xlink:href="#LiberationSans-58" transform="translate(350 0)"/>
       <use xlink:href="#LiberationSans-54" transform="translate(416.699219 0)"/>
      </g>
     </g>
    </g>
    <g id="xtick_6">
     <g id="line2d_11">
      <path d="M 386.793934 406.915663 
L 386.793934 36.623562 
" clip-path="url(#p065267a132)" style="fill: none; stroke: #cccccc; stroke-width: 0.8; stroke-linecap: round"/>
     </g>
     <g id="line2d_12"/>
     <g id="text_6">
      <!-- DENSITY -->
      <g style="fill: #262626" transform="translate(351.468868 449.763504) rotate(-45) scale(0.11 -0.11)">
       <defs>
        <path id="LiberationSans-44" d="M 4316 2247 
Q 4316 1566 4050 1055 
Q 3784 544 3296 272 
Q 2809 0 2172 0 
L 525 0 
L 525 4403 
L 1981 4403 
Q 3100 4403 3708 3842 
Q 4316 3281 4316 2247 
z
M 3716 2247 
Q 3716 3066 3267 3495 
Q 2819 3925 1969 3925 
L 1122 3925 
L 1122 478 
L 2103 478 
Q 2588 478 2955 690 
Q 3322 903 3519 1303 
Q 3716 1703 3716 2247 
z
" transform="scale(0.015625)"/>
        <path id="LiberationSans-53" d="M 3975 1216 
Q 3975 606 3498 271 
Q 3022 -63 2156 -63 
Q 547 -63 291 1056 
L 869 1172 
Q 969 775 1294 589 
Q 1619 403 2178 403 
Q 2756 403 3070 601 
Q 3384 800 3384 1184 
Q 3384 1400 3286 1534 
Q 3188 1669 3009 1756 
Q 2831 1844 2584 1903 
Q 2338 1963 2038 2031 
Q 1516 2147 1245 2262 
Q 975 2378 819 2520 
Q 663 2663 580 2853 
Q 497 3044 497 3291 
Q 497 3856 930 4162 
Q 1363 4469 2169 4469 
Q 2919 4469 3316 4239 
Q 3713 4009 3872 3456 
L 3284 3353 
Q 3188 3703 2916 3861 
Q 2644 4019 2163 4019 
Q 1634 4019 1356 3844 
Q 1078 3669 1078 3322 
Q 1078 3119 1186 2986 
Q 1294 2853 1497 2761 
Q 1700 2669 2306 2534 
Q 2509 2488 2711 2439 
Q 2913 2391 3097 2323 
Q 3281 2256 3442 2165 
Q 3603 2075 3722 1944 
Q 3841 1813 3908 1634 
Q 3975 1456 3975 1216 
z
" transform="scale(0.015625)"/>
       </defs>
       <use xlink:href="#LiberationSans-44"/>
       <use xlink:href="#LiberationSans-45" transform="translate(72.216797 0)"/>
       <use xlink:href="#LiberationSans-4e" transform="translate(138.916016 0)"/>
       <use xlink:href="#LiberationSans-53" transform="translate(211.132812 0)"/>
       <use xlink:href="#LiberationSans-49" transform="translate(277.832031 0)"/>
       <use xlink:href="#LiberationSans-54" transform="translate(305.615234 0)"/>
       <use xlink:href="#LiberationSans-59" transform="translate(366.699219 0)"/>
      </g>
     </g>
    </g>
    <g id="xtick_7">
     <g id="line2d_13">
      <path d="M 444.54125 406.915663 
L 444.54125 36.623562 
" clip-path="url(#p065267a132)" style="fill: none; stroke: #cccccc; stroke-width: 0.8; stroke-linecap: round"/>
     </g>
     <g id="line2d_14"/>
     <g id="text_7">
      <!-- DO -->
      <g style="fill: #262626" transform="translate(431.260017 427.719671) rotate(-45) scale(0.11 -0.11)">
       <use xlink:href="#LiberationSans-44"/>
       <use xlink:href="#LiberationSans-4f" transform="translate(72.216797 0)"/>
      </g>
     </g>
    </g>
    <g id="xtick_8">
     <g id="line2d_15">
      <path d="M 502.288566 406.915663 
L 502.288566 36.623562 
" clip-path="url(#p065267a132)" style="fill: none; stroke: #cccccc; stroke-width: 0.8; stroke-linecap: round"/>
     </g>
     <g id="line2d_16"/>
     <g id="text_8">
      <!-- ENGAGEMENT -->
      <g style="fill: #262626" transform="translate(445.357189 471.369815) rotate(-45) scale(0.11 -0.11)">
       <use xlink:href="#LiberationSans-45"/>
       <use xlink:href="#LiberationSans-4e" transform="translate(66.699219 0)"/>
       <use xlink:href="#LiberationSans-47" transform="translate(138.916016 0)"/>
       <use xlink:href="#LiberationSans-41" transform="translate(216.699219 0)"/>
       <use xlink:href="#LiberationSans-47" transform="translate(283.398438 0)"/>
       <use xlink:href="#LiberationSans-45" transform="translate(361.181641 0)"/>
       <use xlink:href="#LiberationSans-4d" transform="translate(427.880859 0)"/>
       <use xlink:href="#LiberationSans-45" transform="translate(511.181641 0)"/>
       <use xlink:href="#LiberationSans-4e" transform="translate(577.880859 0)"/>
       <use xlink:href="#LiberationSans-54" transform="translate(650.097656 0)"/>
      </g>
     </g>
    </g>
    <g id="xtick_9">
     <g id="line2d_17">
      <path d="M 560.035881 406.915663 
L 560.035881 36.623562 
" clip-path="url(#p065267a132)" style="fill: none; stroke: #cccccc; stroke-width: 0.8; stroke-linecap: round"/>
     </g>
     <g id="line2d_18"/>
     <g id="text_9">
      <!-- IMPACT -->
      <g style="fill: #262626" transform="translate(529.611065 444.863254) rotate(-45) scale(0.11 -0.11)">
       <use xlink:href="#LiberationSans-49"/>
       <use xlink:href="#LiberationSans-4d" transform="translate(27.783203 0)"/>
       <use xlink:href="#LiberationSans-50" transform="translate(111.083984 0)"/>
       <use xlink:href="#LiberationSans-41" transform="translate(170.408203 0)"/>
       <use xlink:href="#LiberationSans-43" transform="translate(237.107422 0)"/>
       <use xlink:href="#LiberationSans-54" transform="translate(309.324219 0)"/>
      </g>
     </g>
    </g>
    <g id="xtick_10">
     <g id="line2d_19">
      <path d="M 617.783197 406.915663 
L 617.783197 36.623562 
" clip-path="url(#p065267a132)" style="fill: none; stroke: #cccccc; stroke-width: 0.8; stroke-linecap: round"/>
     </g>
     <g id="line2d_20"/>
     <g id="text_10">
      <!-- KNOW -->
      <g style="fill: #262626" transform="translate(591.971811 440.249824) rotate(-45) scale(0.11 -0.11)">
       <defs>
        <path id="LiberationSans-4b" d="M 3456 0 
L 1697 2125 
L 1122 1688 
L 1122 0 
L 525 0 
L 525 4403 
L 1122 4403 
L 1122 2197 
L 3244 4403 
L 3947 4403 
L 2072 2491 
L 4197 0 
L 3456 0 
z
" transform="scale(0.015625)"/>
        <path id="LiberationSans-57" d="M 4722 0 
L 4009 0 
L 3247 2797 
Q 3172 3059 3028 3738 
Q 2947 3375 2890 3131 
Q 2834 2888 2038 0 
L 1325 0 
L 28 4403 
L 650 4403 
L 1441 1606 
Q 1581 1081 1700 525 
Q 1775 869 1873 1275 
Q 1972 1681 2741 4403 
L 3313 4403 
L 4078 1663 
Q 4253 991 4353 525 
L 4381 634 
Q 4466 994 4519 1220 
Q 4572 1447 5397 4403 
L 6019 4403 
L 4722 0 
z
" transform="scale(0.015625)"/>
       </defs>
       <use xlink:href="#LiberationSans-4b"/>
       <use xlink:href="#LiberationSans-4e" transform="translate(66.699219 0)"/>
       <use xlink:href="#LiberationSans-4f" transform="translate(138.916016 0)"/>
       <use xlink:href="#LiberationSans-57" transform="translate(216.699219 0)"/>
      </g>
     </g>
    </g>
    <g id="xtick_11">
     <g id="line2d_21">
      <path d="M 675.530513 406.915663 
L 675.530513 36.623562 
" clip-path="url(#p065267a132)" style="fill: none; stroke: #cccccc; stroke-width: 0.8; stroke-linecap: round"/>
     </g>
     <g id="line2d_22"/>
     <g id="text_11">
      <!-- SIGNAL -->
      <g style="fill: #262626" transform="translate(645.38644 444.58251) rotate(-45) scale(0.11 -0.11)">
       <use xlink:href="#LiberationSans-53"/>
       <use xlink:href="#LiberationSans-49" transform="translate(66.699219 0)"/>
       <use xlink:href="#LiberationSans-47" transform="translate(94.482422 0)"/>
       <use xlink:href="#LiberationSans-4e" transform="translate(172.265625 0)"/>
       <use xlink:href="#LiberationSans-41" transform="translate(244.482422 0)"/>
       <use xlink:href="#LiberationSans-4c" transform="translate(311.181641 0)"/>
      </g>
     </g>
    </g>
    <g id="xtick_12">
     <g id="line2d_23">
      <path d="M 733.277828 406.915663 
L 733.277828 36.623562 
" clip-path="url(#p065267a132)" style="fill: none; stroke: #cccccc; stroke-width: 0.8; stroke-linecap: round"/>
     </g>
     <g id="line2d_24"/>
     <g id="text_12">
      <!-- STATE -->
      <g style="fill: #262626" transform="translate(707.744755 439.971511) rotate(-45) scale(0.11 -0.11)">
       <use xlink:href="#LiberationSans-53"/>
       <use xlink:href="#LiberationSans-54" transform="translate(66.699219 0)"/>
       <use xlink:href="#LiberationSans-41" transform="translate(120.408203 0)"/>
       <use xlink:href="#LiberationSans-54" transform="translate(179.732422 0)"/>
       <use xlink:href="#LiberationSans-45" transform="translate(240.816406 0)"/>
      </g>
     </g>
    </g>
    <g id="xtick_13">
     <g id="line2d_25">
      <path d="M 791.025144 406.915663 
L 791.025144 36.623562 
" clip-path="url(#p065267a132)" style="fill: none; stroke: #cccccc; stroke-width: 0.8; stroke-linecap: round"/>
     </g>
     <g id="line2d_26"/>
     <g id="text_13">
      <!-- UNCERTAINTY -->
      <g style="fill: #262626" transform="translate(734.807172 470.65641) rotate(-45) scale(0.11 -0.11)">
       <defs>
        <path id="LiberationSans-55" d="M 2284 -63 
Q 1744 -63 1341 134 
Q 938 331 716 706 
Q 494 1081 494 1600 
L 494 4403 
L 1091 4403 
L 1091 1650 
Q 1091 1047 1397 734 
Q 1703 422 2281 422 
Q 2875 422 3204 745 
Q 3534 1069 3534 1691 
L 3534 4403 
L 4128 4403 
L 4128 1656 
Q 4128 1122 3901 734 
Q 3675 347 3261 142 
Q 2847 -63 2284 -63 
z
" transform="scale(0.015625)"/>
       </defs>
       <use xlink:href="#LiberationSans-55"/>
       <use xlink:href="#LiberationSans-4e" transform="translate(72.216797 0)"/>
       <use xlink:href="#LiberationSans-43" transform="translate(144.433594 0)"/>
       <use xlink:href="#LiberationSans-45" transform="translate(216.650391 0)"/>
       <use xlink:href="#LiberationSans-52" transform="translate(283.349609 0)"/>
       <use xlink:href="#LiberationSans-54" transform="translate(353.816406 0)"/>
       <use xlink:href="#LiberationSans-41" transform="translate(407.525391 0)"/>
       <use xlink:href="#LiberationSans-49" transform="translate(474.224609 0)"/>
       <use xlink:href="#LiberationSans-4e" transform="translate(502.007812 0)"/>
       <use xlink:href="#LiberationSans-54" transform="translate(574.224609 0)"/>
       <use xlink:href="#LiberationSans-59" transform="translate(635.308594 0)"/>
      </g>
     </g>
    </g>
    <g id="text_14">
     <!-- Epistemic Vector -->
     <g style="fill: #262626" transform="translate(399.858125 485.680036) scale(0.12 -0.12)">
      <defs>
       <path id="LiberationSans-70" d="M 3291 1706 
Q 3291 -63 2047 -63 
Q 1266 -63 997 525 
L 981 525 
Q 994 500 994 -6 
L 994 -1328 
L 431 -1328 
L 431 2691 
Q 431 3213 413 3381 
L 956 3381 
Q 959 3369 965 3292 
Q 972 3216 980 3056 
Q 988 2897 988 2838 
L 1000 2838 
Q 1150 3150 1397 3295 
Q 1644 3441 2047 3441 
Q 2672 3441 2981 3022 
Q 3291 2603 3291 1706 
z
M 2700 1694 
Q 2700 2400 2509 2703 
Q 2319 3006 1903 3006 
Q 1569 3006 1380 2865 
Q 1191 2725 1092 2426 
Q 994 2128 994 1650 
Q 994 984 1206 668 
Q 1419 353 1897 353 
Q 2316 353 2508 661 
Q 2700 969 2700 1694 
z
" transform="scale(0.015625)"/>
       <path id="LiberationSans-69" d="M 428 4100 
L 428 4638 
L 991 4638 
L 991 4100 
L 428 4100 
z
M 428 0 
L 428 3381 
L 991 3381 
L 991 0 
L 428 0 
z
" transform="scale(0.015625)"/>
       <path id="LiberationSans-73" d="M 2969 934 
Q 2969 456 2608 196 
Q 2247 -63 1597 -63 
Q 966 -63 623 145 
Q 281 353 178 794 
L 675 891 
Q 747 619 972 492 
Q 1197 366 1597 366 
Q 2025 366 2223 497 
Q 2422 628 2422 891 
Q 2422 1091 2284 1216 
Q 2147 1341 1841 1422 
L 1438 1528 
Q 953 1653 748 1773 
Q 544 1894 428 2066 
Q 313 2238 313 2488 
Q 313 2950 642 3192 
Q 972 3434 1603 3434 
Q 2163 3434 2492 3237 
Q 2822 3041 2909 2606 
L 2403 2544 
Q 2356 2769 2151 2889 
Q 1947 3009 1603 3009 
Q 1222 3009 1040 2893 
Q 859 2778 859 2544 
Q 859 2400 934 2306 
Q 1009 2213 1156 2147 
Q 1303 2081 1775 1966 
Q 2222 1853 2419 1758 
Q 2616 1663 2730 1547 
Q 2844 1431 2906 1279 
Q 2969 1128 2969 934 
z
" transform="scale(0.015625)"/>
       <path id="LiberationSans-74" d="M 1731 25 
Q 1453 -50 1163 -50 
Q 488 -50 488 716 
L 488 2972 
L 97 2972 
L 97 3381 
L 509 3381 
L 675 4138 
L 1050 4138 
L 1050 3381 
L 1675 3381 
L 1675 2972 
L 1050 2972 
L 1050 838 
Q 1050 594 1129 495 
Q 1209 397 1406 397 
Q 1519 397 1731 441 
L 1731 25 
z
" transform="scale(0.015625)"/>
       <path id="LiberationSans-65" d="M 863 1572 
Q 863 991 1103 675 
Q 1344 359 1806 359 
Q 2172 359 2392 506 
Q 2613 653 2691 878 
L 3184 738 
Q 2881 -63 1806 -63 
Q 1056 -63 664 384 
Q 272 831 272 1713 
Q 272 2550 664 2997 
Q 1056 3444 1784 3444 
Q 3275 3444 3275 1647 
L 3275 1572 
L 863 1572 
z
M 2694 2003 
Q 2647 2538 2422 2783 
Q 2197 3028 1775 3028 
Q 1366 3028 1127 2754 
Q 888 2481 869 2003 
L 2694 2003 
z
" transform="scale(0.015625)"/>
       <path id="LiberationSans-6d" d="M 2400 0 
L 2400 2144 
Q 2400 2634 2265 2821 
Q 2131 3009 1781 3009 
Q 1422 3009 1212 2734 
Q 1003 2459 1003 1959 
L 1003 0 
L 444 0 
L 444 2659 
Q 444 3250 425 3381 
L 956 3381 
Q 959 3366 962 3297 
Q 966 3228 970 3139 
Q 975 3050 981 2803 
L 991 2803 
Q 1172 3163 1406 3303 
Q 1641 3444 1978 3444 
Q 2363 3444 2586 3291 
Q 2809 3138 2897 2803 
L 2906 2803 
Q 3081 3144 3329 3294 
Q 3578 3444 3931 3444 
Q 4444 3444 4676 3166 
Q 4909 2888 4909 2253 
L 4909 0 
L 4353 0 
L 4353 2144 
Q 4353 2634 4218 2821 
Q 4084 3009 3734 3009 
Q 3366 3009 3161 2736 
Q 2956 2463 2956 1959 
L 2956 0 
L 2400 0 
z
" transform="scale(0.015625)"/>
       <path id="LiberationSans-63" d="M 859 1706 
Q 859 1031 1071 706 
Q 1284 381 1713 381 
Q 2013 381 2214 543 
Q 2416 706 2463 1044 
L 3031 1006 
Q 2966 519 2616 228 
Q 2266 -63 1728 -63 
Q 1019 -63 645 385 
Q 272 834 272 1694 
Q 272 2547 647 2995 
Q 1022 3444 1722 3444 
Q 2241 3444 2583 3175 
Q 2925 2906 3013 2434 
L 2434 2391 
Q 2391 2672 2212 2837 
Q 2034 3003 1706 3003 
Q 1259 3003 1059 2706 
Q 859 2409 859 1706 
z
" transform="scale(0.015625)"/>
       <path id="LiberationSans-20" transform="scale(0.015625)"/>
       <path id="LiberationSans-56" d="M 2444 0 
L 1825 0 
L 28 4403 
L 656 4403 
L 1875 1303 
L 2138 525 
L 2400 1303 
L 3613 4403 
L 4241 4403 
L 2444 0 
z
" transform="scale(0.015625)"/>
       <path id="LiberationSans-6f" d="M 3291 1694 
Q 3291 806 2900 371 
Q 2509 -63 1766 -63 
Q 1025 -63 647 389 
Q 269 841 269 1694 
Q 269 3444 1784 3444 
Q 2559 3444 2925 3017 
Q 3291 2591 3291 1694 
z
M 2700 1694 
Q 2700 2394 2492 2711 
Q 2284 3028 1794 3028 
Q 1300 3028 1079 2704 
Q 859 2381 859 1694 
Q 859 1025 1076 689 
Q 1294 353 1759 353 
Q 2266 353 2483 678 
Q 2700 1003 2700 1694 
z
" transform="scale(0.015625)"/>
       <path id="LiberationSans-72" d="M 444 0 
L 444 2594 
Q 444 2950 425 3381 
L 956 3381 
Q 981 2806 981 2691 
L 994 2691 
Q 1128 3125 1303 3284 
Q 1478 3444 1797 3444 
Q 1909 3444 2025 3413 
L 2025 2897 
Q 1913 2928 1725 2928 
Q 1375 2928 1190 2626 
Q 1006 2325 1006 1763 
L 1006 0 
L 444 0 
z
" transform="scale(0.015625)"/>
      </defs>
      <use xlink:href="#LiberationSans-45"/>
      <use xlink:href="#LiberationSans-70" transform="translate(66.699219 0)"/>
      <use xlink:href="#LiberationSans-69" transform="translate(122.314453 0)"/>
      <use xlink:href="#LiberationSans-73" transform="translate(144.53125 0)"/>
      <use xlink:href="#LiberationSans-74" transform="translate(194.53125 0)"/>
      <use xlink:href="#LiberationSans-65" transform="translate(222.314453 0)"/>
      <use xlink:href="#LiberationSans-6d" transform="translate(277.929688 0)"/>
      <use xlink:href="#LiberationSans-69" transform="translate(361.230469 0)"/>
      <use xlink:href="#LiberationSans-63" transform="translate(383.447266 0)"/>
      <use xlink:href="#LiberationSans-20" transform="translate(433.447266 0)"/>
      <use xlink:href="#LiberationSans-56" transform="translate(461.230469 0)"/>
      <use xlink:href="#LiberationSans-65" transform="translate(522.429688 0)"/>
      <use xlink:href="#LiberationSans-63" transform="translate(578.044922 0)"/>
      <use xlink:href="#LiberationSans-74" transform="translate(628.044922 0)"/>
      <use xlink:href="#LiberationSans-6f" transform="translate(655.828125 0)"/>
      <use xlink:href="#LiberationSans-72" transform="translate(711.443359 0)"/>
     </g>
    </g>
   </g>
   <g id="matplotlib.axis_2">
    <g id="ytick_1">
     <g id="line2d_27">
      <path d="M 41.17625 406.915663 
L 847.90625 406.915663 
" clip-path="url(#p065267a132)" style="fill: none; stroke: #cccccc; stroke-width: 0.8; stroke-linecap: round"/>
     </g>
     <g id="line2d_28"/>
     <g id="text_15">
      <!-- 0.0 -->
      <g style="fill: #262626" transform="translate(22.38625 410.901444) scale(0.11 -0.11)">
       <defs>
        <path id="LiberationSans-30" d="M 3309 2203 
Q 3309 1100 2920 518 
Q 2531 -63 1772 -63 
Q 1013 -63 631 515 
Q 250 1094 250 2203 
Q 250 3338 620 3903 
Q 991 4469 1791 4469 
Q 2569 4469 2939 3897 
Q 3309 3325 3309 2203 
z
M 2738 2203 
Q 2738 3156 2517 3584 
Q 2297 4013 1791 4013 
Q 1272 4013 1045 3591 
Q 819 3169 819 2203 
Q 819 1266 1048 831 
Q 1278 397 1778 397 
Q 2275 397 2506 840 
Q 2738 1284 2738 2203 
z
" transform="scale(0.015625)"/>
        <path id="LiberationSans-2e" d="M 584 0 
L 584 684 
L 1194 684 
L 1194 0 
L 584 0 
z
" transform="scale(0.015625)"/>
       </defs>
       <use xlink:href="#LiberationSans-30"/>
       <use xlink:href="#LiberationSans-2e" transform="translate(55.615234 0)"/>
       <use xlink:href="#LiberationSans-30" transform="translate(83.398438 0)"/>
      </g>
     </g>
    </g>
    <g id="ytick_2">
     <g id="line2d_29">
      <path d="M 41.17625 332.857243 
L 847.90625 332.857243 
" clip-path="url(#p065267a132)" style="fill: none; stroke: #cccccc; stroke-width: 0.8; stroke-linecap: round"/>
     </g>
     <g id="line2d_30"/>
     <g id="text_16">
      <!-- 0.2 -->
      <g style="fill: #262626" transform="translate(22.38625 336.843024) scale(0.11 -0.11)">
       <defs>
        <path id="LiberationSans-32" d="M 322 0 
L 322 397 
Q 481 763 711 1042 
Q 941 1322 1194 1548 
Q 1447 1775 1695 1969 
Q 1944 2163 2144 2356 
Q 2344 2550 2467 2762 
Q 2591 2975 2591 3244 
Q 2591 3606 2378 3806 
Q 2166 4006 1788 4006 
Q 1428 4006 1195 3811 
Q 963 3616 922 3263 
L 347 3316 
Q 409 3844 795 4156 
Q 1181 4469 1788 4469 
Q 2453 4469 2811 4155 
Q 3169 3841 3169 3263 
Q 3169 3006 3051 2753 
Q 2934 2500 2703 2247 
Q 2472 1994 1819 1463 
Q 1459 1169 1246 933 
Q 1034 697 941 478 
L 3238 478 
L 3238 0 
L 322 0 
z
" transform="scale(0.015625)"/>
       </defs>
       <use xlink:href="#LiberationSans-30"/>
       <use xlink:href="#LiberationSans-2e" transform="translate(55.615234 0)"/>
       <use xlink:href="#LiberationSans-32" transform="translate(83.398438 0)"/>
      </g>
     </g>
    </g>
    <g id="ytick_3">
     <g id="line2d_31">
      <path d="M 41.17625 258.798823 
L 847.90625 258.798823 
" clip-path="url(#p065267a132)" style="fill: none; stroke: #cccccc; stroke-width: 0.8; stroke-linecap: round"/>
     </g>
     <g id="line2d_32"/>
     <g id="text_17">
      <!-- 0.4 -->
      <g style="fill: #262626" transform="translate(22.38625 262.784604) scale(0.11 -0.11)">
       <defs>
        <path id="LiberationSans-34" d="M 2753 997 
L 2753 0 
L 2222 0 
L 2222 997 
L 147 997 
L 147 1434 
L 2163 4403 
L 2753 4403 
L 2753 1441 
L 3372 1441 
L 3372 997 
L 2753 997 
z
M 2222 3769 
Q 2216 3750 2134 3603 
Q 2053 3456 2013 3397 
L 884 1734 
L 716 1503 
L 666 1441 
L 2222 1441 
L 2222 3769 
z
" transform="scale(0.015625)"/>
       </defs>
       <use xlink:href="#LiberationSans-30"/>
       <use xlink:href="#LiberationSans-2e" transform="translate(55.615234 0)"/>
       <use xlink:href="#LiberationSans-34" transform="translate(83.398438 0)"/>
      </g>
     </g>
    </g>
    <g id="ytick_4">
     <g id="line2d_33">
      <path d="M 41.17625 184.740403 
L 847.90625 184.740403 
" clip-path="url(#p065267a132)" style="fill: none; stroke: #cccccc; stroke-width: 0.8; stroke-linecap: round"/>
     </g>
     <g id="line2d_34"/>
     <g id="text_18">
      <!-- 0.6 -->
      <g style="fill: #262626" transform="translate(22.38625 188.726184) scale(0.11 -0.11)">
       <defs>
        <path id="LiberationSans-36" d="M 3278 1441 
Q 3278 744 2900 340 
Q 2522 -63 1856 -63 
Q 1113 -63 719 490 
Q 325 1044 325 2100 
Q 325 3244 734 3856 
Q 1144 4469 1900 4469 
Q 2897 4469 3156 3572 
L 2619 3475 
Q 2453 4013 1894 4013 
Q 1413 4013 1148 3564 
Q 884 3116 884 2266 
Q 1038 2550 1316 2698 
Q 1594 2847 1953 2847 
Q 2563 2847 2920 2465 
Q 3278 2084 3278 1441 
z
M 2706 1416 
Q 2706 1894 2472 2153 
Q 2238 2413 1819 2413 
Q 1425 2413 1183 2183 
Q 941 1953 941 1550 
Q 941 1041 1192 716 
Q 1444 391 1838 391 
Q 2244 391 2475 664 
Q 2706 938 2706 1416 
z
" transform="scale(0.015625)"/>
       </defs>
       <use xlink:href="#LiberationSans-30"/>
       <use xlink:href="#LiberationSans-2e" transform="translate(55.615234 0)"/>
       <use xlink:href="#LiberationSans-36" transform="translate(83.398438 0)"/>
      </g>
     </g>
    </g>
    <g id="ytick_5">
     <g id="line2d_35">
      <path d="M 41.17625 110.681983 
L 847.90625 110.681983 
" clip-path="url(#p065267a132)" style="fill: none; stroke: #cccccc; stroke-width: 0.8; stroke-linecap: round"/>
     </g>
     <g id="line2d_36"/>
     <g id="text_19">
      <!-- 0.8 -->
      <g style="fill: #262626" transform="translate(22.38625 114.667764) scale(0.11 -0.11)">
       <defs>
        <path id="LiberationSans-38" d="M 3281 1228 
Q 3281 619 2893 278 
Q 2506 -63 1781 -63 
Q 1075 -63 676 271 
Q 278 606 278 1222 
Q 278 1653 525 1947 
Q 772 2241 1156 2303 
L 1156 2316 
Q 797 2400 589 2681 
Q 381 2963 381 3341 
Q 381 3844 757 4156 
Q 1134 4469 1769 4469 
Q 2419 4469 2795 4162 
Q 3172 3856 3172 3334 
Q 3172 2956 2962 2675 
Q 2753 2394 2391 2322 
L 2391 2309 
Q 2813 2241 3047 1952 
Q 3281 1663 3281 1228 
z
M 2588 3303 
Q 2588 4050 1769 4050 
Q 1372 4050 1164 3862 
Q 956 3675 956 3303 
Q 956 2925 1170 2726 
Q 1384 2528 1775 2528 
Q 2172 2528 2380 2711 
Q 2588 2894 2588 3303 
z
M 2697 1281 
Q 2697 1691 2453 1898 
Q 2209 2106 1769 2106 
Q 1341 2106 1100 1882 
Q 859 1659 859 1269 
Q 859 359 1788 359 
Q 2247 359 2472 579 
Q 2697 800 2697 1281 
z
" transform="scale(0.015625)"/>
       </defs>
       <use xlink:href="#LiberationSans-30"/>
       <use xlink:href="#LiberationSans-2e" transform="translate(55.615234 0)"/>
       <use xlink:href="#LiberationSans-38" transform="translate(83.398438 0)"/>
      </g>
     </g>
    </g>
    <g id="ytick_6">
     <g id="line2d_37">
      <path d="M 41.17625 36.623562 
L 847.90625 36.623562 
" clip-path="url(#p065267a132)" style="fill: none; stroke: #cccccc; stroke-width: 0.8; stroke-linecap: round"/>
     </g>
     <g id="line2d_38"/>
     <g id="text_20">
      <!-- 1.0 -->
      <g style="fill: #262626" transform="translate(22.38625 40.609344) scale(0.11 -0.11)">
       <defs>
        <path id="LiberationSans-31" d="M 488 0 
L 488 478 
L 1609 478 
L 1609 3866 
L 616 3156 
L 616 3688 
L 1656 4403 
L 2175 4403 
L 2175 478 
L 3247 478 
L 3247 0 
L 488 0 
z
" transform="scale(0.015625)"/>
       </defs>
       <use xlink:href="#LiberationSans-31"/>
       <use xlink:href="#LiberationSans-2e" transform="translate(55.615234 0)"/>
       <use xlink:href="#LiberationSans-30" transform="translate(83.398438 0)"/>
      </g>
     </g>
    </g>
    <g id="text_21">
     <!-- Value (0-1) -->
     <g style="fill: #262626" transform="translate(15.89625 251.00555) rotate(-90) scale(0.12 -0.12)">
      <defs>
       <path id="LiberationSans-61" d="M 1294 -63 
Q 784 -63 528 206 
Q 272 475 272 944 
Q 272 1469 617 1750 
Q 963 2031 1731 2050 
L 2491 2063 
L 2491 2247 
Q 2491 2659 2316 2837 
Q 2141 3016 1766 3016 
Q 1388 3016 1216 2887 
Q 1044 2759 1009 2478 
L 422 2531 
Q 566 3444 1778 3444 
Q 2416 3444 2737 3151 
Q 3059 2859 3059 2306 
L 3059 850 
Q 3059 600 3125 473 
Q 3191 347 3375 347 
Q 3456 347 3559 369 
L 3559 19 
Q 3347 -31 3125 -31 
Q 2813 -31 2670 133 
Q 2528 297 2509 647 
L 2491 647 
Q 2275 259 1989 98 
Q 1703 -63 1294 -63 
z
M 1422 359 
Q 1731 359 1972 500 
Q 2213 641 2352 886 
Q 2491 1131 2491 1391 
L 2491 1669 
L 1875 1656 
Q 1478 1650 1273 1575 
Q 1069 1500 959 1344 
Q 850 1188 850 934 
Q 850 659 998 509 
Q 1147 359 1422 359 
z
" transform="scale(0.015625)"/>
       <path id="LiberationSans-6c" d="M 431 0 
L 431 4638 
L 994 4638 
L 994 0 
L 431 0 
z
" transform="scale(0.015625)"/>
       <path id="LiberationSans-75" d="M 981 3381 
L 981 1238 
Q 981 903 1047 718 
Q 1113 534 1256 453 
Q 1400 372 1678 372 
Q 2084 372 2318 650 
Q 2553 928 2553 1422 
L 2553 3381 
L 3116 3381 
L 3116 722 
Q 3116 131 3134 0 
L 2603 0 
Q 2600 16 2597 84 
Q 2594 153 2589 242 
Q 2584 331 2578 578 
L 2569 578 
Q 2375 228 2120 82 
Q 1866 -63 1488 -63 
Q 931 -63 673 214 
Q 416 491 416 1128 
L 416 3381 
L 981 3381 
z
" transform="scale(0.015625)"/>
       <path id="LiberationSans-28" d="M 397 1663 
Q 397 2566 680 3284 
Q 963 4003 1550 4638 
L 2094 4638 
Q 1509 3988 1236 3256 
Q 963 2525 963 1656 
Q 963 791 1233 62 
Q 1503 -666 2094 -1325 
L 1550 -1325 
Q 959 -688 678 32 
Q 397 753 397 1650 
L 397 1663 
z
" transform="scale(0.015625)"/>
       <path id="LiberationSans-2d" d="M 284 1450 
L 284 1950 
L 1847 1950 
L 1847 1450 
L 284 1450 
z
" transform="scale(0.015625)"/>
       <path id="LiberationSans-29" d="M 1734 1650 
Q 1734 747 1451 28 
Q 1169 -691 581 -1325 
L 38 -1325 
Q 625 -669 897 57 
Q 1169 784 1169 1656 
Q 1169 2528 895 3256 
Q 622 3984 38 4638 
L 581 4638 
Q 1172 4000 1453 3279 
Q 1734 2559 1734 1663 
L 1734 1650 
z
" transform="scale(0.015625)"/>
      </defs>
      <use xlink:href="#LiberationSans-56"/>
      <use xlink:href="#LiberationSans-61" transform="translate(59.324219 0)"/>
      <use xlink:href="#LiberationSans-6c" transform="translate(114.939453 0)"/>
      <use xlink:href="#LiberationSans-75" transform="translate(137.15625 0)"/>
      <use xlink:href="#LiberationSans-65" transform="translate(192.771484 0)"/>
      <use xlink:href="#LiberationSans-20" transform="translate(248.386719 0)"/>
      <use xlink:href="#LiberationSans-28" transform="translate(276.169922 0)"/>
      <use xlink:href="#LiberationSans-30" transform="translate(309.470703 0)"/>
      <use xlink:href="#LiberationSans-2d" transform="translate(365.085938 0)"/>
      <use xlink:href="#LiberationSans-31" transform="translate(398.386719 0)"/>
      <use xlink:href="#LiberationSans-29" transform="translate(454.001953 0)"/>
     </g>
    </g>
   </g>
   <g id="patch_3">
    <path d="M 77.845795 406.915663 
L 98.057356 406.915663 
L 98.057356 186.962155 
L 77.845795 186.962155 
z
" clip-path="url(#p065267a132)" style="fill: #3498db; opacity: 0.7; stroke: #000000; stroke-width: 0.5; stroke-linejoin: miter"/>
   </g>
   <g id="patch_4">
    <path d="M 135.593111 406.915663 
L 155.804672 406.915663 
L 155.804672 128.456003 
L 135.593111 128.456003 
z
" clip-path="url(#p065267a132)" style="fill: #3498db; opacity: 0.7; stroke: #000000; stroke-width: 0.5; stroke-linejoin: miter"/>
   </g>
   <g id="patch_5">
    <path d="M 193.340427 406.915663 
L 213.551987 406.915663 
L 213.551987 126.234251 
L 193.340427 126.234251 
z
" clip-path="url(#p065267a132)" style="fill: #3498db; opacity: 0.7; stroke: #000000; stroke-width: 0.5; stroke-linejoin: miter"/>
   </g>
   <g id="patch_6">
    <path d="M 251.087742 406.915663 
L 271.299303 406.915663 
L 271.299303 253.614734 
L 251.087742 253.614734 
z
" clip-path="url(#p065267a132)" style="fill: #3498db; opacity: 0.7; stroke: #000000; stroke-width: 0.5; stroke-linejoin: miter"/>
   </g>
   <g id="patch_7">
    <path d="M 308.835058 406.915663 
L 329.046619 406.915663 
L 329.046619 130.307464 
L 308.835058 130.307464 
z
" clip-path="url(#p065267a132)" style="fill: #3498db; opacity: 0.7; stroke: #000000; stroke-width: 0.5; stroke-linejoin: miter"/>
   </g>
   <g id="patch_8">
    <path d="M 366.582374 406.915663 
L 386.793934 406.915663 
L 386.793934 168.077258 
L 366.582374 168.077258 
z
" clip-path="url(#p065267a132)" style="fill: #3498db; opacity: 0.7; stroke: #000000; stroke-width: 0.5; stroke-linejoin: miter"/>
   </g>
   <g id="patch_9">
    <path d="M 424.32969 406.915663 
L 444.54125 406.915663 
L 444.54125 131.41834 
L 424.32969 131.41834 
z
" clip-path="url(#p065267a132)" style="fill: #3498db; opacity: 0.7; stroke: #000000; stroke-width: 0.5; stroke-linejoin: miter"/>
   </g>
   <g id="patch_10">
    <path d="M 482.077005 406.915663 
L 502.288566 406.915663 
L 502.288566 91.797086 
L 482.077005 91.797086 
z
" clip-path="url(#p065267a132)" style="fill: #3498db; opacity: 0.7; stroke: #000000; stroke-width: 0.5; stroke-linejoin: miter"/>
   </g>
   <g id="patch_11">
    <path d="M 539.824321 406.915663 
L 560.035881 406.915663 
L 560.035881 181.037482 
L 539.824321 181.037482 
z
" clip-path="url(#p065267a132)" style="fill: #3498db; opacity: 0.7; stroke: #000000; stroke-width: 0.5; stroke-linejoin: miter"/>
   </g>
   <g id="patch_12">
    <path d="M 597.571637 406.915663 
L 617.783197 406.915663 
L 617.783197 151.414114 
L 597.571637 151.414114 
z
" clip-path="url(#p065267a132)" style="fill: #3498db; opacity: 0.7; stroke: #000000; stroke-width: 0.5; stroke-linejoin: miter"/>
   </g>
   <g id="patch_13">
    <path d="M 655.318952 406.915663 
L 675.530513 406.915663 
L 675.530513 132.899509 
L 655.318952 132.899509 
z
" clip-path="url(#p065267a132)" style="fill: #3498db; opacity: 0.7; stroke: #000000; stroke-width: 0.5; stroke-linejoin: miter"/>
   </g>
   <g id="patch_14">
    <path d="M 713.066268 406.915663 
L 733.277828 406.915663 
L 733.277828 146.970609 
L 713.066268 146.970609 
z
" clip-path="url(#p065267a132)" style="fill: #3498db; opacity: 0.7; stroke: #000000; stroke-width: 0.5; stroke-linejoin: miter"/>
   </g>
   <g id="patch_15">
    <path d="M 770.813584 406.915663 
L 791.025144 406.915663 
L 791.025144 158.449664 
L 770.813584 158.449664 
z
" clip-path="url(#p065267a132)" style="fill: url(#h0d9269d8ce); opacity: 0.7; stroke: #000000; stroke-width: 0.5; stroke-linejoin: miter"/>
   </g>
   <g id="patch_16">
    <path d="M 98.057356 406.915663 
L 118.268916 406.915663 
L 118.268916 106.60877 
L 98.057356 106.60877 
z
" clip-path="url(#p065267a132)" style="fill: #2ecc71; opacity: 0.7; stroke: #000000; stroke-width: 0.5; stroke-linejoin: miter"/>
   </g>
   <g id="patch_17">
    <path d="M 155.804672 406.915663 
L 176.016232 406.915663 
L 176.016232 81.058615 
L 155.804672 81.058615 
z
" clip-path="url(#p065267a132)" style="fill: #2ecc71; opacity: 0.7; stroke: #000000; stroke-width: 0.5; stroke-linejoin: miter"/>
   </g>
   <g id="patch_18">
    <path d="M 213.551987 406.915663 
L 233.763548 406.915663 
L 233.763548 87.35358 
L 213.551987 87.35358 
z
" clip-path="url(#p065267a132)" style="fill: #2ecc71; opacity: 0.7; stroke: #000000; stroke-width: 0.5; stroke-linejoin: miter"/>
   </g>
   <g id="patch_19">
    <path d="M 271.299303 406.915663 
L 291.510863 406.915663 
L 291.510863 100.684096 
L 271.299303 100.684096 
z
" clip-path="url(#p065267a132)" style="fill: #2ecc71; opacity: 0.7; stroke: #000000; stroke-width: 0.5; stroke-linejoin: miter"/>
   </g>
   <g id="patch_20">
    <path d="M 329.046619 406.915663 
L 349.258179 406.915663 
L 349.258179 91.797086 
L 329.046619 91.797086 
z
" clip-path="url(#p065267a132)" style="fill: #2ecc71; opacity: 0.7; stroke: #000000; stroke-width: 0.5; stroke-linejoin: miter"/>
   </g>
   <g id="patch_21">
    <path d="M 386.793934 406.915663 
L 407.005495 406.915663 
L 407.005495 147.711193 
L 386.793934 147.711193 
z
" clip-path="url(#p065267a132)" style="fill: #2ecc71; opacity: 0.7; stroke: #000000; stroke-width: 0.5; stroke-linejoin: miter"/>
   </g>
   <g id="patch_22">
    <path d="M 444.54125 406.915663 
L 464.75281 406.915663 
L 464.75281 86.983288 
L 444.54125 86.983288 
z
" clip-path="url(#p065267a132)" style="fill: #2ecc71; opacity: 0.7; stroke: #000000; stroke-width: 0.5; stroke-linejoin: miter"/>
   </g>
   <g id="patch_23">
    <path d="M 502.288566 406.915663 
L 522.500126 406.915663 
L 522.500126 85.131828 
L 502.288566 85.131828 
z
" clip-path="url(#p065267a132)" style="fill: #2ecc71; opacity: 0.7; stroke: #000000; stroke-width: 0.5; stroke-linejoin: miter"/>
   </g>
   <g id="patch_24">
    <path d="M 560.035881 406.915663 
L 580.247442 406.915663 
L 580.247442 105.497893 
L 560.035881 105.497893 
z
" clip-path="url(#p065267a132)" style="fill: #2ecc71; opacity: 0.7; stroke: #000000; stroke-width: 0.5; stroke-linejoin: miter"/>
   </g>
   <g id="patch_25">
    <path d="M 617.783197 406.915663 
L 637.994758 406.915663 
L 637.994758 96.610883 
L 617.783197 96.610883 
z
" clip-path="url(#p065267a132)" style="fill: #2ecc71; opacity: 0.7; stroke: #000000; stroke-width: 0.5; stroke-linejoin: miter"/>
   </g>
   <g id="patch_26">
    <path d="M 675.530513 406.915663 
L 695.742073 406.915663 
L 695.742073 92.53767 
L 675.530513 92.53767 
z
" clip-path="url(#p065267a132)" style="fill: #2ecc71; opacity: 0.7; stroke: #000000; stroke-width: 0.5; stroke-linejoin: miter"/>
   </g>
   <g id="patch_27">
    <path d="M 733.277828 406.915663 
L 753.489389 406.915663 
L 753.489389 91.056501 
L 733.277828 91.056501 
z
" clip-path="url(#p065267a132)" style="fill: #2ecc71; opacity: 0.7; stroke: #000000; stroke-width: 0.5; stroke-linejoin: miter"/>
   </g>
   <g id="patch_28">
    <path d="M 791.025144 406.915663 
L 811.236705 406.915663 
L 811.236705 103.646433 
L 791.025144 103.646433 
z
" clip-path="url(#p065267a132)" style="fill: url(#hb5d0bfb25e); opacity: 0.7; stroke: #000000; stroke-width: 0.5; stroke-linejoin: miter"/>
   </g>
   <g id="patch_29">
    <path d="M 41.17625 406.915663 
L 41.17625 36.623562 
" style="fill: none; stroke: #cccccc; stroke-linejoin: miter; stroke-linecap: square"/>
   </g>
   <g id="patch_30">
    <path d="M 847.90625 406.915663 
L 847.90625 36.623562 
" style="fill: none; stroke: #cccccc; stroke-linejoin: miter; stroke-linecap: square"/>
   </g>
   <g id="patch_31">
    <path d="M 41.17625 406.915663 
L 847.90625 406.915663 
" style="fill: none; stroke: #cccccc; stroke-linejoin: miter; stroke-linecap: square"/>
   </g>
   <g id="patch_32">
    <path d="M 41.17625 36.623562 
L 847.90625 36.623562 
" style="fill: none; stroke: #cccccc; stroke-linejoin: miter; stroke-linecap: square"/>
   </g>
   <g id="patch_33">
    <path d="M 88.439471 185.022473 
Q 98.057526 146.784785 107.266491 110.173486 
" style="fill: none; stroke: #808080; stroke-width: 1.5; stroke-linecap: round"/>
    <path d="M 104.059635 113.903913 
L 107.266491 110.173486 
L 108.326718 114.977226 
" style="fill: none; stroke: #808080; stroke-width: 1.5; stroke-linecap: round"/>
   </g>
   <g id="patch_34">
    <path d="M 146.482237 126.619008 
Q 155.804436 104.757861 164.468808 84.439362 
" style="fill: none; stroke: #808080; stroke-width: 1.5; stroke-linecap: round"/>
    <path d="M 160.719209 87.623779 
L 164.468808 84.439362 
L 164.766582 89.349691 
" style="fill: none; stroke: #808080; stroke-width: 1.5; stroke-linecap: round"/>
   </g>
   <g id="patch_35">
    <path d="M 204.367718 124.461554 
Q 213.551802 106.794272 221.962366 90.614998 
" style="fill: none; stroke: #808080; stroke-width: 1.5; stroke-linecap: round"/>
    <path d="M 217.980911 93.504291 
L 221.962366 90.614998 
L 221.884927 95.533738 
" style="fill: none; stroke: #808080; stroke-width: 1.5; stroke-linecap: round"/>
   </g>
   <g id="patch_36">
    <path d="M 261.455666 251.631228 
Q 271.299177 177.150371 280.922956 104.332109 
" style="fill: none; stroke: #808080; stroke-width: 1.5; stroke-linecap: round"/>
    <path d="M 278.165423 108.405929 
L 280.922956 104.332109 
L 282.527492 108.982427 
" style="fill: none; stroke: #808080; stroke-width: 1.5; stroke-linecap: round"/>
   </g>
   <g id="patch_37">
    <path d="M 319.869751 128.537547 
Q 329.04678 111.051967 337.444452 95.051345 
" style="fill: none; stroke: #808080; stroke-width: 1.5; stroke-linecap: round"/>
    <path d="M 333.451682 97.924981 
L 337.444452 95.051345 
L 337.347698 99.969743 
" style="fill: none; stroke: #808080; stroke-width: 1.5; stroke-linecap: round"/>
   </g>
   <g id="patch_38">
    <path d="M 378.096943 166.6577 
Q 386.794832 157.893321 394.31139 150.319304 
" style="fill: none; stroke: #808080; stroke-width: 1.5; stroke-linecap: round"/>
    <path d="M 389.650442 151.892697 
L 394.31139 150.319304 
L 392.773536 154.992098 
" style="fill: none; stroke: #808080; stroke-width: 1.5; stroke-linecap: round"/>
   </g>
   <g id="patch_39">
    <path d="M 435.263226 129.598521 
Q 444.541637 109.199964 453.125686 90.327959 
" style="fill: none; stroke: #808080; stroke-width: 1.5; stroke-linecap: round"/>
    <path d="M 449.30135 93.42222 
L 453.125686 90.327959 
L 453.306493 95.243984 
" style="fill: none; stroke: #808080; stroke-width: 1.5; stroke-linecap: round"/>
   </g>
   <g id="patch_40">
    <path d="M 494.080086 91.171404 
Q 502.287075 88.464948 508.90138 86.283719 
" style="fill: none; stroke: #808080; stroke-width: 1.5; stroke-linecap: round"/>
    <path d="M 504.033728 85.572407 
L 508.90138 86.283719 
L 505.411739 89.751053 
" style="fill: none; stroke: #808080; stroke-width: 1.5; stroke-linecap: round"/>
   </g>
   <g id="patch_41">
    <path d="M 550.446986 179.105653 
Q 560.035278 143.269941 569.190102 109.054294 
" style="fill: none; stroke: #808080; stroke-width: 1.5; stroke-linecap: round"/>
    <path d="M 565.92759 112.736143 
L 569.190102 109.054294 
L 570.178074 113.873413 
" style="fill: none; stroke: #808080; stroke-width: 1.5; stroke-linecap: round"/>
   </g>
   <g id="patch_42">
    <path d="M 608.369475 149.537611 
Q 617.783132 124.012676 626.616494 100.061195 
" style="fill: none; stroke: #808080; stroke-width: 1.5; stroke-linecap: round"/>
    <path d="M 623.029905 103.428149 
L 626.616494 100.061195 
L 627.158104 104.950638 
" style="fill: none; stroke: #808080; stroke-width: 1.5; stroke-linecap: round"/>
   </g>
   <g id="patch_43">
    <path d="M 666.319104 131.113478 
Q 675.530257 112.719099 683.9905 95.824265 
" style="fill: none; stroke: #808080; stroke-width: 1.5; stroke-linecap: round"/>
    <path d="M 680.053229 98.773485 
L 683.9905 95.824265 
L 683.987514 100.743613 
" style="fill: none; stroke: #808080; stroke-width: 1.5; stroke-linecap: round"/>
   </g>
   <g id="patch_44">
    <path d="M 723.85177 145.090196 
Q 733.277337 119.014915 742.132794 94.516807 
" style="fill: none; stroke: #808080; stroke-width: 1.5; stroke-linecap: round"/>
    <path d="M 738.568048 97.906879 
L 742.132794 94.516807 
L 742.706004 99.402647 
" style="fill: none; stroke: #808080; stroke-width: 1.5; stroke-linecap: round"/>
   </g>
   <g id="patch_45">
    <path d="M 781.611422 156.573161 
Q 791.025079 131.048226 799.858441 107.096745 
" style="fill: none; stroke: #808080; stroke-width: 1.5; stroke-linecap: round"/>
    <path d="M 796.271852 110.463699 
L 799.858441 107.096745 
L 800.400051 111.986188 
" style="fill: none; stroke: #808080; stroke-width: 1.5; stroke-linecap: round"/>
   </g>
   <g id="text_22">
    <!-- Figure 3: Prior → Posterior Learning -->
    <g style="fill: #262626" transform="translate(340.142109 16.620937) scale(0.13 -0.13)">
     <defs>
      <path id="LiberationSans-46" d="M 1122 3916 
L 1122 2278 
L 3578 2278 
L 3578 1784 
L 1122 1784 
L 1122 0 
L 525 0 
L 525 4403 
L 3653 4403 
L 3653 3916 
L 1122 3916 
z
" transform="scale(0.015625)"/>
      <path id="LiberationSans-67" d="M 1713 -1328 
Q 1159 -1328 831 -1111 
Q 503 -894 409 -494 
L 975 -413 
Q 1031 -647 1223 -773 
Q 1416 -900 1728 -900 
Q 2569 -900 2569 84 
L 2569 628 
L 2563 628 
Q 2403 303 2125 139 
Q 1847 -25 1475 -25 
Q 853 -25 561 387 
Q 269 800 269 1684 
Q 269 2581 583 3007 
Q 897 3434 1538 3434 
Q 1897 3434 2161 3270 
Q 2425 3106 2569 2803 
L 2575 2803 
Q 2575 2897 2587 3128 
Q 2600 3359 2613 3381 
L 3147 3381 
Q 3128 3213 3128 2681 
L 3128 97 
Q 3128 -1328 1713 -1328 
z
M 2569 1691 
Q 2569 2103 2456 2401 
Q 2344 2700 2139 2858 
Q 1934 3016 1675 3016 
Q 1244 3016 1047 2703 
Q 850 2391 850 1691 
Q 850 997 1034 694 
Q 1219 391 1666 391 
Q 1931 391 2137 547 
Q 2344 703 2456 995 
Q 2569 1288 2569 1691 
z
" transform="scale(0.015625)"/>
      <path id="LiberationSans-33" d="M 3278 1216 
Q 3278 606 2890 271 
Q 2503 -63 1784 -63 
Q 1116 -63 717 239 
Q 319 541 244 1131 
L 825 1184 
Q 938 403 1784 403 
Q 2209 403 2451 612 
Q 2694 822 2694 1234 
Q 2694 1594 2417 1795 
Q 2141 1997 1619 1997 
L 1300 1997 
L 1300 2484 
L 1606 2484 
Q 2069 2484 2323 2686 
Q 2578 2888 2578 3244 
Q 2578 3597 2370 3801 
Q 2163 4006 1753 4006 
Q 1381 4006 1151 3815 
Q 922 3625 884 3278 
L 319 3322 
Q 381 3863 767 4166 
Q 1153 4469 1759 4469 
Q 2422 4469 2789 4161 
Q 3156 3853 3156 3303 
Q 3156 2881 2920 2617 
Q 2684 2353 2234 2259 
L 2234 2247 
Q 2728 2194 3003 1916 
Q 3278 1638 3278 1216 
z
" transform="scale(0.015625)"/>
      <path id="LiberationSans-3a" d="M 584 2734 
L 584 3381 
L 1194 3381 
L 1194 2734 
L 584 2734 
z
M 584 0 
L 584 647 
L 1194 647 
L 1194 0 
L 584 0 
z
" transform="scale(0.015625)"/>
      <path id="LiberationSans-2192" d="M 4397 1197 
Q 4219 1406 4025 1813 
L 4250 1813 
Q 4647 1347 5094 1119 
L 5094 1006 
Q 4647 778 4250 313 
L 4025 313 
Q 4219 719 4397 928 
L 1306 928 
L 1306 1197 
L 4397 1197 
z
" transform="scale(0.015625)"/>
      <path id="LiberationSans-6e" d="M 2578 0 
L 2578 2144 
Q 2578 2478 2512 2662 
Q 2447 2847 2303 2928 
Q 2159 3009 1881 3009 
Q 1475 3009 1240 2731 
Q 1006 2453 1006 1959 
L 1006 0 
L 444 0 
L 444 2659 
Q 444 3250 425 3381 
L 956 3381 
Q 959 3366 962 3297 
Q 966 3228 970 3139 
Q 975 3050 981 2803 
L 991 2803 
Q 1184 3153 1439 3298 
Q 1694 3444 2072 3444 
Q 2628 3444 2886 3167 
Q 3144 2891 3144 2253 
L 3144 0 
L 2578 0 
z
" transform="scale(0.015625)"/>
     </defs>
     <use xlink:href="#LiberationSans-46"/>
     <use xlink:href="#LiberationSans-69" transform="translate(61.083984 0)"/>
     <use xlink:href="#LiberationSans-67" transform="translate(83.300781 0)"/>
     <use xlink:href="#LiberationSans-75" transform="translate(138.916016 0)"/>
     <use xlink:href="#LiberationSans-72" transform="translate(194.53125 0)"/>
     <use xlink:href="#LiberationSans-65" transform="translate(227.832031 0)"/>
     <use xlink:href="#LiberationSans-20" transform="translate(283.447266 0)"/>
     <use xlink:href="#LiberationSans-33" transform="translate(311.230469 0)"/>
     <use xlink:href="#LiberationSans-3a" transform="translate(366.845703 0)"/>
     <use xlink:href="#LiberationSans-20" transform="translate(394.628906 0)"/>
     <use xlink:href="#LiberationSans-50" transform="translate(422.412109 0)"/>
     <use xlink:href="#LiberationSans-72" transform="translate(489.111328 0)"/>
     <use xlink:href="#LiberationSans-69" transform="translate(522.412109 0)"/>
     <use xlink:href="#LiberationSans-6f" transform="translate(544.628906 0)"/>
     <use xlink:href="#LiberationSans-72" transform="translate(600.244141 0)"/>
     <use xlink:href="#LiberationSans-20" transform="translate(633.544922 0)"/>
     <use xlink:href="#LiberationSans-2192" transform="translate(661.328125 0)"/>
     <use xlink:href="#LiberationSans-20" transform="translate(761.328125 0)"/>
     <use xlink:href="#LiberationSans-50" transform="translate(789.111328 0)"/>
     <use xlink:href="#LiberationSans-6f" transform="translate(855.810547 0)"/>
     <use xlink:href="#LiberationSans-73" transform="translate(911.425781 0)"/>
     <use xlink:href="#LiberationSans-74" transform="translate(961.425781 0)"/>
     <use xlink:href="#LiberationSans-65" transform="translate(989.208984 0)"/>
     <use xlink:href="#LiberationSans-72" transform="translate(1044.824219 0)"/>
     <use xlink:href="#LiberationSans-69" transform="translate(1078.125 0)"/>
     <use xlink:href="#LiberationSans-6f" transform="translate(1100.341797 0)"/>
     <use xlink:href="#LiberationSans-72" transform="translate(1155.957031 0)"/>
     <use xlink:href="#LiberationSans-20" transform="translate(1189.257812 0)"/>
     <use xlink:href="#LiberationSans-4c" transform="translate(1217.041016 0)"/>
     <use xlink:href="#LiberationSans-65" transform="translate(1272.65625 0)"/>
     <use xlink:href="#LiberationSans-61" transform="translate(1328.271484 0)"/>
     <use xlink:href="#LiberationSans-72" transform="translate(1383.886719 0)"/>
     <use xlink:href="#LiberationSans-6e" transform="translate(1417.1875 0)"/>
     <use xlink:href="#LiberationSans-69" transform="translate(1472.802734 0)"/>
     <use xlink:href="#LiberationSans-6e" transform="translate(1495.019531 0)"/>
     <use xlink:href="#LiberationSans-67" transform="translate(1550.634766 0)"/>
    </g>
    <!-- (Uncertainty shown as confidence: 1 - uncertainty) -->
    <g style="fill: #262626" transform="translate(300.037109 30.623562) scale(0.13 -0.13)">
     <defs>
      <path id="LiberationSans-79" d="M 597 -1328 
Q 366 -1328 209 -1294 
L 209 -872 
Q 328 -891 472 -891 
Q 997 -891 1303 -119 
L 1356 16 
L 16 3381 
L 616 3381 
L 1328 1513 
Q 1344 1469 1366 1408 
Q 1388 1347 1506 1000 
Q 1625 653 1634 613 
L 1853 1228 
L 2594 3381 
L 3188 3381 
L 1888 0 
Q 1678 -541 1497 -805 
Q 1316 -1069 1095 -1198 
Q 875 -1328 597 -1328 
z
" transform="scale(0.015625)"/>
      <path id="LiberationSans-68" d="M 991 2803 
Q 1172 3134 1426 3289 
Q 1681 3444 2072 3444 
Q 2622 3444 2883 3170 
Q 3144 2897 3144 2253 
L 3144 0 
L 2578 0 
L 2578 2144 
Q 2578 2500 2512 2673 
Q 2447 2847 2297 2928 
Q 2147 3009 1881 3009 
Q 1484 3009 1245 2734 
Q 1006 2459 1006 1994 
L 1006 0 
L 444 0 
L 444 4638 
L 1006 4638 
L 1006 3431 
Q 1006 3241 995 3037 
Q 984 2834 981 2803 
L 991 2803 
z
" transform="scale(0.015625)"/>
      <path id="LiberationSans-77" d="M 3669 0 
L 3016 0 
L 2425 2391 
L 2313 2919 
Q 2284 2778 2225 2514 
Q 2166 2250 1588 0 
L 938 0 
L -9 3381 
L 547 3381 
L 1119 1084 
Q 1141 1009 1253 466 
L 1306 697 
L 2013 3381 
L 2616 3381 
L 3206 1059 
L 3350 466 
L 3447 900 
L 4088 3381 
L 4638 3381 
L 3669 0 
z
" transform="scale(0.015625)"/>
      <path id="LiberationSans-66" d="M 1128 2972 
L 1128 0 
L 566 0 
L 566 2972 
L 91 2972 
L 91 3381 
L 566 3381 
L 566 3763 
Q 566 4225 769 4428 
Q 972 4631 1391 4631 
Q 1625 4631 1788 4594 
L 1788 4166 
Q 1647 4191 1538 4191 
Q 1322 4191 1225 4081 
Q 1128 3972 1128 3684 
L 1128 3381 
L 1788 3381 
L 1788 2972 
L 1128 2972 
z
" transform="scale(0.015625)"/>
      <path id="LiberationSans-64" d="M 2566 544 
Q 2409 219 2151 78 
Q 1894 -63 1513 -63 
Q 872 -63 570 368 
Q 269 800 269 1675 
Q 269 3444 1513 3444 
Q 1897 3444 2153 3303 
Q 2409 3163 2566 2856 
L 2572 2856 
L 2566 3234 
L 2566 4638 
L 3128 4638 
L 3128 697 
Q 3128 169 3147 0 
L 2609 0 
Q 2600 50 2589 231 
Q 2578 413 2578 544 
L 2566 544 
z
M 859 1694 
Q 859 984 1046 678 
Q 1234 372 1656 372 
Q 2134 372 2350 703 
Q 2566 1034 2566 1731 
Q 2566 2403 2350 2715 
Q 2134 3028 1663 3028 
Q 1238 3028 1048 2714 
Q 859 2400 859 1694 
z
" transform="scale(0.015625)"/>
     </defs>
     <use xlink:href="#LiberationSans-28"/>
     <use xlink:href="#LiberationSans-55" transform="translate(33.300781 0)"/>
     <use xlink:href="#LiberationSans-6e" transform="translate(105.517578 0)"/>
     <use xlink:href="#LiberationSans-63" transform="translate(161.132812 0)"/>
     <use xlink:href="#LiberationSans-65" transform="translate(211.132812 0)"/>
     <use xlink:href="#LiberationSans-72" transform="translate(266.748047 0)"/>
     <use xlink:href="#LiberationSans-74" transform="translate(300.048828 0)"/>
     <use xlink:href="#LiberationSans-61" transform="translate(327.832031 0)"/>
     <use xlink:href="#LiberationSans-69" transform="translate(383.447266 0)"/>
     <use xlink:href="#LiberationSans-6e" transform="translate(405.664062 0)"/>
     <use xlink:href="#LiberationSans-74" transform="translate(461.279297 0)"/>
     <use xlink:href="#LiberationSans-79" transform="translate(489.0625 0)"/>
     <use xlink:href="#LiberationSans-20" transform="translate(539.0625 0)"/>
     <use xlink:href="#LiberationSans-73" transform="translate(566.845703 0)"/>
     <use xlink:href="#LiberationSans-68" transform="translate(616.845703 0)"/>
     <use xlink:href="#LiberationSans-6f" transform="translate(672.460938 0)"/>
     <use xlink:href="#LiberationSans-77" transform="translate(728.076172 0)"/>
     <use xlink:href="#LiberationSans-6e" transform="translate(800.292969 0)"/>
     <use xlink:href="#LiberationSans-20" transform="translate(855.908203 0)"/>
     <use xlink:href="#LiberationSans-61" transform="translate(883.691406 0)"/>
     <use xlink:href="#LiberationSans-73" transform="translate(939.306641 0)"/>
     <use xlink:href="#LiberationSans-20" transform="translate(989.306641 0)"/>
     <use xlink:href="#LiberationSans-63" transform="translate(1017.089844 0)"/>
     <use xlink:href="#LiberationSans-6f" transform="translate(1067.089844 0)"/>
     <use xlink:href="#LiberationSans-6e" transform="translate(1122.705078 0)"/>
     <use xlink:href="#LiberationSans-66" transform="translate(1178.320312 0)"/>
     <use xlink:href="#LiberationSans-69" transform="translate(1206.103516 0)"/>
     <use xlink:href="#LiberationSans-64" transform="translate(1228.320312 0)"/>
     <use xlink:href="#LiberationSans-65" transform="translate(1283.935547 0)"/>
     <use xlink:href="#LiberationSans-6e" transform="translate(1339.550781 0)"/>
     <use xlink:href="#LiberationSans-63" transform="translate(1395.166016 0)"/>
     <use xlink:href="#LiberationSans-65" transform="translate(1445.166016 0)"/>
     <use xlink:href="#LiberationSans-3a" transform="translate(1500.78125 0)"/>
     <use xlink:href="#LiberationSans-20" transform="translate(1528.564453 0)"/>
     <use xlink:href="#LiberationSans-31" transform="translate(1556.347656 0)"/>
     <use xlink:href="#LiberationSans-20" transform="translate(1611.962891 0)"/>
     <use xlink:href="#LiberationSans-2d" transform="translate(1639.746094 0)"/>
     <use xlink:href="#LiberationSans-20" transform="translate(1673.046875 0)"/>
     <use xlink:href="#LiberationSans-75" transform="translate(1700.830078 0)"/>
     <use xlink:href="#LiberationSans-6e" transform="translate(1756.445312 0)"/>
     <use xlink:href="#LiberationSans-63" transform="translate(1812.060547 0)"/>
     <use xlink:href="#LiberationSans-65" transform="translate(1862.060547 0)"/>
     <use xlink:href="#LiberationSans-72" transform="translate(1917.675781 0)"/>
     <use xlink:href="#LiberationSans-74" transform="translate(1950.976562 0)"/>
     <use xlink:href="#LiberationSans-61" transform="translate(1978.759766 0)"/>
     <use xlink:href="#LiberationSans-69" transform="translate(2034.375 0)"/>
     <use xlink:href="#LiberationSans-6e" transform="translate(2056.591797 0)"/>
     <use xlink:href="#LiberationSans-74" transform="translate(2112.207031 0)"/>
     <use xlink:href="#LiberationSans-79" transform="translate(2139.990234 0)"/>
     <use xlink:href="#LiberationSans-29" transform="translate(2189.990234 0)"/>
    </g>
   </g>
   <g id="legend_1">
    <g id="patch_46">
     <path d="M 51.07625 54.495125 
L 73.07625 54.495125 
L 73.07625 46.795125 
L 51.07625 46.795125 
z
" style="fill: #3498db; opacity: 0.7; stroke: #000000; stroke-width: 0.5; stroke-linejoin: miter"/>
    </g>
    <g id="text_23">
     <!-- Prior (PREFLIGHT) -->
     <g style="fill: #262626" transform="translate(81.87625 54.495125) scale(0.11 -0.11)">
      <use xlink:href="#LiberationSans-50"/>
      <use xlink:href="#LiberationSans-72" transform="translate(66.699219 0)"/>
      <use xlink:href="#LiberationSans-69" transform="translate(100 0)"/>
      <use xlink:href="#LiberationSans-6f" transform="translate(122.216797 0)"/>
      <use xlink:href="#LiberationSans-72" transform="translate(177.832031 0)"/>
      <use xlink:href="#LiberationSans-20" transform="translate(211.132812 0)"/>
      <use xlink:href="#LiberationSans-28" transform="translate(238.916016 0)"/>
      <use xlink:href="#LiberationSans-50" transform="translate(272.216797 0)"/>
      <use xlink:href="#LiberationSans-52" transform="translate(338.916016 0)"/>
      <use xlink:href="#LiberationSans-45" transform="translate(411.132812 0)"/>
      <use xlink:href="#LiberationSans-46" transform="translate(477.832031 0)"/>
      <use xlink:href="#LiberationSans-4c" transform="translate(538.916016 0)"/>
      <use xlink:href="#LiberationSans-49" transform="translate(594.53125 0)"/>
      <use xlink:href="#LiberationSans-47" transform="translate(622.314453 0)"/>
      <use xlink:href="#LiberationSans-48" transform="translate(700.097656 0)"/>
      <use xlink:href="#LiberationSans-54" transform="translate(772.314453 0)"/>
      <use xlink:href="#LiberationSans-29" transform="translate(833.398438 0)"/>
     </g>
    </g>
    <g id="patch_47">
     <path d="M 51.07625 70.249188 
L 73.07625 70.249188 
L 73.07625 62.549188 
L 51.07625 62.549188 
z
" style="fill: #2ecc71; opacity: 0.7; stroke: #000000; stroke-width: 0.5; stroke-linejoin: miter"/>
    </g>
    <g id="text_24">
     <!-- Posterior (POSTFLIGHT) -->
     <g style="fill: #262626" transform="translate(81.87625 70.249188) scale(0.11 -0.11)">
      <use xlink:href="#LiberationSans-50"/>
      <use xlink:href="#LiberationSans-6f" transform="translate(66.699219 0)"/>
      <use xlink:href="#LiberationSans-73" transform="translate(122.314453 0)"/>
      <use xlink:href="#LiberationSans-74" transform="translate(172.314453 0)"/>
      <use xlink:href="#LiberationSans-65" transform="translate(200.097656 0)"/>
      <use xlink:href="#LiberationSans-72" transform="translate(255.712891 0)"/>
      <use xlink:href="#LiberationSans-69" transform="translate(289.013672 0)"/>
      <use xlink:href="#LiberationSans-6f" transform="translate(311.230469 0)"/>
      <use xlink:href="#LiberationSans-72" transform="translate(366.845703 0)"/>
      <use xlink:href="#LiberationSans-20" transform="translate(400.146484 0)"/>
      <use xlink:href="#LiberationSans-28" transform="translate(427.929688 0)"/>
      <use xlink:href="#LiberationSans-50" transform="translate(461.230469 0)"/>
      <use xlink:href="#LiberationSans-4f" transform="translate(527.929688 0)"/>
      <use xlink:href="#LiberationSans-53" transform="translate(605.712891 0)"/>
      <use xlink:href="#LiberationSans-54" transform="translate(672.412109 0)"/>
      <use xlink:href="#LiberationSans-46" transform="translate(733.496094 0)"/>
      <use xlink:href="#LiberationSans-4c" transform="translate(794.580078 0)"/>
      <use xlink:href="#LiberationSans-49" transform="translate(850.195312 0)"/>
      <use xlink:href="#LiberationSans-47" transform="translate(877.978516 0)"/>
      <use xlink:href="#LiberationSans-48" transform="translate(955.761719 0)"/>
      <use xlink:href="#LiberationSans-54" transform="translate(1027.978516 0)"/>
      <use xlink:href="#LiberationSans-29" transform="translate(1089.0625 0)"/>
     </g>
    </g>
   </g>
  </g>
 </g>
 <defs>
  <clipPath id="p065267a132">
   <rect x="41.17625" y="36.623562" width="806.73" height="370.292101"/>
  </clipPath>
 </defs>
 <defs>
  <pattern id="h0d9269d8ce" patternUnits="userSpaceOnUse" x="0" y="0" width="72" height="72">
   <rect x="0" y="0" width="73" height="73" fill="#3498db"/>
   <path d="M -36 36 
L 36 -36 
M -32 40 
L 40 -32 
M -28 44 
L 44 -28 
M -24 48 
L 48 -24 
M -20 52 
L 52 -20 
M -16 56 
L 56 -16 
M -12 60 
L 60 -12 
M -8 64 
L 64 -8 
M -4 68 
L 68 -4 
M 0 72 
L 72 0 
M 4 76 
L 76 4 
M 8 80 
L 80 8 
M 12 84 
L 84 12 
M 16 88 
L 88 16 
M 20 92 
L 92 20 
M 24 96 
L 96 24 
M 28 100 
L 100 28 
M 32 104 
L 104 32 
M 36 108 
L 108 36 
" style="fill: #000000; stroke: #000000; stroke-width: 1.0; stroke-linecap: butt; stroke-linejoin: miter; stroke-opacity: 0.7"/>
  </pattern>
  <pattern id="hb5d0bfb25e" patternUnits="userSpaceOnUse" x="0" y="0" width="72" height="72">
   <rect x="0" y="0" width="73" height="73" fill="#2ecc71"/>
   <path d="M -36 36 
L 36 -36 
M -32 40 
L 40 -32 
M -28 44 
L 44 -28 
M -24 48 
L 48 -24 
M -20 52 
L 52 -20 
M -16 56 
L 56 -16 
M -12 60 
L 60 -12 
M -8 64 
L 64 -8 
M -4 68 
L 68 -4 
M 0 72 
L 72 0 
M 4 76 
L 76 4 
M 8 80 
L 80 8 
M 12 84 
L 84 12 
M 16 88 
L 88 16 
M 20 92 
L 92 20 
M 24 96 
L 96 24 
M 28 100 
L 100 28 
M 32 104 
L 104 32 
M 36 108 
L 108 36 
" style="fill: #000000; stroke: #000000; stroke-width: 1.0; stroke-linecap: butt; stroke-linejoin: miter; stroke-opacity: 0.7"/>
  </pattern>
 </defs>
</svg>
