<?xml version="1.0" encoding="utf-8" standalone="no"?>
<!DOCTYPE svg PUBLIC "-//W3C//DTD SVG 1.1//EN"
  "http://www.w3.org/Graphics/SVG/1.1/DTD/svg11.dtd">
<svg xmlns:xlink="http://www.w3.org/1999/xlink" width="565.97125pt" height="351.579906pt" viewBox="0 0 565.97125 351.579906" xmlns="http://www.w3.org/2000/svg" version="1.1">
 <metadata>
  <rdf:RDF xmlns:dc="http://purl.org/dc/elements/1.1/" xmlns:cc="http://creativecommons.org/ns#" xmlns:rdf="http://www.w3.org/1999/02/22-rdf-syntax-ns#">
   <cc:Work>
    <dc:type rdf:resource="http://purl.org/dc/dcmitype/StillImage"/>
    <dc:date>2026-01-07T21:56:29.914800</dc:date>
    <dc:format>image/svg+xml</dc:format>
    <dc:creator>
     <cc:Agent>
      <dc:title>Matplotlib v3.10.8, https://matplotlib.org/</dc:title>
     </cc:Agent>
    </dc:creator>
   </cc:Work>
  </rdf:RDF>
 </metadata>
 <defs>
  <style type="text/css">*{stroke-linejoin: round; stroke-linecap: butt}</style>
 </defs>
 <g id="figure_1">
  <g id="patch_1">
   <path d="M 0 351.579906 
L 565.97125 351.579906 
L 565.97125 0 
L 0 0 
z
" style="fill: #ffffff"/>
  </g>
  <g id="axes_1">
   <g id="patch_2">
    <path d="M 40.31125 317.759969 
L 558.77125 317.759969 
L 558.77125 37.819969 
L 40.31125 37.819969 
z
" style="fill: #ffffff"/>
   </g>
   <g id="matplotlib.axis_1">
    <g id="xtick_1">
     <g id="line2d_1">
      <path d="M 152.251477 317.759969 
L 152.251477 37.819969 
" clip-path="url(#p2a672d7a3b)" style="fill: none; stroke: #cccccc; stroke-width: 0.8; stroke-linecap: round"/>
     </g>
     <g id="line2d_2"/>
     <g id="text_1">
      <!-- Capability Vectors -->
      <g style="fill: #262626" transform="translate(101.321477 329.61825) scale(0.11 -0.11)">
       <defs>
        <path id="DejaVuSerif-43" d="M 4513 1234 
Q 4306 581 3820 245 
Q 3334 -91 2591 -91 
Q 2134 -91 1743 65 
Q 1353 222 1050 525 
Q 700 875 529 1320 
Q 359 1766 359 2328 
Q 359 3416 987 4083 
Q 1616 4750 2644 4750 
Q 3025 4750 3456 4650 
Q 3888 4550 4384 4347 
L 4384 3272 
L 4031 3272 
Q 3916 3859 3567 4137 
Q 3219 4416 2591 4416 
Q 1844 4416 1459 3886 
Q 1075 3356 1075 2328 
Q 1075 1303 1459 773 
Q 1844 244 2591 244 
Q 3113 244 3450 492 
Q 3788 741 3938 1234 
L 4513 1234 
z
" transform="scale(0.015625)"/>
        <path id="DejaVuSerif-61" d="M 2547 1044 
L 2547 1747 
L 1806 1747 
Q 1378 1747 1168 1562 
Q 959 1378 959 997 
Q 959 650 1171 447 
Q 1384 244 1747 244 
Q 2106 244 2326 466 
Q 2547 688 2547 1044 
z
M 3122 2075 
L 3122 331 
L 3634 331 
L 3634 0 
L 2547 0 
L 2547 359 
Q 2356 128 2106 18 
Q 1856 -91 1522 -91 
Q 969 -91 644 203 
Q 319 497 319 997 
Q 319 1513 691 1797 
Q 1063 2081 1741 2081 
L 2547 2081 
L 2547 2309 
Q 2547 2688 2317 2895 
Q 2088 3103 1672 3103 
Q 1328 3103 1125 2947 
Q 922 2791 872 2484 
L 575 2484 
L 575 3156 
Q 875 3284 1158 3348 
Q 1441 3413 1709 3413 
Q 2400 3413 2761 3070 
Q 3122 2728 3122 2075 
z
" transform="scale(0.015625)"/>
        <path id="DejaVuSerif-70" d="M 1313 1825 
L 1313 1497 
Q 1313 897 1542 583 
Q 1772 269 2209 269 
Q 2650 269 2876 622 
Q 3103 975 3103 1663 
Q 3103 2353 2876 2703 
Q 2650 3053 2209 3053 
Q 1772 3053 1542 2737 
Q 1313 2422 1313 1825 
z
M 738 2988 
L 184 2988 
L 184 3322 
L 1313 3322 
L 1313 2803 
Q 1481 3116 1742 3264 
Q 2003 3413 2388 3413 
Q 3000 3413 3387 2928 
Q 3775 2444 3775 1663 
Q 3775 881 3387 395 
Q 3000 -91 2388 -91 
Q 2003 -91 1742 57 
Q 1481 206 1313 519 
L 1313 -997 
L 1856 -997 
L 1856 -1331 
L 184 -1331 
L 184 -997 
L 738 -997 
L 738 2988 
z
" transform="scale(0.015625)"/>
        <path id="DejaVuSerif-62" d="M 738 331 
L 738 4531 
L 184 4531 
L 184 4863 
L 1313 4863 
L 1313 2803 
Q 1481 3116 1742 3264 
Q 2003 3413 2388 3413 
Q 3000 3413 3387 2928 
Q 3775 2444 3775 1663 
Q 3775 881 3387 395 
Q 3000 -91 2388 -91 
Q 2003 -91 1742 57 
Q 1481 206 1313 519 
L 1313 0 
L 184 0 
L 184 331 
L 738 331 
z
M 1313 1497 
Q 1313 897 1542 583 
Q 1772 269 2209 269 
Q 2650 269 2876 622 
Q 3103 975 3103 1663 
Q 3103 2353 2876 2703 
Q 2650 3053 2209 3053 
Q 1772 3053 1542 2737 
Q 1313 2422 1313 1825 
L 1313 1497 
z
" transform="scale(0.015625)"/>
        <path id="DejaVuSerif-69" d="M 622 4353 
Q 622 4497 726 4603 
Q 831 4709 978 4709 
Q 1122 4709 1226 4603 
Q 1331 4497 1331 4353 
Q 1331 4206 1228 4103 
Q 1125 4000 978 4000 
Q 831 4000 726 4103 
Q 622 4206 622 4353 
z
M 1356 331 
L 1900 331 
L 1900 0 
L 231 0 
L 231 331 
L 781 331 
L 781 2988 
L 231 2988 
L 231 3322 
L 1356 3322 
L 1356 331 
z
" transform="scale(0.015625)"/>
        <path id="DejaVuSerif-6c" d="M 1313 331 
L 1856 331 
L 1856 0 
L 184 0 
L 184 331 
L 738 331 
L 738 4531 
L 184 4531 
L 184 4863 
L 1313 4863 
L 1313 331 
z
" transform="scale(0.015625)"/>
        <path id="DejaVuSerif-74" d="M 691 2988 
L 184 2988 
L 184 3322 
L 691 3322 
L 691 4353 
L 1269 4353 
L 1269 3322 
L 2350 3322 
L 2350 2988 
L 1269 2988 
L 1269 878 
Q 1269 456 1350 337 
Q 1431 219 1650 219 
Q 1875 219 1978 351 
Q 2081 484 2088 781 
L 2522 781 
Q 2497 328 2275 118 
Q 2053 -91 1600 -91 
Q 1103 -91 897 129 
Q 691 350 691 878 
L 691 2988 
z
" transform="scale(0.015625)"/>
        <path id="DejaVuSerif-79" d="M 1381 -609 
L 1600 -56 
L 359 2988 
L -19 2988 
L -19 3322 
L 1509 3322 
L 1509 2988 
L 978 2988 
L 1913 703 
L 2847 2988 
L 2350 2988 
L 2350 3322 
L 3597 3322 
L 3597 2988 
L 3225 2988 
L 1703 -750 
Q 1547 -1138 1356 -1280 
Q 1166 -1422 819 -1422 
Q 672 -1422 517 -1397 
Q 363 -1372 206 -1325 
L 206 -691 
L 500 -691 
Q 519 -903 608 -995 
Q 697 -1088 884 -1088 
Q 1056 -1088 1161 -992 
Q 1266 -897 1381 -609 
z
" transform="scale(0.015625)"/>
        <path id="DejaVuSerif-20" transform="scale(0.015625)"/>
        <path id="DejaVuSerif-56" d="M 1119 4331 
L 2497 750 
L 3872 4331 
L 3347 4331 
L 3347 4666 
L 4716 4666 
L 4716 4331 
L 4263 4331 
L 2597 0 
L 2059 0 
L 403 4331 
L -63 4331 
L -63 4666 
L 1638 4666 
L 1638 4331 
L 1119 4331 
z
" transform="scale(0.015625)"/>
        <path id="DejaVuSerif-65" d="M 3469 1600 
L 991 1600 
L 991 1575 
Q 991 903 1244 561 
Q 1497 219 1991 219 
Q 2369 219 2611 417 
Q 2853 616 2950 1006 
L 3413 1006 
Q 3275 459 2904 184 
Q 2534 -91 1931 -91 
Q 1203 -91 761 389 
Q 319 869 319 1663 
Q 319 2450 753 2931 
Q 1188 3413 1894 3413 
Q 2647 3413 3050 2948 
Q 3453 2484 3469 1600 
z
M 2791 1931 
Q 2772 2513 2545 2808 
Q 2319 3103 1894 3103 
Q 1497 3103 1269 2806 
Q 1041 2509 991 1931 
L 2791 1931 
z
" transform="scale(0.015625)"/>
        <path id="DejaVuSerif-63" d="M 3291 997 
Q 3169 466 2822 187 
Q 2475 -91 1925 -91 
Q 1200 -91 759 389 
Q 319 869 319 1663 
Q 319 2459 759 2936 
Q 1200 3413 1925 3413 
Q 2241 3413 2553 3339 
Q 2866 3266 3181 3116 
L 3181 2266 
L 2847 2266 
Q 2781 2703 2561 2903 
Q 2341 3103 1931 3103 
Q 1466 3103 1228 2742 
Q 991 2381 991 1663 
Q 991 944 1227 581 
Q 1463 219 1931 219 
Q 2303 219 2525 412 
Q 2747 606 2828 997 
L 3291 997 
z
" transform="scale(0.015625)"/>
        <path id="DejaVuSerif-6f" d="M 1925 219 
Q 2388 219 2623 584 
Q 2859 950 2859 1663 
Q 2859 2375 2623 2739 
Q 2388 3103 1925 3103 
Q 1463 3103 1227 2739 
Q 991 2375 991 1663 
Q 991 950 1228 584 
Q 1466 219 1925 219 
z
M 1925 -91 
Q 1200 -91 759 389 
Q 319 869 319 1663 
Q 319 2456 758 2934 
Q 1197 3413 1925 3413 
Q 2653 3413 3092 2934 
Q 3531 2456 3531 1663 
Q 3531 869 3092 389 
Q 2653 -91 1925 -91 
z
" transform="scale(0.015625)"/>
        <path id="DejaVuSerif-72" d="M 3059 3328 
L 3059 2497 
L 2728 2497 
Q 2713 2744 2591 2866 
Q 2469 2988 2234 2988 
Q 1809 2988 1582 2694 
Q 1356 2400 1356 1850 
L 1356 331 
L 2022 331 
L 2022 0 
L 263 0 
L 263 331 
L 781 331 
L 781 2994 
L 231 2994 
L 231 3322 
L 1356 3322 
L 1356 2731 
Q 1525 3078 1790 3245 
Q 2056 3413 2438 3413 
Q 2578 3413 2733 3391 
Q 2888 3369 3059 3328 
z
" transform="scale(0.015625)"/>
        <path id="DejaVuSerif-73" d="M 359 184 
L 359 959 
L 691 959 
Q 703 588 923 403 
Q 1144 219 1575 219 
Q 1963 219 2166 364 
Q 2369 509 2369 788 
Q 2369 1006 2220 1140 
Q 2072 1275 1594 1428 
L 1178 1569 
Q 750 1706 558 1912 
Q 366 2119 366 2438 
Q 366 2894 700 3153 
Q 1034 3413 1625 3413 
Q 1888 3413 2178 3344 
Q 2469 3275 2778 3144 
L 2778 2419 
L 2447 2419 
Q 2434 2741 2221 2922 
Q 2009 3103 1644 3103 
Q 1281 3103 1095 2975 
Q 909 2847 909 2591 
Q 909 2381 1050 2254 
Q 1191 2128 1613 1997 
L 2069 1856 
Q 2541 1709 2748 1489 
Q 2956 1269 2956 922 
Q 2956 450 2595 179 
Q 2234 -91 1600 -91 
Q 1278 -91 972 -22 
Q 666 47 359 184 
z
" transform="scale(0.015625)"/>
       </defs>
       <use xlink:href="#DejaVuSerif-43"/>
       <use xlink:href="#DejaVuSerif-61" transform="translate(76.513672 0)"/>
       <use xlink:href="#DejaVuSerif-70" transform="translate(136.132812 0)"/>
       <use xlink:href="#DejaVuSerif-61" transform="translate(200.146484 0)"/>
       <use xlink:href="#DejaVuSerif-62" transform="translate(259.765625 0)"/>
       <use xlink:href="#DejaVuSerif-69" transform="translate(323.779297 0)"/>
       <use xlink:href="#DejaVuSerif-6c" transform="translate(355.761719 0)"/>
       <use xlink:href="#DejaVuSerif-69" transform="translate(387.744141 0)"/>
       <use xlink:href="#DejaVuSerif-74" transform="translate(419.726562 0)"/>
       <use xlink:href="#DejaVuSerif-79" transform="translate(459.912109 0)"/>
       <use xlink:href="#DejaVuSerif-20" transform="translate(516.40625 0)"/>
       <use xlink:href="#DejaVuSerif-56" transform="translate(548.193359 0)"/>
       <use xlink:href="#DejaVuSerif-65" transform="translate(611.285156 0)"/>
       <use xlink:href="#DejaVuSerif-63" transform="translate(670.464844 0)"/>
       <use xlink:href="#DejaVuSerif-74" transform="translate(726.470703 0)"/>
       <use xlink:href="#DejaVuSerif-6f" transform="translate(766.65625 0)"/>
       <use xlink:href="#DejaVuSerif-72" transform="translate(826.861328 0)"/>
       <use xlink:href="#DejaVuSerif-73" transform="translate(874.664062 0)"/>
      </g>
      <!-- (12 vectors) -->
      <g style="fill: #262626" transform="translate(118.797727 342.09225) scale(0.11 -0.11)">
       <defs>
        <path id="DejaVuSerif-28" d="M 2041 -997 
Q 1281 -656 893 83 
Q 506 822 506 1931 
Q 506 3044 893 3783 
Q 1281 4522 2041 4863 
L 2041 4556 
Q 1559 4225 1350 3623 
Q 1141 3022 1141 1931 
Q 1141 844 1350 242 
Q 1559 -359 2041 -691 
L 2041 -997 
z
" transform="scale(0.015625)"/>
        <path id="DejaVuSerif-31" d="M 909 0 
L 909 331 
L 1722 331 
L 1722 4213 
L 781 3603 
L 781 4013 
L 1919 4750 
L 2350 4750 
L 2350 331 
L 3163 331 
L 3163 0 
L 909 0 
z
" transform="scale(0.015625)"/>
        <path id="DejaVuSerif-32" d="M 819 3553 
L 469 3553 
L 469 4384 
Q 803 4563 1142 4656 
Q 1481 4750 1806 4750 
Q 2534 4750 2956 4397 
Q 3378 4044 3378 3438 
Q 3378 2753 2422 1800 
Q 2347 1728 2309 1691 
L 1131 513 
L 3078 513 
L 3078 1088 
L 3444 1088 
L 3444 0 
L 434 0 
L 434 341 
L 1850 1753 
Q 2319 2222 2519 2614 
Q 2719 3006 2719 3438 
Q 2719 3909 2473 4175 
Q 2228 4441 1797 4441 
Q 1350 4441 1106 4219 
Q 863 3997 819 3553 
z
" transform="scale(0.015625)"/>
        <path id="DejaVuSerif-76" d="M 1581 0 
L 359 2988 
L -19 2988 
L -19 3322 
L 1509 3322 
L 1509 2988 
L 978 2988 
L 1913 703 
L 2847 2988 
L 2350 2988 
L 2350 3322 
L 3597 3322 
L 3597 2988 
L 3225 2988 
L 2003 0 
L 1581 0 
z
" transform="scale(0.015625)"/>
        <path id="DejaVuSerif-29" d="M 453 -997 
L 453 -691 
Q 934 -359 1145 242 
Q 1356 844 1356 1931 
Q 1356 3022 1145 3623 
Q 934 4225 453 4556 
L 453 4863 
Q 1216 4522 1603 3783 
Q 1991 3044 1991 1931 
Q 1991 822 1603 83 
Q 1216 -656 453 -997 
z
" transform="scale(0.015625)"/>
       </defs>
       <use xlink:href="#DejaVuSerif-28"/>
       <use xlink:href="#DejaVuSerif-31" transform="translate(39.013672 0)"/>
       <use xlink:href="#DejaVuSerif-32" transform="translate(102.636719 0)"/>
       <use xlink:href="#DejaVuSerif-20" transform="translate(166.259766 0)"/>
       <use xlink:href="#DejaVuSerif-76" transform="translate(198.046875 0)"/>
       <use xlink:href="#DejaVuSerif-65" transform="translate(254.541016 0)"/>
       <use xlink:href="#DejaVuSerif-63" transform="translate(313.720703 0)"/>
       <use xlink:href="#DejaVuSerif-74" transform="translate(369.726562 0)"/>
       <use xlink:href="#DejaVuSerif-6f" transform="translate(409.912109 0)"/>
       <use xlink:href="#DejaVuSerif-72" transform="translate(470.117188 0)"/>
       <use xlink:href="#DejaVuSerif-73" transform="translate(517.919922 0)"/>
       <use xlink:href="#DejaVuSerif-29" transform="translate(569.238281 0)"/>
      </g>
     </g>
    </g>
    <g id="xtick_2">
     <g id="line2d_3">
      <path d="M 446.831023 317.759969 
L 446.831023 37.819969 
" clip-path="url(#p2a672d7a3b)" style="fill: none; stroke: #cccccc; stroke-width: 0.8; stroke-linecap: round"/>
     </g>
     <g id="line2d_4"/>
     <g id="text_2">
      <!-- Uncertainty Vector -->
      <g style="fill: #262626" transform="translate(393.876335 329.461844) scale(0.11 -0.11)">
       <defs>
        <path id="DejaVuSerif-55" d="M 897 4331 
L 300 4331 
L 300 4666 
L 2125 4666 
L 2125 4331 
L 1528 4331 
L 1528 1919 
Q 1528 1025 1820 672 
Q 2113 319 2828 319 
Q 3544 319 3836 672 
Q 4128 1025 4128 1919 
L 4128 4331 
L 3531 4331 
L 3531 4666 
L 5106 4666 
L 5106 4331 
L 4513 4331 
L 4513 1856 
Q 4513 791 4103 350 
Q 3694 -91 2713 -91 
Q 1731 -91 1314 353 
Q 897 797 897 1856 
L 897 4331 
z
" transform="scale(0.015625)"/>
        <path id="DejaVuSerif-6e" d="M 263 0 
L 263 331 
L 781 331 
L 781 2988 
L 231 2988 
L 231 3322 
L 1356 3322 
L 1356 2731 
Q 1516 3069 1770 3241 
Q 2025 3413 2363 3413 
Q 2913 3413 3172 3097 
Q 3431 2781 3431 2113 
L 3431 331 
L 3944 331 
L 3944 0 
L 2356 0 
L 2356 331 
L 2853 331 
L 2853 1931 
Q 2853 2541 2703 2767 
Q 2553 2994 2175 2994 
Q 1775 2994 1565 2701 
Q 1356 2409 1356 1850 
L 1356 331 
L 1856 331 
L 1856 0 
L 263 0 
z
" transform="scale(0.015625)"/>
       </defs>
       <use xlink:href="#DejaVuSerif-55"/>
       <use xlink:href="#DejaVuSerif-6e" transform="translate(84.277344 0)"/>
       <use xlink:href="#DejaVuSerif-63" transform="translate(148.681641 0)"/>
       <use xlink:href="#DejaVuSerif-65" transform="translate(204.6875 0)"/>
       <use xlink:href="#DejaVuSerif-72" transform="translate(263.867188 0)"/>
       <use xlink:href="#DejaVuSerif-74" transform="translate(311.669922 0)"/>
       <use xlink:href="#DejaVuSerif-61" transform="translate(351.855469 0)"/>
       <use xlink:href="#DejaVuSerif-69" transform="translate(411.474609 0)"/>
       <use xlink:href="#DejaVuSerif-6e" transform="translate(443.457031 0)"/>
       <use xlink:href="#DejaVuSerif-74" transform="translate(507.861328 0)"/>
       <use xlink:href="#DejaVuSerif-79" transform="translate(548.046875 0)"/>
       <use xlink:href="#DejaVuSerif-20" transform="translate(604.541016 0)"/>
       <use xlink:href="#DejaVuSerif-56" transform="translate(636.328125 0)"/>
       <use xlink:href="#DejaVuSerif-65" transform="translate(699.419922 0)"/>
       <use xlink:href="#DejaVuSerif-63" transform="translate(758.599609 0)"/>
       <use xlink:href="#DejaVuSerif-74" transform="translate(814.605469 0)"/>
       <use xlink:href="#DejaVuSerif-6f" transform="translate(854.791016 0)"/>
       <use xlink:href="#DejaVuSerif-72" transform="translate(914.996094 0)"/>
      </g>
      <!-- (1 vector) -->
      <g style="fill: #262626" transform="translate(419.698835 341.935844) scale(0.11 -0.11)">
       <use xlink:href="#DejaVuSerif-28"/>
       <use xlink:href="#DejaVuSerif-31" transform="translate(39.013672 0)"/>
       <use xlink:href="#DejaVuSerif-20" transform="translate(102.636719 0)"/>
       <use xlink:href="#DejaVuSerif-76" transform="translate(134.423828 0)"/>
       <use xlink:href="#DejaVuSerif-65" transform="translate(190.917969 0)"/>
       <use xlink:href="#DejaVuSerif-63" transform="translate(250.097656 0)"/>
       <use xlink:href="#DejaVuSerif-74" transform="translate(306.103516 0)"/>
       <use xlink:href="#DejaVuSerif-6f" transform="translate(346.289062 0)"/>
       <use xlink:href="#DejaVuSerif-72" transform="translate(406.494141 0)"/>
       <use xlink:href="#DejaVuSerif-29" transform="translate(454.296875 0)"/>
      </g>
     </g>
    </g>
   </g>
   <g id="matplotlib.axis_2">
    <g id="ytick_1">
     <g id="line2d_5">
      <path d="M 40.31125 317.759969 
L 558.77125 317.759969 
" clip-path="url(#p2a672d7a3b)" style="fill: none; stroke: #cccccc; stroke-width: 0.8; stroke-linecap: round"/>
     </g>
     <g id="line2d_6"/>
     <g id="text_3">
      <!-- 0 -->
      <g style="fill: #262626" transform="translate(29.8125 321.939109) scale(0.11 -0.11)">
       <defs>
        <path id="DejaVuSerif-30" d="M 2034 219 
Q 2513 219 2750 744 
Q 2988 1269 2988 2328 
Q 2988 3391 2750 3916 
Q 2513 4441 2034 4441 
Q 1556 4441 1318 3916 
Q 1081 3391 1081 2328 
Q 1081 1269 1318 744 
Q 1556 219 2034 219 
z
M 2034 -91 
Q 1275 -91 848 546 
Q 422 1184 422 2328 
Q 422 3475 848 4112 
Q 1275 4750 2034 4750 
Q 2797 4750 3222 4112 
Q 3647 3475 3647 2328 
Q 3647 1184 3222 546 
Q 2797 -91 2034 -91 
z
" transform="scale(0.015625)"/>
       </defs>
       <use xlink:href="#DejaVuSerif-30"/>
      </g>
     </g>
    </g>
    <g id="ytick_2">
     <g id="line2d_7">
      <path d="M 40.31125 261.771969 
L 558.77125 261.771969 
" clip-path="url(#p2a672d7a3b)" style="fill: none; stroke: #cccccc; stroke-width: 0.8; stroke-linecap: round"/>
     </g>
     <g id="line2d_8"/>
     <g id="text_4">
      <!-- 3 -->
      <g style="fill: #262626" transform="translate(29.8125 265.951109) scale(0.11 -0.11)">
       <defs>
        <path id="DejaVuSerif-33" d="M 622 4469 
Q 988 4606 1323 4678 
Q 1659 4750 1953 4750 
Q 2638 4750 3022 4454 
Q 3406 4159 3406 3634 
Q 3406 3213 3140 2930 
Q 2875 2647 2388 2547 
Q 2963 2466 3280 2130 
Q 3597 1794 3597 1259 
Q 3597 606 3158 257 
Q 2719 -91 1894 -91 
Q 1528 -91 1179 -12 
Q 831 66 488 225 
L 488 1131 
L 838 1131 
Q 869 681 1141 450 
Q 1413 219 1906 219 
Q 2384 219 2661 495 
Q 2938 772 2938 1253 
Q 2938 1803 2653 2086 
Q 2369 2369 1819 2369 
L 1522 2369 
L 1522 2688 
L 1678 2688 
Q 2225 2688 2498 2914 
Q 2772 3141 2772 3597 
Q 2772 4006 2547 4223 
Q 2322 4441 1900 4441 
Q 1478 4441 1245 4241 
Q 1013 4041 972 3647 
L 622 3647 
L 622 4469 
z
" transform="scale(0.015625)"/>
       </defs>
       <use xlink:href="#DejaVuSerif-33"/>
      </g>
     </g>
    </g>
    <g id="ytick_3">
     <g id="line2d_9">
      <path d="M 40.31125 205.783969 
L 558.77125 205.783969 
" clip-path="url(#p2a672d7a3b)" style="fill: none; stroke: #cccccc; stroke-width: 0.8; stroke-linecap: round"/>
     </g>
     <g id="line2d_10"/>
     <g id="text_5">
      <!-- 6 -->
      <g style="fill: #262626" transform="translate(29.8125 209.963109) scale(0.11 -0.11)">
       <defs>
        <path id="DejaVuSerif-36" d="M 2094 219 
Q 2534 219 2771 542 
Q 3009 866 3009 1472 
Q 3009 2078 2771 2401 
Q 2534 2725 2094 2725 
Q 1647 2725 1412 2412 
Q 1178 2100 1178 1509 
Q 1178 888 1415 553 
Q 1653 219 2094 219 
z
M 1075 2569 
Q 1288 2803 1556 2918 
Q 1825 3034 2163 3034 
Q 2859 3034 3264 2615 
Q 3669 2197 3669 1472 
Q 3669 763 3233 336 
Q 2797 -91 2069 -91 
Q 1278 -91 853 498 
Q 428 1088 428 2181 
Q 428 3406 931 4078 
Q 1434 4750 2350 4750 
Q 2597 4750 2869 4703 
Q 3141 4656 3425 4563 
L 3425 3794 
L 3072 3794 
Q 3034 4109 2831 4275 
Q 2628 4441 2284 4441 
Q 1678 4441 1381 3981 
Q 1084 3522 1075 2569 
z
" transform="scale(0.015625)"/>
       </defs>
       <use xlink:href="#DejaVuSerif-36"/>
      </g>
     </g>
    </g>
    <g id="ytick_4">
     <g id="line2d_11">
      <path d="M 40.31125 149.795969 
L 558.77125 149.795969 
" clip-path="url(#p2a672d7a3b)" style="fill: none; stroke: #cccccc; stroke-width: 0.8; stroke-linecap: round"/>
     </g>
     <g id="line2d_12"/>
     <g id="text_6">
      <!-- 9 -->
      <g style="fill: #262626" transform="translate(29.8125 153.975109) scale(0.11 -0.11)">
       <defs>
        <path id="DejaVuSerif-39" d="M 2994 2091 
Q 2784 1856 2512 1740 
Q 2241 1625 1900 1625 
Q 1206 1625 804 2044 
Q 403 2463 403 3188 
Q 403 3897 839 4323 
Q 1275 4750 2003 4750 
Q 2794 4750 3217 4161 
Q 3641 3572 3641 2478 
Q 3641 1253 3137 581 
Q 2634 -91 1722 -91 
Q 1475 -91 1203 -44 
Q 931 3 647 97 
L 647 872 
L 997 872 
Q 1038 556 1241 387 
Q 1444 219 1784 219 
Q 2391 219 2687 676 
Q 2984 1134 2994 2091 
z
M 1978 4441 
Q 1534 4441 1298 4117 
Q 1063 3794 1063 3188 
Q 1063 2581 1298 2256 
Q 1534 1931 1978 1931 
Q 2422 1931 2658 2245 
Q 2894 2559 2894 3150 
Q 2894 3772 2656 4106 
Q 2419 4441 1978 4441 
z
" transform="scale(0.015625)"/>
       </defs>
       <use xlink:href="#DejaVuSerif-39"/>
      </g>
     </g>
    </g>
    <g id="ytick_5">
     <g id="line2d_13">
      <path d="M 40.31125 93.807969 
L 558.77125 93.807969 
" clip-path="url(#p2a672d7a3b)" style="fill: none; stroke: #cccccc; stroke-width: 0.8; stroke-linecap: round"/>
     </g>
     <g id="line2d_14"/>
     <g id="text_7">
      <!-- 12 -->
      <g style="fill: #262626" transform="translate(22.81375 97.987109) scale(0.11 -0.11)">
       <use xlink:href="#DejaVuSerif-31"/>
       <use xlink:href="#DejaVuSerif-32" transform="translate(63.623047 0)"/>
      </g>
     </g>
    </g>
    <g id="text_8">
     <!-- Number of Vectors -->
     <g style="fill: #262626" transform="translate(16.318125 235.167781) rotate(-90) scale(0.12 -0.12)">
      <defs>
       <path id="DejaVuSerif-4e" d="M 313 0 
L 313 331 
L 941 331 
L 941 4331 
L 313 4331 
L 313 4666 
L 1509 4666 
L 4306 984 
L 4306 4331 
L 3681 4331 
L 3681 4666 
L 5319 4666 
L 5319 4331 
L 4691 4331 
L 4691 -91 
L 4313 -91 
L 1325 3841 
L 1325 331 
L 1953 331 
L 1953 0 
L 313 0 
z
" transform="scale(0.015625)"/>
       <path id="DejaVuSerif-75" d="M 2266 3322 
L 3341 3322 
L 3341 331 
L 3884 331 
L 3884 0 
L 2766 0 
L 2766 588 
Q 2606 256 2353 82 
Q 2100 -91 1766 -91 
Q 1213 -91 952 223 
Q 691 538 691 1209 
L 691 2988 
L 172 2988 
L 172 3322 
L 1269 3322 
L 1269 1388 
Q 1269 781 1417 556 
Q 1566 331 1947 331 
Q 2347 331 2556 625 
Q 2766 919 2766 1478 
L 2766 2988 
L 2266 2988 
L 2266 3322 
z
" transform="scale(0.015625)"/>
       <path id="DejaVuSerif-6d" d="M 3316 2675 
Q 3481 3041 3739 3227 
Q 3997 3413 4341 3413 
Q 4863 3413 5119 3089 
Q 5375 2766 5375 2113 
L 5375 331 
L 5894 331 
L 5894 0 
L 4300 0 
L 4300 331 
L 4800 331 
L 4800 2047 
Q 4800 2556 4650 2772 
Q 4500 2988 4153 2988 
Q 3769 2988 3567 2697 
Q 3366 2406 3366 1850 
L 3366 331 
L 3866 331 
L 3866 0 
L 2291 0 
L 2291 331 
L 2791 331 
L 2791 2069 
Q 2791 2566 2641 2777 
Q 2491 2988 2144 2988 
Q 1759 2988 1557 2697 
Q 1356 2406 1356 1850 
L 1356 331 
L 1856 331 
L 1856 0 
L 263 0 
L 263 331 
L 781 331 
L 781 2994 
L 231 2994 
L 231 3322 
L 1356 3322 
L 1356 2731 
Q 1516 3063 1762 3238 
Q 2009 3413 2322 3413 
Q 2709 3413 2968 3220 
Q 3228 3028 3316 2675 
z
" transform="scale(0.015625)"/>
       <path id="DejaVuSerif-66" d="M 2753 4078 
L 2450 4078 
Q 2447 4313 2317 4434 
Q 2188 4556 1941 4556 
Q 1619 4556 1487 4379 
Q 1356 4203 1356 3750 
L 1356 3322 
L 2284 3322 
L 2284 2988 
L 1356 2988 
L 1356 331 
L 2094 331 
L 2094 0 
L 231 0 
L 231 331 
L 781 331 
L 781 2988 
L 231 2988 
L 231 3322 
L 781 3322 
L 781 3738 
Q 781 4294 1070 4578 
Q 1359 4863 1919 4863 
Q 2128 4863 2337 4825 
Q 2547 4788 2753 4709 
L 2753 4078 
z
" transform="scale(0.015625)"/>
      </defs>
      <use xlink:href="#DejaVuSerif-4e"/>
      <use xlink:href="#DejaVuSerif-75" transform="translate(87.5 0)"/>
      <use xlink:href="#DejaVuSerif-6d" transform="translate(151.904297 0)"/>
      <use xlink:href="#DejaVuSerif-62" transform="translate(246.728516 0)"/>
      <use xlink:href="#DejaVuSerif-65" transform="translate(310.742188 0)"/>
      <use xlink:href="#DejaVuSerif-72" transform="translate(369.921875 0)"/>
      <use xlink:href="#DejaVuSerif-20" transform="translate(417.724609 0)"/>
      <use xlink:href="#DejaVuSerif-6f" transform="translate(449.511719 0)"/>
      <use xlink:href="#DejaVuSerif-66" transform="translate(509.716797 0)"/>
      <use xlink:href="#DejaVuSerif-20" transform="translate(546.728516 0)"/>
      <use xlink:href="#DejaVuSerif-56" transform="translate(578.515625 0)"/>
      <use xlink:href="#DejaVuSerif-65" transform="translate(641.607422 0)"/>
      <use xlink:href="#DejaVuSerif-63" transform="translate(700.787109 0)"/>
      <use xlink:href="#DejaVuSerif-74" transform="translate(756.792969 0)"/>
      <use xlink:href="#DejaVuSerif-6f" transform="translate(796.978516 0)"/>
      <use xlink:href="#DejaVuSerif-72" transform="translate(857.183594 0)"/>
      <use xlink:href="#DejaVuSerif-73" transform="translate(904.986328 0)"/>
     </g>
    </g>
   </g>
   <g id="patch_3">
    <path d="M 63.877614 317.759969 
L 240.625341 317.759969 
L 240.625341 93.807969 
L 63.877614 93.807969 
z
" clip-path="url(#p2a672d7a3b)" style="fill: #2ecc71; stroke: #000000; stroke-width: 2; stroke-linejoin: miter"/>
   </g>
   <g id="patch_4">
    <path d="M 358.457159 317.759969 
L 535.204886 317.759969 
L 535.204886 299.097302 
L 358.457159 299.097302 
z
" clip-path="url(#p2a672d7a3b)" style="fill: #e74c3c; stroke: #000000; stroke-width: 2; stroke-linejoin: miter"/>
   </g>
   <g id="patch_5">
    <path d="M 40.31125 317.759969 
L 40.31125 37.819969 
" style="fill: none; stroke: #cccccc; stroke-linejoin: miter; stroke-linecap: square"/>
   </g>
   <g id="patch_6">
    <path d="M 558.77125 317.759969 
L 558.77125 37.819969 
" style="fill: none; stroke: #cccccc; stroke-linejoin: miter; stroke-linecap: square"/>
   </g>
   <g id="patch_7">
    <path d="M 40.31125 317.759969 
L 558.77125 317.759969 
" style="fill: none; stroke: #cccccc; stroke-linejoin: miter; stroke-linecap: square"/>
   </g>
   <g id="patch_8">
    <path d="M 40.31125 37.819969 
L 558.77125 37.819969 
" style="fill: none; stroke: #cccccc; stroke-linejoin: miter; stroke-linecap: square"/>
   </g>
   <g id="text_9">
    <!-- UNDERESTIMATED -->
    <g style="fill: #262626" transform="translate(85.385227 85.713544) scale(0.12 -0.12)">
     <defs>
      <path id="DejaVuSerif-Bold-55" d="M 813 4288 
L 219 4288 
L 219 4666 
L 2619 4666 
L 2619 4288 
L 2022 4288 
L 2022 1953 
Q 2022 1081 2294 732 
Q 2566 384 3225 384 
Q 3869 384 4139 736 
Q 4409 1088 4409 1953 
L 4409 4288 
L 3816 4288 
L 3816 4666 
L 5441 4666 
L 5441 4288 
L 4844 4288 
L 4844 1888 
Q 4844 819 4381 364 
Q 3919 -91 2828 -91 
Q 1744 -91 1278 368 
Q 813 828 813 1894 
L 813 4288 
z
" transform="scale(0.015625)"/>
      <path id="DejaVuSerif-Bold-4e" d="M 281 0 
L 281 378 
L 878 378 
L 878 4288 
L 281 4288 
L 281 4666 
L 1741 4666 
L 4556 1363 
L 4556 4288 
L 3963 4288 
L 3963 4666 
L 5594 4666 
L 5594 4288 
L 4997 4288 
L 4997 0 
L 4178 0 
L 1319 3372 
L 1319 378 
L 1913 378 
L 1913 0 
L 281 0 
z
" transform="scale(0.015625)"/>
      <path id="DejaVuSerif-Bold-44" d="M 2100 378 
L 2534 378 
Q 3266 378 3605 847 
Q 3944 1316 3944 2338 
Q 3944 3353 3606 3820 
Q 3269 4288 2534 4288 
L 2100 4288 
L 2100 378 
z
M 300 0 
L 300 378 
L 897 378 
L 897 4288 
L 300 4288 
L 300 4666 
L 2694 4666 
Q 3950 4666 4615 4066 
Q 5281 3466 5281 2338 
Q 5281 1203 4614 601 
Q 3947 0 2694 0 
L 300 0 
z
" transform="scale(0.015625)"/>
      <path id="DejaVuSerif-Bold-45" d="M 300 0 
L 300 378 
L 897 378 
L 897 4288 
L 300 4288 
L 300 4666 
L 4494 4666 
L 4494 3566 
L 4063 3566 
L 4063 4238 
L 2100 4238 
L 2100 2741 
L 3322 2741 
L 3322 3334 
L 3750 3334 
L 3750 1722 
L 3322 1722 
L 3322 2316 
L 2100 2316 
L 2100 428 
L 4122 428 
L 4122 1100 
L 4550 1100 
L 4550 0 
L 300 0 
z
" transform="scale(0.015625)"/>
      <path id="DejaVuSerif-Bold-52" d="M 3397 2278 
Q 3675 2238 3865 2094 
Q 4056 1950 4197 1678 
L 4878 378 
L 5356 378 
L 5356 0 
L 3822 0 
L 3078 1409 
Q 2863 1847 2711 1967 
Q 2559 2088 2291 2088 
L 2100 2088 
L 2100 378 
L 2700 378 
L 2700 0 
L 300 0 
L 300 378 
L 897 378 
L 897 4288 
L 300 4288 
L 300 4666 
L 2963 4666 
Q 3775 4666 4217 4339 
Q 4659 4013 4659 3413 
Q 4659 2925 4345 2642 
Q 4031 2359 3397 2278 
z
M 2100 2463 
L 2509 2463 
Q 2947 2463 3183 2700 
Q 3419 2938 3419 3378 
Q 3419 3819 3183 4053 
Q 2947 4288 2509 4288 
L 2100 4288 
L 2100 2463 
z
" transform="scale(0.015625)"/>
      <path id="DejaVuSerif-Bold-53" d="M 494 225 
L 494 1331 
L 891 1331 
Q 981 806 1318 547 
Q 1656 288 2253 288 
Q 2738 288 2991 472 
Q 3244 656 3244 1013 
Q 3244 1294 3072 1450 
Q 2900 1606 2363 1741 
L 1663 1913 
Q 978 2088 700 2398 
Q 422 2709 422 3284 
Q 422 3978 883 4364 
Q 1344 4750 2175 4750 
Q 2584 4750 3026 4681 
Q 3469 4613 3944 4475 
L 3944 3444 
L 3547 3444 
Q 3456 3925 3150 4148 
Q 2844 4372 2278 4372 
Q 1816 4372 1580 4211 
Q 1344 4050 1344 3731 
Q 1344 3441 1506 3289 
Q 1669 3138 2303 2975 
L 3003 2803 
Q 3653 2641 3945 2297 
Q 4238 1953 4238 1350 
Q 4238 644 3750 276 
Q 3263 -91 2316 -91 
Q 1859 -91 1409 -12 
Q 959 66 494 225 
z
" transform="scale(0.015625)"/>
      <path id="DejaVuSerif-Bold-54" d="M 1159 0 
L 1159 378 
L 1778 378 
L 1778 4238 
L 500 4238 
L 500 3500 
L 72 3500 
L 72 4666 
L 4697 4666 
L 4697 3500 
L 4275 3500 
L 4275 4238 
L 2988 4238 
L 2988 378 
L 3609 378 
L 3609 0 
L 1159 0 
z
" transform="scale(0.015625)"/>
      <path id="DejaVuSerif-Bold-49" d="M 300 0 
L 300 378 
L 897 378 
L 897 4288 
L 300 4288 
L 300 4666 
L 2700 4666 
L 2700 4288 
L 2100 4288 
L 2100 378 
L 2700 378 
L 2700 0 
L 300 0 
z
" transform="scale(0.015625)"/>
      <path id="DejaVuSerif-Bold-4d" d="M 269 0 
L 269 378 
L 863 378 
L 863 4288 
L 269 4288 
L 269 4666 
L 2194 4666 
L 3525 1672 
L 4863 4666 
L 6784 4666 
L 6784 4288 
L 6188 4288 
L 6188 378 
L 6784 378 
L 6784 0 
L 4384 0 
L 4384 378 
L 4978 378 
L 4978 3938 
L 3531 684 
L 2741 684 
L 1300 3938 
L 1300 378 
L 1894 378 
L 1894 0 
L 269 0 
z
" transform="scale(0.015625)"/>
      <path id="DejaVuSerif-Bold-41" d="M -50 0 
L -50 378 
L 331 378 
L 2088 4666 
L 2834 4666 
L 4594 378 
L 5038 378 
L 5038 0 
L 2853 0 
L 2853 378 
L 3309 378 
L 2925 1331 
L 1172 1331 
L 781 378 
L 1338 378 
L 1338 0 
L -50 0 
z
M 1325 1709 
L 2772 1709 
L 2053 3494 
L 1325 1709 
z
" transform="scale(0.015625)"/>
     </defs>
     <use xlink:href="#DejaVuSerif-Bold-55"/>
     <use xlink:href="#DejaVuSerif-Bold-4e" transform="translate(87.207031 0)"/>
     <use xlink:href="#DejaVuSerif-Bold-44" transform="translate(178.613281 0)"/>
     <use xlink:href="#DejaVuSerif-Bold-45" transform="translate(265.332031 0)"/>
     <use xlink:href="#DejaVuSerif-Bold-52" transform="translate(341.552734 0)"/>
     <use xlink:href="#DejaVuSerif-Bold-45" transform="translate(424.658203 0)"/>
     <use xlink:href="#DejaVuSerif-Bold-53" transform="translate(500.878906 0)"/>
     <use xlink:href="#DejaVuSerif-Bold-54" transform="translate(573.095703 0)"/>
     <use xlink:href="#DejaVuSerif-Bold-49" transform="translate(647.509766 0)"/>
     <use xlink:href="#DejaVuSerif-Bold-4d" transform="translate(694.287109 0)"/>
     <use xlink:href="#DejaVuSerif-Bold-41" transform="translate(804.980469 0)"/>
     <use xlink:href="#DejaVuSerif-Bold-54" transform="translate(877.068359 0)"/>
     <use xlink:href="#DejaVuSerif-Bold-45" transform="translate(951.482422 0)"/>
     <use xlink:href="#DejaVuSerif-Bold-44" transform="translate(1027.703125 0)"/>
    </g>
   </g>
   <g id="text_10">
    <!-- 12 -->
    <g style="fill: #ffffff" transform="translate(132.769602 213.510219) scale(0.28 -0.28)">
     <defs>
      <path id="DejaVuSerif-Bold-31" d="M 878 0 
L 878 378 
L 1753 378 
L 1753 4153 
L 781 3578 
L 781 4044 
L 1953 4750 
L 2938 4750 
L 2938 378 
L 3816 378 
L 3816 0 
L 878 0 
z
" transform="scale(0.015625)"/>
      <path id="DejaVuSerif-Bold-32" d="M 844 3513 
L 469 3513 
L 469 4519 
Q 850 4634 1223 4692 
Q 1597 4750 1978 4750 
Q 2869 4750 3367 4386 
Q 3866 4022 3866 3372 
Q 3866 2909 3591 2542 
Q 3316 2175 2541 1672 
L 1241 819 
L 3450 819 
L 3450 1369 
L 3878 1369 
L 3878 0 
L 428 0 
L 428 763 
L 1119 1241 
Q 2003 1850 2297 2278 
Q 2591 2706 2591 3278 
Q 2591 3819 2367 4101 
Q 2144 4384 1716 4384 
Q 1347 4384 1125 4161 
Q 903 3938 844 3513 
z
" transform="scale(0.015625)"/>
     </defs>
     <use xlink:href="#DejaVuSerif-Bold-31"/>
     <use xlink:href="#DejaVuSerif-Bold-32" transform="translate(69.580078 0)"/>
    </g>
   </g>
   <g id="text_11">
    <!-- OVERESTIMATED -->
    <g style="fill: #262626" transform="translate(386.107273 291.002877) scale(0.12 -0.12)">
     <defs>
      <path id="DejaVuSerif-Bold-4f" d="M 2784 288 
Q 3381 288 3672 791 
Q 3963 1294 3963 2328 
Q 3963 3366 3672 3869 
Q 3381 4372 2784 4372 
Q 2191 4372 1898 3864 
Q 1606 3356 1606 2328 
Q 1606 1303 1898 795 
Q 2191 288 2784 288 
z
M 2784 -91 
Q 1606 -91 937 553 
Q 269 1197 269 2328 
Q 269 3459 939 4104 
Q 1609 4750 2784 4750 
Q 3963 4750 4631 4106 
Q 5300 3463 5300 2328 
Q 5300 1197 4629 553 
Q 3959 -91 2784 -91 
z
" transform="scale(0.015625)"/>
      <path id="DejaVuSerif-Bold-56" d="M 5056 4666 
L 5056 4288 
L 4666 4288 
L 2906 0 
L 2163 0 
L 403 4288 
L -38 4288 
L -38 4666 
L 2150 4666 
L 2150 4288 
L 1697 4288 
L 2956 1197 
L 4225 4288 
L 3669 4288 
L 3669 4666 
L 5056 4666 
z
" transform="scale(0.015625)"/>
     </defs>
     <use xlink:href="#DejaVuSerif-Bold-4f"/>
     <use xlink:href="#DejaVuSerif-Bold-56" transform="translate(85.359375 0)"/>
     <use xlink:href="#DejaVuSerif-Bold-45" transform="translate(162.947266 0)"/>
     <use xlink:href="#DejaVuSerif-Bold-52" transform="translate(239.167969 0)"/>
     <use xlink:href="#DejaVuSerif-Bold-45" transform="translate(322.273438 0)"/>
     <use xlink:href="#DejaVuSerif-Bold-53" transform="translate(398.494141 0)"/>
     <use xlink:href="#DejaVuSerif-Bold-54" transform="translate(470.710938 0)"/>
     <use xlink:href="#DejaVuSerif-Bold-49" transform="translate(545.125 0)"/>
     <use xlink:href="#DejaVuSerif-Bold-4d" transform="translate(591.902344 0)"/>
     <use xlink:href="#DejaVuSerif-Bold-41" transform="translate(702.595703 0)"/>
     <use xlink:href="#DejaVuSerif-Bold-54" transform="translate(774.683594 0)"/>
     <use xlink:href="#DejaVuSerif-Bold-45" transform="translate(849.097656 0)"/>
     <use xlink:href="#DejaVuSerif-Bold-44" transform="translate(925.318359 0)"/>
    </g>
   </g>
   <g id="text_12">
    <!-- 1 -->
    <g style="fill: #ffffff" transform="translate(437.090085 316.154885) scale(0.28 -0.28)">
     <use xlink:href="#DejaVuSerif-Bold-31"/>
    </g>
   </g>
   <g id="text_13">
    <g id="patch_9">
     <path d="M 218.085781 75.835094 
L 380.996719 75.835094 
Q 383.996719 75.835094 383.996719 72.835094 
L 383.996719 51.674781 
Q 383.996719 48.674781 380.996719 48.674781 
L 218.085781 48.674781 
Q 215.085781 48.674781 215.085781 51.674781 
L 215.085781 72.835094 
Q 215.085781 75.835094 218.085781 75.835094 
z
" style="fill: #f5deb3; opacity: 0.5; stroke: #000000; stroke-linejoin: miter"/>
    </g>
    <!-- p &lt; 0.003 under null hypothesis -->
    <g style="fill: #262626" transform="translate(218.085781 59.415406) scale(0.1 -0.1)">
     <defs>
      <path id="DejaVuSerif-Italic-70" d="M 1466 1825 
L 1400 1497 
Q 1353 1250 1353 1053 
Q 1353 769 1453 581 
Q 1622 269 2059 269 
Q 2500 269 2795 622 
Q 3091 975 3225 1663 
Q 3284 1978 3284 2225 
Q 3284 2513 3200 2703 
Q 3041 3053 2600 3053 
Q 2163 3053 1872 2737 
Q 1581 2422 1466 1825 
z
M 1116 2988 
L 563 2988 
L 628 3322 
L 1756 3322 
L 1656 2803 
Q 1884 3116 2175 3264 
Q 2466 3413 2850 3413 
Q 3463 3413 3753 2928 
Q 3947 2609 3947 2163 
Q 3947 1928 3897 1663 
Q 3744 881 3262 395 
Q 2781 -91 2169 -91 
Q 1784 -91 1551 57 
Q 1319 206 1213 519 
L 850 -1331 
L 275 -1331 
L 1116 2988 
z
" transform="scale(0.015625)"/>
      <path id="DejaVuSerif-Italic-20" transform="scale(0.015625)"/>
      <path id="DejaVuSerif-Italic-3c" d="M 4684 3188 
L 1441 2003 
L 4684 825 
L 4684 294 
L 678 1747 
L 678 2266 
L 4684 3719 
L 4684 3188 
z
" transform="scale(0.015625)"/>
      <path id="DejaVuSerif-Italic-30" d="M 1011 744 
Q 1147 219 1625 219 
Q 2103 219 2442 744 
Q 2781 1269 2988 2328 
Q 3194 3391 3058 3916 
Q 2922 4441 2444 4441 
Q 1966 4441 1627 3916 
Q 1288 3391 1081 2328 
Q 875 1269 1011 744 
z
M 1563 -91 
Q 803 -91 501 546 
Q 200 1184 422 2328 
Q 644 3475 1195 4112 
Q 1747 4750 2506 4750 
Q 3269 4750 3569 4112 
Q 3869 3475 3647 2328 
Q 3425 1184 2875 546 
Q 2325 -91 1563 -91 
z
" transform="scale(0.015625)"/>
      <path id="DejaVuSerif-Italic-2e" d="M 664 29 
Q 569 150 603 325 
Q 638 500 780 622 
Q 922 744 1100 744 
Q 1272 744 1370 622 
Q 1469 500 1434 325 
Q 1400 153 1254 31 
Q 1109 -91 938 -91 
Q 759 -91 664 29 
z
" transform="scale(0.015625)"/>
      <path id="DejaVuSerif-Italic-33" d="M 1038 4469 
Q 1431 4606 1781 4678 
Q 2131 4750 2425 4750 
Q 3109 4750 3436 4454 
Q 3763 4159 3659 3634 
Q 3578 3213 3258 2930 
Q 2938 2647 2431 2547 
Q 2988 2466 3241 2130 
Q 3494 1794 3388 1259 
Q 3263 606 2755 257 
Q 2247 -91 1422 -91 
Q 1056 -91 723 -12 
Q 391 66 78 225 
L 253 1131 
L 603 1131 
Q 547 681 775 450 
Q 1003 219 1497 219 
Q 1975 219 2304 495 
Q 2634 772 2728 1253 
Q 2834 1803 2604 2086 
Q 2375 2369 1825 2369 
L 1528 2369 
L 1591 2688 
L 1747 2688 
Q 2294 2688 2611 2914 
Q 2928 3141 3019 3597 
Q 3097 4006 2914 4223 
Q 2731 4441 2309 4441 
Q 1888 4441 1616 4241 
Q 1344 4041 1228 3647 
L 878 3647 
L 1038 4469 
z
" transform="scale(0.015625)"/>
      <path id="DejaVuSerif-Italic-75" d="M 3097 3322 
L 3672 3322 
L 3091 331 
L 3634 331 
L 3572 0 
L 2453 0 
L 2566 588 
Q 2341 256 2055 82 
Q 1769 -91 1434 -91 
Q 881 -91 681 225 
Q 559 413 559 734 
Q 559 944 613 1209 
L 956 2988 
L 438 2988 
L 503 3322 
L 1600 3322 
L 1225 1388 
Q 1163 1066 1163 853 
Q 1163 663 1213 556 
Q 1316 331 1697 331 
Q 2097 331 2364 625 
Q 2631 919 2738 1478 
L 3097 3322 
z
" transform="scale(0.015625)"/>
      <path id="DejaVuSerif-Italic-6e" d="M 450 0 
L 1031 2988 
L 481 2988 
L 544 3322 
L 1669 3322 
L 1556 2731 
Q 1781 3069 2068 3241 
Q 2356 3413 2694 3413 
Q 3244 3413 3444 3097 
Q 3563 2906 3563 2588 
Q 3563 2378 3509 2113 
L 3163 331 
L 3675 331 
L 3613 0 
L 2522 0 
L 2897 1931 
Q 2959 2253 2959 2469 
Q 2959 2659 2909 2769 
Q 2803 2994 2425 2994 
Q 2025 2994 1759 2701 
Q 1494 2409 1384 1850 
L 1025 0 
L 450 0 
z
" transform="scale(0.015625)"/>
      <path id="DejaVuSerif-Italic-64" d="M 3841 4863 
L 2897 0 
L 2322 0 
L 2422 519 
Q 2191 206 1902 57 
Q 1613 -91 1228 -91 
Q 616 -91 322 394 
Q 125 716 125 1166 
Q 125 1397 178 1663 
Q 331 2444 812 2928 
Q 1294 3413 1909 3413 
Q 2294 3413 2525 3264 
Q 2756 3116 2866 2803 
L 3200 4531 
L 2656 4531 
L 2722 4863 
L 3841 4863 
z
M 2613 1497 
L 2675 1825 
Q 2722 2069 2722 2266 
Q 2722 2550 2622 2738 
Q 2456 3053 2019 3053 
Q 1575 3053 1279 2703 
Q 984 2353 850 1663 
Q 788 1347 788 1103 
Q 788 813 875 622 
Q 1031 269 1475 269 
Q 1913 269 2203 583 
Q 2494 897 2613 1497 
z
" transform="scale(0.015625)"/>
      <path id="DejaVuSerif-Italic-65" d="M 938 1275 
Q 925 1156 925 1050 
Q 925 756 1031 563 
Q 1216 219 1709 219 
Q 2072 219 2250 328 
Q 2569 525 2644 778 
L 3066 778 
Q 2941 381 2475 103 
Q 2150 -91 1506 -91 
Q 863 -91 516 388 
Q 272 722 272 1206 
Q 272 1419 319 1659 
Q 472 2450 1000 2931 
Q 1528 3413 2278 3413 
Q 3500 3413 3500 2547 
Q 3500 1913 2859 1603 
Q 2206 1288 938 1275 
z
M 2541 1975 
Q 2891 2181 2891 2569 
Q 2891 3103 2181 3103 
Q 1763 3103 1472 2784 
Q 1181 2466 1003 1606 
Q 2006 1653 2541 1975 
z
" transform="scale(0.015625)"/>
      <path id="DejaVuSerif-Italic-72" d="M 3375 3328 
L 3213 2497 
L 2881 2497 
Q 2891 2559 2891 2613 
Q 2891 2775 2816 2866 
Q 2719 2988 2484 2988 
Q 2059 2988 1775 2694 
Q 1491 2400 1384 1850 
L 1025 0 
L 450 0 
L 1031 2994 
L 481 2994 
L 544 3322 
L 1669 3322 
L 1556 2731 
Q 1791 3078 2089 3245 
Q 2388 3413 2769 3413 
Q 2909 3413 3059 3391 
Q 3209 3369 3375 3328 
z
" transform="scale(0.015625)"/>
      <path id="DejaVuSerif-Italic-6c" d="M 903 331 
L 1447 331 
L 1384 0 
L 266 0 
L 1147 4531 
L 594 4531 
L 656 4863 
L 1784 4863 
L 903 331 
z
" transform="scale(0.015625)"/>
      <path id="DejaVuSerif-Italic-68" d="M 309 0 
L 1191 4531 
L 641 4531 
L 703 4863 
L 1828 4863 
L 1416 2731 
Q 1641 3069 1928 3241 
Q 2216 3413 2553 3413 
Q 3103 3413 3300 3097 
Q 3422 2906 3422 2588 
Q 3422 2378 3369 2113 
L 3022 331 
L 3534 331 
L 3472 0 
L 2381 0 
L 2756 1931 
Q 2819 2253 2819 2469 
Q 2819 2659 2769 2763 
Q 2666 2988 2284 2988 
Q 1884 2988 1617 2697 
Q 1350 2406 1244 1850 
L 884 0 
L 309 0 
z
" transform="scale(0.015625)"/>
      <path id="DejaVuSerif-Italic-79" d="M 3681 3294 
Q 3372 1506 2828 563 
Q 2031 -822 1391 -1238 
Q 1106 -1422 356 -1422 
Q 209 -1422 60 -1397 
Q -88 -1372 -238 -1325 
L -113 -691 
L 181 -691 
Q 175 -741 175 -788 
Q 175 -919 231 -994 
Q 309 -1100 513 -1100 
Q 1063 -1100 1541 -622 
L 756 2988 
L 378 2988 
L 444 3322 
L 1303 3322 
L 2041 25 
Q 2544 778 2666 1088 
Q 3059 2059 3138 2959 
L 2759 2959 
L 2825 3294 
L 3681 3294 
z
" transform="scale(0.015625)"/>
      <path id="DejaVuSerif-Italic-6f" d="M 1644 219 
Q 2106 219 2414 584 
Q 2722 950 2859 1663 
Q 2922 1988 2922 2241 
Q 2922 2541 2834 2738 
Q 2669 3103 2206 3103 
Q 1744 3103 1436 2739 
Q 1128 2375 991 1663 
Q 928 1338 928 1088 
Q 928 784 1019 584 
Q 1184 219 1644 219 
z
M 1584 -91 
Q 859 -91 513 388 
Q 272 722 272 1203 
Q 272 1419 319 1663 
Q 472 2456 1005 2934 
Q 1538 3413 2266 3413 
Q 2994 3413 3341 2934 
Q 3578 2603 3578 2122 
Q 3578 1906 3531 1663 
Q 3378 869 2845 389 
Q 2313 -91 1584 -91 
z
" transform="scale(0.015625)"/>
      <path id="DejaVuSerif-Italic-74" d="M 856 2988 
L 350 2988 
L 416 3322 
L 922 3322 
L 1122 4353 
L 1700 4353 
L 1500 3322 
L 2581 3322 
L 2516 2988 
L 1434 2988 
L 1025 878 
Q 978 631 978 488 
Q 978 388 1000 338 
Q 1059 219 1278 219 
Q 1503 219 1633 351 
Q 1763 484 1825 781 
L 2259 781 
Q 2147 328 1884 118 
Q 1622 -91 1169 -91 
Q 672 -91 506 131 
Q 406 266 406 516 
Q 406 675 447 878 
L 856 2988 
z
" transform="scale(0.015625)"/>
      <path id="DejaVuSerif-Italic-73" d="M 222 959 
L 553 959 
Q 541 869 541 788 
Q 541 219 1313 219 
Q 2088 219 2200 788 
Q 2209 844 2209 944 
Q 2209 1041 2103 1158 
Q 1997 1275 1550 1428 
L 1159 1569 
Q 759 1706 629 1882 
Q 500 2059 500 2263 
Q 500 2344 516 2438 
Q 606 2894 990 3153 
Q 1375 3413 1931 3413 
Q 2484 3413 3066 3144 
L 2925 2419 
L 2594 2419 
Q 2606 2491 2606 2553 
Q 2606 2781 2448 2942 
Q 2291 3103 1925 3103 
Q 1191 3103 1091 2591 
Q 1078 2538 1078 2444 
Q 1078 2347 1179 2237 
Q 1281 2128 1678 1997 
L 2106 1856 
Q 2550 1709 2716 1488 
Q 2831 1331 2831 1178 
Q 2831 522 2306 181 
Q 1894 -91 1262 -91 
Q 631 -91 72 184 
L 222 959 
z
" transform="scale(0.015625)"/>
      <path id="DejaVuSerif-Italic-69" d="M 1009 4353 
Q 1038 4497 1163 4603 
Q 1288 4709 1434 4709 
Q 1578 4709 1663 4603 
Q 1728 4522 1728 4422 
Q 1728 4388 1719 4353 
Q 1691 4206 1567 4103 
Q 1444 4000 1297 4000 
Q 1150 4000 1066 4103 
Q 1003 4181 1003 4281 
Q 1003 4316 1009 4353 
z
M 963 331 
L 1506 331 
L 1444 0 
L 325 0 
L 903 2988 
L 353 2988 
L 419 3322 
L 1544 3322 
L 963 331 
z
" transform="scale(0.015625)"/>
     </defs>
     <use xlink:href="#DejaVuSerif-Italic-70"/>
     <use xlink:href="#DejaVuSerif-Italic-20" transform="translate(64.013672 0)"/>
     <use xlink:href="#DejaVuSerif-Italic-3c" transform="translate(95.800781 0)"/>
     <use xlink:href="#DejaVuSerif-Italic-20" transform="translate(179.589844 0)"/>
     <use xlink:href="#DejaVuSerif-Italic-30" transform="translate(211.376953 0)"/>
     <use xlink:href="#DejaVuSerif-Italic-2e" transform="translate(275 0)"/>
     <use xlink:href="#DejaVuSerif-Italic-30" transform="translate(306.787109 0)"/>
     <use xlink:href="#DejaVuSerif-Italic-30" transform="translate(370.410156 0)"/>
     <use xlink:href="#DejaVuSerif-Italic-33" transform="translate(434.033203 0)"/>
     <use xlink:href="#DejaVuSerif-Italic-20" transform="translate(497.65625 0)"/>
     <use xlink:href="#DejaVuSerif-Italic-75" transform="translate(529.443359 0)"/>
     <use xlink:href="#DejaVuSerif-Italic-6e" transform="translate(593.847656 0)"/>
     <use xlink:href="#DejaVuSerif-Italic-64" transform="translate(658.251953 0)"/>
     <use xlink:href="#DejaVuSerif-Italic-65" transform="translate(722.265625 0)"/>
     <use xlink:href="#DejaVuSerif-Italic-72" transform="translate(781.445312 0)"/>
     <use xlink:href="#DejaVuSerif-Italic-20" transform="translate(829.248047 0)"/>
     <use xlink:href="#DejaVuSerif-Italic-6e" transform="translate(861.035156 0)"/>
     <use xlink:href="#DejaVuSerif-Italic-75" transform="translate(925.439453 0)"/>
     <use xlink:href="#DejaVuSerif-Italic-6c" transform="translate(989.84375 0)"/>
     <use xlink:href="#DejaVuSerif-Italic-6c" transform="translate(1021.826172 0)"/>
     <use xlink:href="#DejaVuSerif-Italic-20" transform="translate(1053.808594 0)"/>
     <use xlink:href="#DejaVuSerif-Italic-68" transform="translate(1085.595703 0)"/>
     <use xlink:href="#DejaVuSerif-Italic-79" transform="translate(1150 0)"/>
     <use xlink:href="#DejaVuSerif-Italic-70" transform="translate(1206.494141 0)"/>
     <use xlink:href="#DejaVuSerif-Italic-6f" transform="translate(1270.507812 0)"/>
     <use xlink:href="#DejaVuSerif-Italic-74" transform="translate(1330.712891 0)"/>
     <use xlink:href="#DejaVuSerif-Italic-68" transform="translate(1370.898438 0)"/>
     <use xlink:href="#DejaVuSerif-Italic-65" transform="translate(1435.302734 0)"/>
     <use xlink:href="#DejaVuSerif-Italic-73" transform="translate(1494.482422 0)"/>
     <use xlink:href="#DejaVuSerif-Italic-69" transform="translate(1545.800781 0)"/>
     <use xlink:href="#DejaVuSerif-Italic-73" transform="translate(1577.783203 0)"/>
    </g>
    <!-- of random miscalibration -->
    <g style="fill: #262626" transform="translate(235.661563 70.755406) scale(0.1 -0.1)">
     <defs>
      <path id="DejaVuSerif-Italic-66" d="M 3191 4078 
L 2888 4078 
Q 2900 4144 2900 4203 
Q 2900 4347 2825 4434 
Q 2719 4556 2472 4556 
Q 2150 4556 1984 4379 
Q 1819 4203 1731 3750 
L 1647 3322 
L 2575 3322 
L 2509 2988 
L 1581 2988 
L 963 -206 
Q 853 -763 509 -1047 
Q 166 -1331 -394 -1331 
L -356 -1025 
Q -28 -1025 131 -850 
Q 297 -663 388 -206 
L 1006 2988 
L 456 2988 
L 522 3322 
L 1072 3322 
L 1153 3738 
Q 1263 4297 1606 4578 
Q 1950 4863 2509 4863 
Q 2719 4863 2920 4825 
Q 3122 4788 3316 4709 
L 3191 4078 
z
" transform="scale(0.015625)"/>
      <path id="DejaVuSerif-Italic-61" d="M 2325 519 
Q 1909 -91 1238 -91 
Q 688 -91 409 281 
Q 216 544 216 919 
Q 216 1078 250 1256 
Q 463 2359 1231 2928 
Q 1884 3413 2675 3413 
Q 3206 3413 3388 3322 
L 2806 331 
L 3300 331 
L 3238 0 
L 2225 0 
L 2325 519 
z
M 822 938 
Q 822 269 1469 269 
Q 1863 269 2130 583 
Q 2397 897 2516 1497 
L 2806 3003 
L 2806 3003 
Q 2806 3094 2556 3094 
Q 1956 3094 1491 2625 
Q 1028 2153 863 1297 
Q 822 1097 822 938 
z
" transform="scale(0.015625)"/>
      <path id="DejaVuSerif-Italic-6d" d="M 3503 2675 
Q 3741 3041 4034 3227 
Q 4328 3413 4672 3413 
Q 5194 3413 5388 3088 
Q 5503 2894 5503 2578 
Q 5503 2372 5453 2113 
L 5106 331 
L 5625 331 
L 5563 0 
L 4469 0 
L 4866 2047 
Q 4913 2291 4913 2466 
Q 4913 2659 4856 2772 
Q 4750 2988 4403 2988 
Q 4019 2988 3761 2697 
Q 3503 2406 3394 1850 
L 3034 0 
L 2459 0 
L 2863 2069 
Q 2906 2303 2906 2472 
Q 2906 2666 2850 2775 
Q 2741 2988 2394 2988 
Q 2009 2988 1751 2697 
Q 1494 2406 1384 1850 
L 1025 0 
L 450 0 
L 1031 2994 
L 481 2994 
L 544 3322 
L 1669 3322 
L 1556 2731 
Q 1778 3063 2059 3238 
Q 2341 3413 2653 3413 
Q 3041 3413 3262 3220 
Q 3484 3028 3503 2675 
z
" transform="scale(0.015625)"/>
      <path id="DejaVuSerif-Italic-63" d="M 3163 997 
Q 2938 466 2536 187 
Q 2134 -91 1584 -91 
Q 859 -91 513 388 
Q 272 722 272 1203 
Q 272 1419 319 1663 
Q 475 2459 1008 2936 
Q 1541 3413 2266 3413 
Q 2581 3413 2879 3339 
Q 3178 3266 3463 3116 
L 3300 2266 
L 2966 2266 
Q 2966 2309 2966 2347 
Q 2966 2722 2803 2903 
Q 2622 3103 2213 3103 
Q 1747 3103 1439 2742 
Q 1131 2381 991 1663 
Q 928 1334 928 1078 
Q 928 778 1016 581 
Q 1181 219 1650 219 
Q 2022 219 2281 412 
Q 2541 606 2700 997 
L 3163 997 
z
" transform="scale(0.015625)"/>
      <path id="DejaVuSerif-Italic-62" d="M 1153 4531 
L 600 4531 
L 666 4863 
L 1794 4863 
L 1394 2803 
Q 1622 3116 1912 3264 
Q 2203 3413 2588 3413 
Q 3200 3413 3494 2928 
Q 3688 2609 3688 2163 
Q 3688 1928 3634 1663 
Q 3481 881 3000 395 
Q 2519 -91 1906 -91 
Q 1522 -91 1289 57 
Q 1056 206 950 519 
L 850 0 
L 275 0 
L 1153 4531 
z
M 1141 1497 
Q 1091 1250 1091 1053 
Q 1091 769 1191 581 
Q 1359 269 1797 269 
Q 2238 269 2533 622 
Q 2828 975 2963 1663 
Q 3025 1978 3025 2225 
Q 3025 2513 2938 2703 
Q 2781 3053 2338 3053 
Q 1900 3053 1609 2737 
Q 1319 2422 1203 1825 
L 1141 1497 
z
" transform="scale(0.015625)"/>
     </defs>
     <use xlink:href="#DejaVuSerif-Italic-6f"/>
     <use xlink:href="#DejaVuSerif-Italic-66" transform="translate(60.205078 0)"/>
     <use xlink:href="#DejaVuSerif-Italic-20" transform="translate(97.216797 0)"/>
     <use xlink:href="#DejaVuSerif-Italic-72" transform="translate(129.003906 0)"/>
     <use xlink:href="#DejaVuSerif-Italic-61" transform="translate(176.806641 0)"/>
     <use xlink:href="#DejaVuSerif-Italic-6e" transform="translate(236.425781 0)"/>
     <use xlink:href="#DejaVuSerif-Italic-64" transform="translate(300.830078 0)"/>
     <use xlink:href="#DejaVuSerif-Italic-6f" transform="translate(364.84375 0)"/>
     <use xlink:href="#DejaVuSerif-Italic-6d" transform="translate(425.048828 0)"/>
     <use xlink:href="#DejaVuSerif-Italic-20" transform="translate(519.873047 0)"/>
     <use xlink:href="#DejaVuSerif-Italic-6d" transform="translate(551.660156 0)"/>
     <use xlink:href="#DejaVuSerif-Italic-69" transform="translate(646.484375 0)"/>
     <use xlink:href="#DejaVuSerif-Italic-73" transform="translate(678.466797 0)"/>
     <use xlink:href="#DejaVuSerif-Italic-63" transform="translate(729.785156 0)"/>
     <use xlink:href="#DejaVuSerif-Italic-61" transform="translate(785.791016 0)"/>
     <use xlink:href="#DejaVuSerif-Italic-6c" transform="translate(845.410156 0)"/>
     <use xlink:href="#DejaVuSerif-Italic-69" transform="translate(877.392578 0)"/>
     <use xlink:href="#DejaVuSerif-Italic-62" transform="translate(909.375 0)"/>
     <use xlink:href="#DejaVuSerif-Italic-72" transform="translate(973.388672 0)"/>
     <use xlink:href="#DejaVuSerif-Italic-61" transform="translate(1021.191406 0)"/>
     <use xlink:href="#DejaVuSerif-Italic-74" transform="translate(1080.810547 0)"/>
     <use xlink:href="#DejaVuSerif-Italic-69" transform="translate(1120.996094 0)"/>
     <use xlink:href="#DejaVuSerif-Italic-6f" transform="translate(1152.978516 0)"/>
     <use xlink:href="#DejaVuSerif-Italic-6e" transform="translate(1213.183594 0)"/>
    </g>
   </g>
   <g id="text_14">
    <!-- Figure 3: The 12:1 Asymmetry -->
    <g style="fill: #262626" transform="translate(198.827813 17.077969) scale(0.13 -0.13)">
     <defs>
      <path id="DejaVuSerif-46" d="M 353 0 
L 353 331 
L 947 331 
L 947 4331 
L 353 4331 
L 353 4666 
L 4172 4666 
L 4172 3628 
L 3788 3628 
L 3788 4281 
L 1581 4281 
L 1581 2719 
L 3175 2719 
L 3175 3303 
L 3559 3303 
L 3559 1753 
L 3175 1753 
L 3175 2338 
L 1581 2338 
L 1581 331 
L 2328 331 
L 2328 0 
L 353 0 
z
" transform="scale(0.015625)"/>
      <path id="DejaVuSerif-67" d="M 3359 2988 
L 3359 72 
Q 3359 -644 2965 -1033 
Q 2572 -1422 1844 -1422 
Q 1516 -1422 1216 -1362 
Q 916 -1303 641 -1184 
L 641 -488 
L 941 -488 
Q 997 -813 1206 -963 
Q 1416 -1113 1806 -1113 
Q 2313 -1113 2548 -827 
Q 2784 -541 2784 72 
L 2784 519 
Q 2616 206 2355 57 
Q 2094 -91 1709 -91 
Q 1097 -91 708 395 
Q 319 881 319 1663 
Q 319 2444 706 2928 
Q 1094 3413 1709 3413 
Q 2094 3413 2355 3264 
Q 2616 3116 2784 2803 
L 2784 3322 
L 3909 3322 
L 3909 2988 
L 3359 2988 
z
M 2784 1825 
Q 2784 2422 2554 2737 
Q 2325 3053 1888 3053 
Q 1444 3053 1217 2703 
Q 991 2353 991 1663 
Q 991 975 1217 622 
Q 1444 269 1888 269 
Q 2325 269 2554 583 
Q 2784 897 2784 1497 
L 2784 1825 
z
" transform="scale(0.015625)"/>
      <path id="DejaVuSerif-3a" d="M 666 325 
Q 666 500 786 622 
Q 906 744 1081 744 
Q 1256 744 1376 622 
Q 1497 500 1497 325 
Q 1497 150 1378 29 
Q 1259 -91 1081 -91 
Q 903 -91 784 29 
Q 666 150 666 325 
z
M 666 2363 
Q 666 2538 786 2658 
Q 906 2778 1081 2778 
Q 1259 2778 1378 2659 
Q 1497 2541 1497 2363 
Q 1497 2184 1378 2065 
Q 1259 1947 1081 1947 
Q 906 1947 786 2067 
Q 666 2188 666 2363 
z
" transform="scale(0.015625)"/>
      <path id="DejaVuSerif-54" d="M 1222 0 
L 1222 331 
L 1819 331 
L 1819 4294 
L 447 4294 
L 447 3566 
L 63 3566 
L 63 4666 
L 4206 4666 
L 4206 3566 
L 3822 3566 
L 3822 4294 
L 2450 4294 
L 2450 331 
L 3047 331 
L 3047 0 
L 1222 0 
z
" transform="scale(0.015625)"/>
      <path id="DejaVuSerif-68" d="M 263 0 
L 263 331 
L 781 331 
L 781 4531 
L 231 4531 
L 231 4863 
L 1356 4863 
L 1356 2731 
Q 1516 3069 1770 3241 
Q 2025 3413 2363 3413 
Q 2913 3413 3172 3097 
Q 3431 2781 3431 2113 
L 3431 331 
L 3944 331 
L 3944 0 
L 2356 0 
L 2356 331 
L 2853 331 
L 2853 1931 
Q 2853 2541 2704 2764 
Q 2556 2988 2175 2988 
Q 1775 2988 1565 2697 
Q 1356 2406 1356 1850 
L 1356 331 
L 1856 331 
L 1856 0 
L 263 0 
z
" transform="scale(0.015625)"/>
      <path id="DejaVuSerif-41" d="M 1281 1691 
L 2994 1691 
L 2138 3909 
L 1281 1691 
z
M -38 0 
L -38 331 
L 372 331 
L 2034 4666 
L 2559 4666 
L 4225 331 
L 4684 331 
L 4684 0 
L 2988 0 
L 2988 331 
L 3506 331 
L 3116 1356 
L 1153 1356 
L 763 331 
L 1275 331 
L 1275 0 
L -38 0 
z
" transform="scale(0.015625)"/>
     </defs>
     <use xlink:href="#DejaVuSerif-46"/>
     <use xlink:href="#DejaVuSerif-69" transform="translate(69.384766 0)"/>
     <use xlink:href="#DejaVuSerif-67" transform="translate(101.367188 0)"/>
     <use xlink:href="#DejaVuSerif-75" transform="translate(165.380859 0)"/>
     <use xlink:href="#DejaVuSerif-72" transform="translate(229.785156 0)"/>
     <use xlink:href="#DejaVuSerif-65" transform="translate(277.587891 0)"/>
     <use xlink:href="#DejaVuSerif-20" transform="translate(336.767578 0)"/>
     <use xlink:href="#DejaVuSerif-33" transform="translate(368.554688 0)"/>
     <use xlink:href="#DejaVuSerif-3a" transform="translate(432.177734 0)"/>
     <use xlink:href="#DejaVuSerif-20" transform="translate(465.869141 0)"/>
     <use xlink:href="#DejaVuSerif-54" transform="translate(497.65625 0)"/>
     <use xlink:href="#DejaVuSerif-68" transform="translate(564.355469 0)"/>
     <use xlink:href="#DejaVuSerif-65" transform="translate(628.759766 0)"/>
     <use xlink:href="#DejaVuSerif-20" transform="translate(687.939453 0)"/>
     <use xlink:href="#DejaVuSerif-31" transform="translate(719.726562 0)"/>
     <use xlink:href="#DejaVuSerif-32" transform="translate(783.349609 0)"/>
     <use xlink:href="#DejaVuSerif-3a" transform="translate(846.972656 0)"/>
     <use xlink:href="#DejaVuSerif-31" transform="translate(880.664062 0)"/>
     <use xlink:href="#DejaVuSerif-20" transform="translate(944.287109 0)"/>
     <use xlink:href="#DejaVuSerif-41" transform="translate(976.074219 0)"/>
     <use xlink:href="#DejaVuSerif-73" transform="translate(1048.291016 0)"/>
     <use xlink:href="#DejaVuSerif-79" transform="translate(1099.609375 0)"/>
     <use xlink:href="#DejaVuSerif-6d" transform="translate(1156.103516 0)"/>
     <use xlink:href="#DejaVuSerif-6d" transform="translate(1250.927734 0)"/>
     <use xlink:href="#DejaVuSerif-65" transform="translate(1345.751953 0)"/>
     <use xlink:href="#DejaVuSerif-74" transform="translate(1404.931641 0)"/>
     <use xlink:href="#DejaVuSerif-72" transform="translate(1445.117188 0)"/>
     <use xlink:href="#DejaVuSerif-79" transform="translate(1492.919922 0)"/>
    </g>
    <!-- Systematic Underestimation Across All Capability Vectors -->
    <g style="fill: #262626" transform="translate(108.437188 31.819969) scale(0.13 -0.13)">
     <defs>
      <path id="DejaVuSerif-53" d="M 594 225 
L 594 1288 
L 953 1284 
Q 969 753 1261 498 
Q 1553 244 2150 244 
Q 2706 244 2998 464 
Q 3291 684 3291 1106 
Q 3291 1444 3114 1625 
Q 2938 1806 2369 1978 
L 1753 2163 
Q 1084 2366 811 2669 
Q 538 2972 538 3500 
Q 538 4094 959 4422 
Q 1381 4750 2144 4750 
Q 2469 4750 2856 4679 
Q 3244 4609 3681 4475 
L 3681 3481 
L 3328 3481 
Q 3275 3975 2998 4195 
Q 2722 4416 2156 4416 
Q 1663 4416 1405 4214 
Q 1147 4013 1147 3628 
Q 1147 3294 1340 3103 
Q 1534 2913 2163 2725 
L 2741 2553 
Q 3375 2363 3645 2067 
Q 3916 1772 3916 1275 
Q 3916 597 3481 253 
Q 3047 -91 2188 -91 
Q 1803 -91 1404 -12 
Q 1006 66 594 225 
z
" transform="scale(0.015625)"/>
      <path id="DejaVuSerif-64" d="M 3359 331 
L 3909 331 
L 3909 0 
L 2784 0 
L 2784 519 
Q 2616 206 2355 57 
Q 2094 -91 1709 -91 
Q 1097 -91 708 395 
Q 319 881 319 1663 
Q 319 2444 706 2928 
Q 1094 3413 1709 3413 
Q 2094 3413 2355 3264 
Q 2616 3116 2784 2803 
L 2784 4531 
L 2241 4531 
L 2241 4863 
L 3359 4863 
L 3359 331 
z
M 2784 1497 
L 2784 1825 
Q 2784 2422 2554 2737 
Q 2325 3053 1888 3053 
Q 1444 3053 1217 2703 
Q 991 2353 991 1663 
Q 991 975 1217 622 
Q 1444 269 1888 269 
Q 2325 269 2554 583 
Q 2784 897 2784 1497 
z
" transform="scale(0.015625)"/>
     </defs>
     <use xlink:href="#DejaVuSerif-53"/>
     <use xlink:href="#DejaVuSerif-79" transform="translate(68.505859 0)"/>
     <use xlink:href="#DejaVuSerif-73" transform="translate(125 0)"/>
     <use xlink:href="#DejaVuSerif-74" transform="translate(176.318359 0)"/>
     <use xlink:href="#DejaVuSerif-65" transform="translate(216.503906 0)"/>
     <use xlink:href="#DejaVuSerif-6d" transform="translate(275.683594 0)"/>
     <use xlink:href="#DejaVuSerif-61" transform="translate(370.507812 0)"/>
     <use xlink:href="#DejaVuSerif-74" transform="translate(430.126953 0)"/>
     <use xlink:href="#DejaVuSerif-69" transform="translate(470.3125 0)"/>
     <use xlink:href="#DejaVuSerif-63" transform="translate(502.294922 0)"/>
     <use xlink:href="#DejaVuSerif-20" transform="translate(558.300781 0)"/>
     <use xlink:href="#DejaVuSerif-55" transform="translate(590.087891 0)"/>
     <use xlink:href="#DejaVuSerif-6e" transform="translate(674.365234 0)"/>
     <use xlink:href="#DejaVuSerif-64" transform="translate(738.769531 0)"/>
     <use xlink:href="#DejaVuSerif-65" transform="translate(802.783203 0)"/>
     <use xlink:href="#DejaVuSerif-72" transform="translate(861.962891 0)"/>
     <use xlink:href="#DejaVuSerif-65" transform="translate(909.765625 0)"/>
     <use xlink:href="#DejaVuSerif-73" transform="translate(968.945312 0)"/>
     <use xlink:href="#DejaVuSerif-74" transform="translate(1020.263672 0)"/>
     <use xlink:href="#DejaVuSerif-69" transform="translate(1060.449219 0)"/>
     <use xlink:href="#DejaVuSerif-6d" transform="translate(1092.431641 0)"/>
     <use xlink:href="#DejaVuSerif-61" transform="translate(1187.255859 0)"/>
     <use xlink:href="#DejaVuSerif-74" transform="translate(1246.875 0)"/>
     <use xlink:href="#DejaVuSerif-69" transform="translate(1287.060547 0)"/>
     <use xlink:href="#DejaVuSerif-6f" transform="translate(1319.042969 0)"/>
     <use xlink:href="#DejaVuSerif-6e" transform="translate(1379.248047 0)"/>
     <use xlink:href="#DejaVuSerif-20" transform="translate(1443.652344 0)"/>
     <use xlink:href="#DejaVuSerif-41" transform="translate(1475.439453 0)"/>
     <use xlink:href="#DejaVuSerif-63" transform="translate(1547.65625 0)"/>
     <use xlink:href="#DejaVuSerif-72" transform="translate(1603.662109 0)"/>
     <use xlink:href="#DejaVuSerif-6f" transform="translate(1651.464844 0)"/>
     <use xlink:href="#DejaVuSerif-73" transform="translate(1711.669922 0)"/>
     <use xlink:href="#DejaVuSerif-73" transform="translate(1762.988281 0)"/>
     <use xlink:href="#DejaVuSerif-20" transform="translate(1814.306641 0)"/>
     <use xlink:href="#DejaVuSerif-41" transform="translate(1846.09375 0)"/>
     <use xlink:href="#DejaVuSerif-6c" transform="translate(1918.310547 0)"/>
     <use xlink:href="#DejaVuSerif-6c" transform="translate(1950.292969 0)"/>
     <use xlink:href="#DejaVuSerif-20" transform="translate(1982.275391 0)"/>
     <use xlink:href="#DejaVuSerif-43" transform="translate(2014.0625 0)"/>
     <use xlink:href="#DejaVuSerif-61" transform="translate(2090.576172 0)"/>
     <use xlink:href="#DejaVuSerif-70" transform="translate(2150.195312 0)"/>
     <use xlink:href="#DejaVuSerif-61" transform="translate(2214.208984 0)"/>
     <use xlink:href="#DejaVuSerif-62" transform="translate(2273.828125 0)"/>
     <use xlink:href="#DejaVuSerif-69" transform="translate(2337.841797 0)"/>
     <use xlink:href="#DejaVuSerif-6c" transform="translate(2369.824219 0)"/>
     <use xlink:href="#DejaVuSerif-69" transform="translate(2401.806641 0)"/>
     <use xlink:href="#DejaVuSerif-74" transform="translate(2433.789062 0)"/>
     <use xlink:href="#DejaVuSerif-79" transform="translate(2473.974609 0)"/>
     <use xlink:href="#DejaVuSerif-20" transform="translate(2530.46875 0)"/>
     <use xlink:href="#DejaVuSerif-56" transform="translate(2562.255859 0)"/>
     <use xlink:href="#DejaVuSerif-65" transform="translate(2625.347656 0)"/>
     <use xlink:href="#DejaVuSerif-63" transform="translate(2684.527344 0)"/>
     <use xlink:href="#DejaVuSerif-74" transform="translate(2740.533203 0)"/>
     <use xlink:href="#DejaVuSerif-6f" transform="translate(2780.71875 0)"/>
     <use xlink:href="#DejaVuSerif-72" transform="translate(2840.923828 0)"/>
     <use xlink:href="#DejaVuSerif-73" transform="translate(2888.726562 0)"/>
    </g>
   </g>
  </g>
 </g>
 <defs>
  <clipPath id="p2a672d7a3b">
   <rect x="40.31125" y="37.819969" width="518.46" height="279.94"/>
  </clipPath>
 </defs>
</svg>
