<?xml version="1.0" encoding="utf-8" standalone="no"?>
<!DOCTYPE svg PUBLIC "-//W3C//DTD SVG 1.1//EN"
  "http://www.w3.org/Graphics/SVG/1.1/DTD/svg11.dtd">
<svg xmlns:xlink="http://www.w3.org/1999/xlink" width="998.861719pt" height="443.720312pt" viewBox="0 0 998.861719 443.720312" xmlns="http://www.w3.org/2000/svg" version="1.1">
 <metadata>
  <rdf:RDF xmlns:dc="http://purl.org/dc/elements/1.1/" xmlns:cc="http://creativecommons.org/ns#" xmlns:rdf="http://www.w3.org/1999/02/22-rdf-syntax-ns#">
   <cc:Work>
    <dc:type rdf:resource="http://purl.org/dc/dcmitype/StillImage"/>
    <dc:date>2026-01-07T22:07:38.887663</dc:date>
    <dc:format>image/svg+xml</dc:format>
    <dc:creator>
     <cc:Agent>
      <dc:title>Matplotlib v3.10.8, https://matplotlib.org/</dc:title>
     </cc:Agent>
    </dc:creator>
   </cc:Work>
  </rdf:RDF>
 </metadata>
 <defs>
  <style type="text/css">*{stroke-linejoin: round; stroke-linecap: butt}</style>
 </defs>
 <g id="figure_1">
  <g id="patch_1">
   <path d="M 0 443.720312 
L 998.861719 443.720312 
L 998.861719 0 
L 0 0 
z
" style="fill: #ffffff"/>
  </g>
  <g id="axes_1">
   <g id="patch_2">
    <path d="M 87.921719 407.58 
L 493.921719 407.58 
L 493.921719 66.48 
L 87.921719 66.48 
z
" style="fill: #ffffff"/>
   </g>
   <g id="matplotlib.axis_1">
    <g id="xtick_1">
     <g id="line2d_1">
      <path d="M 87.921719 407.58 
L 87.921719 66.48 
" clip-path="url(#p0543ce2380)" style="fill: none; stroke: #cccccc; stroke-width: 0.8; stroke-linecap: round"/>
     </g>
     <g id="line2d_2"/>
     <g id="text_1">
      <!-- −0.2 -->
      <g style="fill: #262626" transform="translate(77.064375 419.051562) scale(0.11 -0.11)">
       <defs>
        <path id="LiberationSans-2212" d="M 316 1900 
L 316 2356 
L 3425 2356 
L 3425 1900 
L 316 1900 
z
" transform="scale(0.015625)"/>
        <path id="LiberationSans-30" d="M 3309 2203 
Q 3309 1100 2920 518 
Q 2531 -63 1772 -63 
Q 1013 -63 631 515 
Q 250 1094 250 2203 
Q 250 3338 620 3903 
Q 991 4469 1791 4469 
Q 2569 4469 2939 3897 
Q 3309 3325 3309 2203 
z
M 2738 2203 
Q 2738 3156 2517 3584 
Q 2297 4013 1791 4013 
Q 1272 4013 1045 3591 
Q 819 3169 819 2203 
Q 819 1266 1048 831 
Q 1278 397 1778 397 
Q 2275 397 2506 840 
Q 2738 1284 2738 2203 
z
" transform="scale(0.015625)"/>
        <path id="LiberationSans-2e" d="M 584 0 
L 584 684 
L 1194 684 
L 1194 0 
L 584 0 
z
" transform="scale(0.015625)"/>
        <path id="LiberationSans-32" d="M 322 0 
L 322 397 
Q 481 763 711 1042 
Q 941 1322 1194 1548 
Q 1447 1775 1695 1969 
Q 1944 2163 2144 2356 
Q 2344 2550 2467 2762 
Q 2591 2975 2591 3244 
Q 2591 3606 2378 3806 
Q 2166 4006 1788 4006 
Q 1428 4006 1195 3811 
Q 963 3616 922 3263 
L 347 3316 
Q 409 3844 795 4156 
Q 1181 4469 1788 4469 
Q 2453 4469 2811 4155 
Q 3169 3841 3169 3263 
Q 3169 3006 3051 2753 
Q 2934 2500 2703 2247 
Q 2472 1994 1819 1463 
Q 1459 1169 1246 933 
Q 1034 697 941 478 
L 3238 478 
L 3238 0 
L 322 0 
z
" transform="scale(0.015625)"/>
       </defs>
       <use xlink:href="#LiberationSans-2212"/>
       <use xlink:href="#LiberationSans-30" transform="translate(58.398438 0)"/>
       <use xlink:href="#LiberationSans-2e" transform="translate(114.013672 0)"/>
       <use xlink:href="#LiberationSans-32" transform="translate(141.796875 0)"/>
      </g>
     </g>
    </g>
    <g id="xtick_2">
     <g id="line2d_3">
      <path d="M 145.921719 407.58 
L 145.921719 66.48 
" clip-path="url(#p0543ce2380)" style="fill: none; stroke: #cccccc; stroke-width: 0.8; stroke-linecap: round"/>
     </g>
     <g id="line2d_4"/>
     <g id="text_2">
      <!-- −0.1 -->
      <g style="fill: #262626" transform="translate(135.064375 419.051562) scale(0.11 -0.11)">
       <defs>
        <path id="LiberationSans-31" d="M 488 0 
L 488 478 
L 1609 478 
L 1609 3866 
L 616 3156 
L 616 3688 
L 1656 4403 
L 2175 4403 
L 2175 478 
L 3247 478 
L 3247 0 
L 488 0 
z
" transform="scale(0.015625)"/>
       </defs>
       <use xlink:href="#LiberationSans-2212"/>
       <use xlink:href="#LiberationSans-30" transform="translate(58.398438 0)"/>
       <use xlink:href="#LiberationSans-2e" transform="translate(114.013672 0)"/>
       <use xlink:href="#LiberationSans-31" transform="translate(141.796875 0)"/>
      </g>
     </g>
    </g>
    <g id="xtick_3">
     <g id="line2d_5">
      <path d="M 203.921719 407.58 
L 203.921719 66.48 
" clip-path="url(#p0543ce2380)" style="fill: none; stroke: #cccccc; stroke-width: 0.8; stroke-linecap: round"/>
     </g>
     <g id="line2d_6"/>
     <g id="text_3">
      <!-- 0.0 -->
      <g style="fill: #262626" transform="translate(196.276719 419.051562) scale(0.11 -0.11)">
       <use xlink:href="#LiberationSans-30"/>
       <use xlink:href="#LiberationSans-2e" transform="translate(55.615234 0)"/>
       <use xlink:href="#LiberationSans-30" transform="translate(83.398438 0)"/>
      </g>
     </g>
    </g>
    <g id="xtick_4">
     <g id="line2d_7">
      <path d="M 261.921719 407.58 
L 261.921719 66.48 
" clip-path="url(#p0543ce2380)" style="fill: none; stroke: #cccccc; stroke-width: 0.8; stroke-linecap: round"/>
     </g>
     <g id="line2d_8"/>
     <g id="text_4">
      <!-- 0.1 -->
      <g style="fill: #262626" transform="translate(254.276719 419.051562) scale(0.11 -0.11)">
       <use xlink:href="#LiberationSans-30"/>
       <use xlink:href="#LiberationSans-2e" transform="translate(55.615234 0)"/>
       <use xlink:href="#LiberationSans-31" transform="translate(83.398438 0)"/>
      </g>
     </g>
    </g>
    <g id="xtick_5">
     <g id="line2d_9">
      <path d="M 319.921719 407.58 
L 319.921719 66.48 
" clip-path="url(#p0543ce2380)" style="fill: none; stroke: #cccccc; stroke-width: 0.8; stroke-linecap: round"/>
     </g>
     <g id="line2d_10"/>
     <g id="text_5">
      <!-- 0.2 -->
      <g style="fill: #262626" transform="translate(312.276719 419.051562) scale(0.11 -0.11)">
       <use xlink:href="#LiberationSans-30"/>
       <use xlink:href="#LiberationSans-2e" transform="translate(55.615234 0)"/>
       <use xlink:href="#LiberationSans-32" transform="translate(83.398438 0)"/>
      </g>
     </g>
    </g>
    <g id="xtick_6">
     <g id="line2d_11">
      <path d="M 377.921719 407.58 
L 377.921719 66.48 
" clip-path="url(#p0543ce2380)" style="fill: none; stroke: #cccccc; stroke-width: 0.8; stroke-linecap: round"/>
     </g>
     <g id="line2d_12"/>
     <g id="text_6">
      <!-- 0.3 -->
      <g style="fill: #262626" transform="translate(370.276719 419.051562) scale(0.11 -0.11)">
       <defs>
        <path id="LiberationSans-33" d="M 3278 1216 
Q 3278 606 2890 271 
Q 2503 -63 1784 -63 
Q 1116 -63 717 239 
Q 319 541 244 1131 
L 825 1184 
Q 938 403 1784 403 
Q 2209 403 2451 612 
Q 2694 822 2694 1234 
Q 2694 1594 2417 1795 
Q 2141 1997 1619 1997 
L 1300 1997 
L 1300 2484 
L 1606 2484 
Q 2069 2484 2323 2686 
Q 2578 2888 2578 3244 
Q 2578 3597 2370 3801 
Q 2163 4006 1753 4006 
Q 1381 4006 1151 3815 
Q 922 3625 884 3278 
L 319 3322 
Q 381 3863 767 4166 
Q 1153 4469 1759 4469 
Q 2422 4469 2789 4161 
Q 3156 3853 3156 3303 
Q 3156 2881 2920 2617 
Q 2684 2353 2234 2259 
L 2234 2247 
Q 2728 2194 3003 1916 
Q 3278 1638 3278 1216 
z
" transform="scale(0.015625)"/>
       </defs>
       <use xlink:href="#LiberationSans-30"/>
       <use xlink:href="#LiberationSans-2e" transform="translate(55.615234 0)"/>
       <use xlink:href="#LiberationSans-33" transform="translate(83.398438 0)"/>
      </g>
     </g>
    </g>
    <g id="xtick_7">
     <g id="line2d_13">
      <path d="M 435.921719 407.58 
L 435.921719 66.48 
" clip-path="url(#p0543ce2380)" style="fill: none; stroke: #cccccc; stroke-width: 0.8; stroke-linecap: round"/>
     </g>
     <g id="line2d_14"/>
     <g id="text_7">
      <!-- 0.4 -->
      <g style="fill: #262626" transform="translate(428.276719 419.051562) scale(0.11 -0.11)">
       <defs>
        <path id="LiberationSans-34" d="M 2753 997 
L 2753 0 
L 2222 0 
L 2222 997 
L 147 997 
L 147 1434 
L 2163 4403 
L 2753 4403 
L 2753 1441 
L 3372 1441 
L 3372 997 
L 2753 997 
z
M 2222 3769 
Q 2216 3750 2134 3603 
Q 2053 3456 2013 3397 
L 884 1734 
L 716 1503 
L 666 1441 
L 2222 1441 
L 2222 3769 
z
" transform="scale(0.015625)"/>
       </defs>
       <use xlink:href="#LiberationSans-30"/>
       <use xlink:href="#LiberationSans-2e" transform="translate(55.615234 0)"/>
       <use xlink:href="#LiberationSans-34" transform="translate(83.398438 0)"/>
      </g>
     </g>
    </g>
    <g id="xtick_8">
     <g id="line2d_15">
      <path d="M 493.921719 407.58 
L 493.921719 66.48 
" clip-path="url(#p0543ce2380)" style="fill: none; stroke: #cccccc; stroke-width: 0.8; stroke-linecap: round"/>
     </g>
     <g id="line2d_16"/>
     <g id="text_8">
      <!-- 0.5 -->
      <g style="fill: #262626" transform="translate(486.276719 419.051562) scale(0.11 -0.11)">
       <defs>
        <path id="LiberationSans-35" d="M 3291 1434 
Q 3291 738 2877 337 
Q 2463 -63 1728 -63 
Q 1113 -63 734 206 
Q 356 475 256 984 
L 825 1050 
Q 1003 397 1741 397 
Q 2194 397 2450 670 
Q 2706 944 2706 1422 
Q 2706 1838 2448 2094 
Q 2191 2350 1753 2350 
Q 1525 2350 1328 2278 
Q 1131 2206 934 2034 
L 384 2034 
L 531 4403 
L 3034 4403 
L 3034 3925 
L 1044 3925 
L 959 2528 
Q 1325 2809 1869 2809 
Q 2519 2809 2905 2428 
Q 3291 2047 3291 1434 
z
" transform="scale(0.015625)"/>
       </defs>
       <use xlink:href="#LiberationSans-30"/>
       <use xlink:href="#LiberationSans-2e" transform="translate(55.615234 0)"/>
       <use xlink:href="#LiberationSans-35" transform="translate(83.398438 0)"/>
      </g>
     </g>
    </g>
    <g id="text_9">
     <!-- Raw Delta -->
     <g style="fill: #262626" transform="translate(263.245781 434.030312) scale(0.12 -0.12)">
      <defs>
       <path id="LiberationSans-52" d="M 3638 0 
L 2494 1828 
L 1122 1828 
L 1122 0 
L 525 0 
L 525 4403 
L 2597 4403 
Q 3341 4403 3745 4070 
Q 4150 3738 4150 3144 
Q 4150 2653 3864 2318 
Q 3578 1984 3075 1897 
L 4325 0 
L 3638 0 
z
M 3550 3138 
Q 3550 3522 3289 3723 
Q 3028 3925 2538 3925 
L 1122 3925 
L 1122 2300 
L 2563 2300 
Q 3034 2300 3292 2520 
Q 3550 2741 3550 3138 
z
" transform="scale(0.015625)"/>
       <path id="LiberationSans-61" d="M 1294 -63 
Q 784 -63 528 206 
Q 272 475 272 944 
Q 272 1469 617 1750 
Q 963 2031 1731 2050 
L 2491 2063 
L 2491 2247 
Q 2491 2659 2316 2837 
Q 2141 3016 1766 3016 
Q 1388 3016 1216 2887 
Q 1044 2759 1009 2478 
L 422 2531 
Q 566 3444 1778 3444 
Q 2416 3444 2737 3151 
Q 3059 2859 3059 2306 
L 3059 850 
Q 3059 600 3125 473 
Q 3191 347 3375 347 
Q 3456 347 3559 369 
L 3559 19 
Q 3347 -31 3125 -31 
Q 2813 -31 2670 133 
Q 2528 297 2509 647 
L 2491 647 
Q 2275 259 1989 98 
Q 1703 -63 1294 -63 
z
M 1422 359 
Q 1731 359 1972 500 
Q 2213 641 2352 886 
Q 2491 1131 2491 1391 
L 2491 1669 
L 1875 1656 
Q 1478 1650 1273 1575 
Q 1069 1500 959 1344 
Q 850 1188 850 934 
Q 850 659 998 509 
Q 1147 359 1422 359 
z
" transform="scale(0.015625)"/>
       <path id="LiberationSans-77" d="M 3669 0 
L 3016 0 
L 2425 2391 
L 2313 2919 
Q 2284 2778 2225 2514 
Q 2166 2250 1588 0 
L 938 0 
L -9 3381 
L 547 3381 
L 1119 1084 
Q 1141 1009 1253 466 
L 1306 697 
L 2013 3381 
L 2616 3381 
L 3206 1059 
L 3350 466 
L 3447 900 
L 4088 3381 
L 4638 3381 
L 3669 0 
z
" transform="scale(0.015625)"/>
       <path id="LiberationSans-20" transform="scale(0.015625)"/>
       <path id="LiberationSans-44" d="M 4316 2247 
Q 4316 1566 4050 1055 
Q 3784 544 3296 272 
Q 2809 0 2172 0 
L 525 0 
L 525 4403 
L 1981 4403 
Q 3100 4403 3708 3842 
Q 4316 3281 4316 2247 
z
M 3716 2247 
Q 3716 3066 3267 3495 
Q 2819 3925 1969 3925 
L 1122 3925 
L 1122 478 
L 2103 478 
Q 2588 478 2955 690 
Q 3322 903 3519 1303 
Q 3716 1703 3716 2247 
z
" transform="scale(0.015625)"/>
       <path id="LiberationSans-65" d="M 863 1572 
Q 863 991 1103 675 
Q 1344 359 1806 359 
Q 2172 359 2392 506 
Q 2613 653 2691 878 
L 3184 738 
Q 2881 -63 1806 -63 
Q 1056 -63 664 384 
Q 272 831 272 1713 
Q 272 2550 664 2997 
Q 1056 3444 1784 3444 
Q 3275 3444 3275 1647 
L 3275 1572 
L 863 1572 
z
M 2694 2003 
Q 2647 2538 2422 2783 
Q 2197 3028 1775 3028 
Q 1366 3028 1127 2754 
Q 888 2481 869 2003 
L 2694 2003 
z
" transform="scale(0.015625)"/>
       <path id="LiberationSans-6c" d="M 431 0 
L 431 4638 
L 994 4638 
L 994 0 
L 431 0 
z
" transform="scale(0.015625)"/>
       <path id="LiberationSans-74" d="M 1731 25 
Q 1453 -50 1163 -50 
Q 488 -50 488 716 
L 488 2972 
L 97 2972 
L 97 3381 
L 509 3381 
L 675 4138 
L 1050 4138 
L 1050 3381 
L 1675 3381 
L 1675 2972 
L 1050 2972 
L 1050 838 
Q 1050 594 1129 495 
Q 1209 397 1406 397 
Q 1519 397 1731 441 
L 1731 25 
z
" transform="scale(0.015625)"/>
      </defs>
      <use xlink:href="#LiberationSans-52"/>
      <use xlink:href="#LiberationSans-61" transform="translate(72.216797 0)"/>
      <use xlink:href="#LiberationSans-77" transform="translate(127.832031 0)"/>
      <use xlink:href="#LiberationSans-20" transform="translate(200.048828 0)"/>
      <use xlink:href="#LiberationSans-44" transform="translate(227.832031 0)"/>
      <use xlink:href="#LiberationSans-65" transform="translate(300.048828 0)"/>
      <use xlink:href="#LiberationSans-6c" transform="translate(355.664062 0)"/>
      <use xlink:href="#LiberationSans-74" transform="translate(377.880859 0)"/>
      <use xlink:href="#LiberationSans-61" transform="translate(405.664062 0)"/>
     </g>
    </g>
   </g>
   <g id="matplotlib.axis_2">
    <g id="ytick_1">
     <g id="line2d_17">
      <path d="M 87.921719 382.385114 
L 493.921719 382.385114 
" clip-path="url(#p0543ce2380)" style="fill: none; stroke: #cccccc; stroke-width: 0.8; stroke-linecap: round"/>
     </g>
     <g id="line2d_18"/>
     <g id="text_10">
      <!-- UNCERTAINTY -->
      <g style="fill: #262626" transform="translate(7.2 386.370895) scale(0.11 -0.11)">
       <defs>
        <path id="LiberationSans-55" d="M 2284 -63 
Q 1744 -63 1341 134 
Q 938 331 716 706 
Q 494 1081 494 1600 
L 494 4403 
L 1091 4403 
L 1091 1650 
Q 1091 1047 1397 734 
Q 1703 422 2281 422 
Q 2875 422 3204 745 
Q 3534 1069 3534 1691 
L 3534 4403 
L 4128 4403 
L 4128 1656 
Q 4128 1122 3901 734 
Q 3675 347 3261 142 
Q 2847 -63 2284 -63 
z
" transform="scale(0.015625)"/>
        <path id="LiberationSans-4e" d="M 3381 0 
L 1025 3750 
L 1041 3447 
L 1056 2925 
L 1056 0 
L 525 0 
L 525 4403 
L 1219 4403 
L 3600 628 
Q 3563 1241 3563 1516 
L 3563 4403 
L 4100 4403 
L 4100 0 
L 3381 0 
z
" transform="scale(0.015625)"/>
        <path id="LiberationSans-43" d="M 2475 3981 
Q 1744 3981 1337 3511 
Q 931 3041 931 2222 
Q 931 1413 1354 920 
Q 1778 428 2500 428 
Q 3425 428 3891 1344 
L 4378 1100 
Q 4106 531 3614 234 
Q 3122 -63 2472 -63 
Q 1806 -63 1320 214 
Q 834 491 579 1005 
Q 325 1519 325 2222 
Q 325 3275 894 3872 
Q 1463 4469 2469 4469 
Q 3172 4469 3644 4194 
Q 4116 3919 4338 3378 
L 3772 3191 
Q 3619 3575 3280 3778 
Q 2941 3981 2475 3981 
z
" transform="scale(0.015625)"/>
        <path id="LiberationSans-45" d="M 525 0 
L 525 4403 
L 3866 4403 
L 3866 3916 
L 1122 3916 
L 1122 2503 
L 3678 2503 
L 3678 2022 
L 1122 2022 
L 1122 488 
L 3994 488 
L 3994 0 
L 525 0 
z
" transform="scale(0.015625)"/>
        <path id="LiberationSans-54" d="M 2250 3916 
L 2250 0 
L 1656 0 
L 1656 3916 
L 144 3916 
L 144 4403 
L 3763 4403 
L 3763 3916 
L 2250 3916 
z
" transform="scale(0.015625)"/>
        <path id="LiberationSans-41" d="M 3647 0 
L 3144 1288 
L 1138 1288 
L 631 0 
L 13 0 
L 1809 4403 
L 2488 4403 
L 4256 0 
L 3647 0 
z
M 2141 3953 
L 2113 3866 
Q 2034 3606 1881 3200 
L 1319 1753 
L 2966 1753 
L 2400 3206 
Q 2313 3422 2225 3694 
L 2141 3953 
z
" transform="scale(0.015625)"/>
        <path id="LiberationSans-49" d="M 591 0 
L 591 4403 
L 1188 4403 
L 1188 0 
L 591 0 
z
" transform="scale(0.015625)"/>
        <path id="LiberationSans-59" d="M 2428 1825 
L 2428 0 
L 1834 0 
L 1834 1825 
L 141 4403 
L 797 4403 
L 2138 2306 
L 3472 4403 
L 4128 4403 
L 2428 1825 
z
" transform="scale(0.015625)"/>
       </defs>
       <use xlink:href="#LiberationSans-55"/>
       <use xlink:href="#LiberationSans-4e" transform="translate(72.216797 0)"/>
       <use xlink:href="#LiberationSans-43" transform="translate(144.433594 0)"/>
       <use xlink:href="#LiberationSans-45" transform="translate(216.650391 0)"/>
       <use xlink:href="#LiberationSans-52" transform="translate(283.349609 0)"/>
       <use xlink:href="#LiberationSans-54" transform="translate(353.816406 0)"/>
       <use xlink:href="#LiberationSans-41" transform="translate(407.525391 0)"/>
       <use xlink:href="#LiberationSans-49" transform="translate(474.224609 0)"/>
       <use xlink:href="#LiberationSans-4e" transform="translate(502.007812 0)"/>
       <use xlink:href="#LiberationSans-54" transform="translate(574.224609 0)"/>
       <use xlink:href="#LiberationSans-59" transform="translate(635.308594 0)"/>
      </g>
     </g>
    </g>
    <g id="ytick_2">
     <g id="line2d_19">
      <path d="M 87.921719 358.159261 
L 493.921719 358.159261 
" clip-path="url(#p0543ce2380)" style="fill: none; stroke: #cccccc; stroke-width: 0.8; stroke-linecap: round"/>
     </g>
     <g id="line2d_20"/>
     <g id="text_11">
      <!-- change -->
      <g style="fill: #262626" transform="translate(48.336562 362.145043) scale(0.11 -0.11)">
       <defs>
        <path id="LiberationSans-63" d="M 859 1706 
Q 859 1031 1071 706 
Q 1284 381 1713 381 
Q 2013 381 2214 543 
Q 2416 706 2463 1044 
L 3031 1006 
Q 2966 519 2616 228 
Q 2266 -63 1728 -63 
Q 1019 -63 645 385 
Q 272 834 272 1694 
Q 272 2547 647 2995 
Q 1022 3444 1722 3444 
Q 2241 3444 2583 3175 
Q 2925 2906 3013 2434 
L 2434 2391 
Q 2391 2672 2212 2837 
Q 2034 3003 1706 3003 
Q 1259 3003 1059 2706 
Q 859 2409 859 1706 
z
" transform="scale(0.015625)"/>
        <path id="LiberationSans-68" d="M 991 2803 
Q 1172 3134 1426 3289 
Q 1681 3444 2072 3444 
Q 2622 3444 2883 3170 
Q 3144 2897 3144 2253 
L 3144 0 
L 2578 0 
L 2578 2144 
Q 2578 2500 2512 2673 
Q 2447 2847 2297 2928 
Q 2147 3009 1881 3009 
Q 1484 3009 1245 2734 
Q 1006 2459 1006 1994 
L 1006 0 
L 444 0 
L 444 4638 
L 1006 4638 
L 1006 3431 
Q 1006 3241 995 3037 
Q 984 2834 981 2803 
L 991 2803 
z
" transform="scale(0.015625)"/>
        <path id="LiberationSans-6e" d="M 2578 0 
L 2578 2144 
Q 2578 2478 2512 2662 
Q 2447 2847 2303 2928 
Q 2159 3009 1881 3009 
Q 1475 3009 1240 2731 
Q 1006 2453 1006 1959 
L 1006 0 
L 444 0 
L 444 2659 
Q 444 3250 425 3381 
L 956 3381 
Q 959 3366 962 3297 
Q 966 3228 970 3139 
Q 975 3050 981 2803 
L 991 2803 
Q 1184 3153 1439 3298 
Q 1694 3444 2072 3444 
Q 2628 3444 2886 3167 
Q 3144 2891 3144 2253 
L 3144 0 
L 2578 0 
z
" transform="scale(0.015625)"/>
        <path id="LiberationSans-67" d="M 1713 -1328 
Q 1159 -1328 831 -1111 
Q 503 -894 409 -494 
L 975 -413 
Q 1031 -647 1223 -773 
Q 1416 -900 1728 -900 
Q 2569 -900 2569 84 
L 2569 628 
L 2563 628 
Q 2403 303 2125 139 
Q 1847 -25 1475 -25 
Q 853 -25 561 387 
Q 269 800 269 1684 
Q 269 2581 583 3007 
Q 897 3434 1538 3434 
Q 1897 3434 2161 3270 
Q 2425 3106 2569 2803 
L 2575 2803 
Q 2575 2897 2587 3128 
Q 2600 3359 2613 3381 
L 3147 3381 
Q 3128 3213 3128 2681 
L 3128 97 
Q 3128 -1328 1713 -1328 
z
M 2569 1691 
Q 2569 2103 2456 2401 
Q 2344 2700 2139 2858 
Q 1934 3016 1675 3016 
Q 1244 3016 1047 2703 
Q 850 2391 850 1691 
Q 850 997 1034 694 
Q 1219 391 1666 391 
Q 1931 391 2137 547 
Q 2344 703 2456 995 
Q 2569 1288 2569 1691 
z
" transform="scale(0.015625)"/>
       </defs>
       <use xlink:href="#LiberationSans-63"/>
       <use xlink:href="#LiberationSans-68" transform="translate(50 0)"/>
       <use xlink:href="#LiberationSans-61" transform="translate(105.615234 0)"/>
       <use xlink:href="#LiberationSans-6e" transform="translate(161.230469 0)"/>
       <use xlink:href="#LiberationSans-67" transform="translate(216.845703 0)"/>
       <use xlink:href="#LiberationSans-65" transform="translate(272.460938 0)"/>
      </g>
     </g>
    </g>
    <g id="ytick_3">
     <g id="line2d_21">
      <path d="M 87.921719 333.933409 
L 493.921719 333.933409 
" clip-path="url(#p0543ce2380)" style="fill: none; stroke: #cccccc; stroke-width: 0.8; stroke-linecap: round"/>
     </g>
     <g id="line2d_22"/>
     <g id="text_12">
      <!-- clarity -->
      <g style="fill: #262626" transform="translate(55.697969 337.91919) scale(0.11 -0.11)">
       <defs>
        <path id="LiberationSans-72" d="M 444 0 
L 444 2594 
Q 444 2950 425 3381 
L 956 3381 
Q 981 2806 981 2691 
L 994 2691 
Q 1128 3125 1303 3284 
Q 1478 3444 1797 3444 
Q 1909 3444 2025 3413 
L 2025 2897 
Q 1913 2928 1725 2928 
Q 1375 2928 1190 2626 
Q 1006 2325 1006 1763 
L 1006 0 
L 444 0 
z
" transform="scale(0.015625)"/>
        <path id="LiberationSans-69" d="M 428 4100 
L 428 4638 
L 991 4638 
L 991 4100 
L 428 4100 
z
M 428 0 
L 428 3381 
L 991 3381 
L 991 0 
L 428 0 
z
" transform="scale(0.015625)"/>
        <path id="LiberationSans-79" d="M 597 -1328 
Q 366 -1328 209 -1294 
L 209 -872 
Q 328 -891 472 -891 
Q 997 -891 1303 -119 
L 1356 16 
L 16 3381 
L 616 3381 
L 1328 1513 
Q 1344 1469 1366 1408 
Q 1388 1347 1506 1000 
Q 1625 653 1634 613 
L 1853 1228 
L 2594 3381 
L 3188 3381 
L 1888 0 
Q 1678 -541 1497 -805 
Q 1316 -1069 1095 -1198 
Q 875 -1328 597 -1328 
z
" transform="scale(0.015625)"/>
       </defs>
       <use xlink:href="#LiberationSans-63"/>
       <use xlink:href="#LiberationSans-6c" transform="translate(50 0)"/>
       <use xlink:href="#LiberationSans-61" transform="translate(72.216797 0)"/>
       <use xlink:href="#LiberationSans-72" transform="translate(127.832031 0)"/>
       <use xlink:href="#LiberationSans-69" transform="translate(161.132812 0)"/>
       <use xlink:href="#LiberationSans-74" transform="translate(183.349609 0)"/>
       <use xlink:href="#LiberationSans-79" transform="translate(211.132812 0)"/>
      </g>
     </g>
    </g>
    <g id="ytick_4">
     <g id="line2d_23">
      <path d="M 87.921719 309.707557 
L 493.921719 309.707557 
" clip-path="url(#p0543ce2380)" style="fill: none; stroke: #cccccc; stroke-width: 0.8; stroke-linecap: round"/>
     </g>
     <g id="line2d_24"/>
     <g id="text_13">
      <!-- coherence -->
      <g style="fill: #262626" transform="translate(33.056875 313.693338) scale(0.11 -0.11)">
       <defs>
        <path id="LiberationSans-6f" d="M 3291 1694 
Q 3291 806 2900 371 
Q 2509 -63 1766 -63 
Q 1025 -63 647 389 
Q 269 841 269 1694 
Q 269 3444 1784 3444 
Q 2559 3444 2925 3017 
Q 3291 2591 3291 1694 
z
M 2700 1694 
Q 2700 2394 2492 2711 
Q 2284 3028 1794 3028 
Q 1300 3028 1079 2704 
Q 859 2381 859 1694 
Q 859 1025 1076 689 
Q 1294 353 1759 353 
Q 2266 353 2483 678 
Q 2700 1003 2700 1694 
z
" transform="scale(0.015625)"/>
       </defs>
       <use xlink:href="#LiberationSans-63"/>
       <use xlink:href="#LiberationSans-6f" transform="translate(50 0)"/>
       <use xlink:href="#LiberationSans-68" transform="translate(105.615234 0)"/>
       <use xlink:href="#LiberationSans-65" transform="translate(161.230469 0)"/>
       <use xlink:href="#LiberationSans-72" transform="translate(216.845703 0)"/>
       <use xlink:href="#LiberationSans-65" transform="translate(250.146484 0)"/>
       <use xlink:href="#LiberationSans-6e" transform="translate(305.761719 0)"/>
       <use xlink:href="#LiberationSans-63" transform="translate(361.376953 0)"/>
       <use xlink:href="#LiberationSans-65" transform="translate(411.376953 0)"/>
      </g>
     </g>
    </g>
    <g id="ytick_5">
     <g id="line2d_25">
      <path d="M 87.921719 285.481705 
L 493.921719 285.481705 
" clip-path="url(#p0543ce2380)" style="fill: none; stroke: #cccccc; stroke-width: 0.8; stroke-linecap: round"/>
     </g>
     <g id="line2d_26"/>
     <g id="text_14">
      <!-- completion -->
      <g style="fill: #262626" transform="translate(31.229844 289.467486) scale(0.11 -0.11)">
       <defs>
        <path id="LiberationSans-6d" d="M 2400 0 
L 2400 2144 
Q 2400 2634 2265 2821 
Q 2131 3009 1781 3009 
Q 1422 3009 1212 2734 
Q 1003 2459 1003 1959 
L 1003 0 
L 444 0 
L 444 2659 
Q 444 3250 425 3381 
L 956 3381 
Q 959 3366 962 3297 
Q 966 3228 970 3139 
Q 975 3050 981 2803 
L 991 2803 
Q 1172 3163 1406 3303 
Q 1641 3444 1978 3444 
Q 2363 3444 2586 3291 
Q 2809 3138 2897 2803 
L 2906 2803 
Q 3081 3144 3329 3294 
Q 3578 3444 3931 3444 
Q 4444 3444 4676 3166 
Q 4909 2888 4909 2253 
L 4909 0 
L 4353 0 
L 4353 2144 
Q 4353 2634 4218 2821 
Q 4084 3009 3734 3009 
Q 3366 3009 3161 2736 
Q 2956 2463 2956 1959 
L 2956 0 
L 2400 0 
z
" transform="scale(0.015625)"/>
        <path id="LiberationSans-70" d="M 3291 1706 
Q 3291 -63 2047 -63 
Q 1266 -63 997 525 
L 981 525 
Q 994 500 994 -6 
L 994 -1328 
L 431 -1328 
L 431 2691 
Q 431 3213 413 3381 
L 956 3381 
Q 959 3369 965 3292 
Q 972 3216 980 3056 
Q 988 2897 988 2838 
L 1000 2838 
Q 1150 3150 1397 3295 
Q 1644 3441 2047 3441 
Q 2672 3441 2981 3022 
Q 3291 2603 3291 1706 
z
M 2700 1694 
Q 2700 2400 2509 2703 
Q 2319 3006 1903 3006 
Q 1569 3006 1380 2865 
Q 1191 2725 1092 2426 
Q 994 2128 994 1650 
Q 994 984 1206 668 
Q 1419 353 1897 353 
Q 2316 353 2508 661 
Q 2700 969 2700 1694 
z
" transform="scale(0.015625)"/>
       </defs>
       <use xlink:href="#LiberationSans-63"/>
       <use xlink:href="#LiberationSans-6f" transform="translate(50 0)"/>
       <use xlink:href="#LiberationSans-6d" transform="translate(105.615234 0)"/>
       <use xlink:href="#LiberationSans-70" transform="translate(188.916016 0)"/>
       <use xlink:href="#LiberationSans-6c" transform="translate(244.53125 0)"/>
       <use xlink:href="#LiberationSans-65" transform="translate(266.748047 0)"/>
       <use xlink:href="#LiberationSans-74" transform="translate(322.363281 0)"/>
       <use xlink:href="#LiberationSans-69" transform="translate(350.146484 0)"/>
       <use xlink:href="#LiberationSans-6f" transform="translate(372.363281 0)"/>
       <use xlink:href="#LiberationSans-6e" transform="translate(427.978516 0)"/>
      </g>
     </g>
    </g>
    <g id="ytick_6">
     <g id="line2d_27">
      <path d="M 87.921719 261.255852 
L 493.921719 261.255852 
" clip-path="url(#p0543ce2380)" style="fill: none; stroke: #cccccc; stroke-width: 0.8; stroke-linecap: round"/>
     </g>
     <g id="line2d_28"/>
     <g id="text_15">
      <!-- context -->
      <g style="fill: #262626" transform="translate(48.95875 265.241634) scale(0.11 -0.11)">
       <defs>
        <path id="LiberationSans-78" d="M 2503 0 
L 1594 1388 
L 678 0 
L 72 0 
L 1275 1738 
L 128 3381 
L 750 3381 
L 1594 2066 
L 2431 3381 
L 3059 3381 
L 1913 1744 
L 3131 0 
L 2503 0 
z
" transform="scale(0.015625)"/>
       </defs>
       <use xlink:href="#LiberationSans-63"/>
       <use xlink:href="#LiberationSans-6f" transform="translate(50 0)"/>
       <use xlink:href="#LiberationSans-6e" transform="translate(105.615234 0)"/>
       <use xlink:href="#LiberationSans-74" transform="translate(161.230469 0)"/>
       <use xlink:href="#LiberationSans-65" transform="translate(189.013672 0)"/>
       <use xlink:href="#LiberationSans-78" transform="translate(244.628906 0)"/>
       <use xlink:href="#LiberationSans-74" transform="translate(294.628906 0)"/>
      </g>
     </g>
    </g>
    <g id="ytick_7">
     <g id="line2d_29">
      <path d="M 87.921719 237.03 
L 493.921719 237.03 
" clip-path="url(#p0543ce2380)" style="fill: none; stroke: #cccccc; stroke-width: 0.8; stroke-linecap: round"/>
     </g>
     <g id="line2d_30"/>
     <g id="text_16">
      <!-- density -->
      <g style="fill: #262626" transform="translate(49.570625 241.015781) scale(0.11 -0.11)">
       <defs>
        <path id="LiberationSans-64" d="M 2566 544 
Q 2409 219 2151 78 
Q 1894 -63 1513 -63 
Q 872 -63 570 368 
Q 269 800 269 1675 
Q 269 3444 1513 3444 
Q 1897 3444 2153 3303 
Q 2409 3163 2566 2856 
L 2572 2856 
L 2566 3234 
L 2566 4638 
L 3128 4638 
L 3128 697 
Q 3128 169 3147 0 
L 2609 0 
Q 2600 50 2589 231 
Q 2578 413 2578 544 
L 2566 544 
z
M 859 1694 
Q 859 984 1046 678 
Q 1234 372 1656 372 
Q 2134 372 2350 703 
Q 2566 1034 2566 1731 
Q 2566 2403 2350 2715 
Q 2134 3028 1663 3028 
Q 1238 3028 1048 2714 
Q 859 2400 859 1694 
z
" transform="scale(0.015625)"/>
        <path id="LiberationSans-73" d="M 2969 934 
Q 2969 456 2608 196 
Q 2247 -63 1597 -63 
Q 966 -63 623 145 
Q 281 353 178 794 
L 675 891 
Q 747 619 972 492 
Q 1197 366 1597 366 
Q 2025 366 2223 497 
Q 2422 628 2422 891 
Q 2422 1091 2284 1216 
Q 2147 1341 1841 1422 
L 1438 1528 
Q 953 1653 748 1773 
Q 544 1894 428 2066 
Q 313 2238 313 2488 
Q 313 2950 642 3192 
Q 972 3434 1603 3434 
Q 2163 3434 2492 3237 
Q 2822 3041 2909 2606 
L 2403 2544 
Q 2356 2769 2151 2889 
Q 1947 3009 1603 3009 
Q 1222 3009 1040 2893 
Q 859 2778 859 2544 
Q 859 2400 934 2306 
Q 1009 2213 1156 2147 
Q 1303 2081 1775 1966 
Q 2222 1853 2419 1758 
Q 2616 1663 2730 1547 
Q 2844 1431 2906 1279 
Q 2969 1128 2969 934 
z
" transform="scale(0.015625)"/>
       </defs>
       <use xlink:href="#LiberationSans-64"/>
       <use xlink:href="#LiberationSans-65" transform="translate(55.615234 0)"/>
       <use xlink:href="#LiberationSans-6e" transform="translate(111.230469 0)"/>
       <use xlink:href="#LiberationSans-73" transform="translate(166.845703 0)"/>
       <use xlink:href="#LiberationSans-69" transform="translate(216.845703 0)"/>
       <use xlink:href="#LiberationSans-74" transform="translate(239.0625 0)"/>
       <use xlink:href="#LiberationSans-79" transform="translate(266.845703 0)"/>
      </g>
     </g>
    </g>
    <g id="ytick_8">
     <g id="line2d_31">
      <path d="M 87.921719 212.804148 
L 493.921719 212.804148 
" clip-path="url(#p0543ce2380)" style="fill: none; stroke: #cccccc; stroke-width: 0.8; stroke-linecap: round"/>
     </g>
     <g id="line2d_32"/>
     <g id="text_17">
      <!-- do -->
      <g style="fill: #262626" transform="translate(72.187656 216.789929) scale(0.11 -0.11)">
       <use xlink:href="#LiberationSans-64"/>
       <use xlink:href="#LiberationSans-6f" transform="translate(55.615234 0)"/>
      </g>
     </g>
    </g>
    <g id="ytick_9">
     <g id="line2d_33">
      <path d="M 87.921719 188.578295 
L 493.921719 188.578295 
" clip-path="url(#p0543ce2380)" style="fill: none; stroke: #cccccc; stroke-width: 0.8; stroke-linecap: round"/>
     </g>
     <g id="line2d_34"/>
     <g id="text_18">
      <!-- engagement -->
      <g style="fill: #262626" transform="translate(23.266875 192.564077) scale(0.11 -0.11)">
       <use xlink:href="#LiberationSans-65"/>
       <use xlink:href="#LiberationSans-6e" transform="translate(55.615234 0)"/>
       <use xlink:href="#LiberationSans-67" transform="translate(111.230469 0)"/>
       <use xlink:href="#LiberationSans-61" transform="translate(166.845703 0)"/>
       <use xlink:href="#LiberationSans-67" transform="translate(222.460938 0)"/>
       <use xlink:href="#LiberationSans-65" transform="translate(278.076172 0)"/>
       <use xlink:href="#LiberationSans-6d" transform="translate(333.691406 0)"/>
       <use xlink:href="#LiberationSans-65" transform="translate(416.992188 0)"/>
       <use xlink:href="#LiberationSans-6e" transform="translate(472.607422 0)"/>
       <use xlink:href="#LiberationSans-74" transform="translate(528.222656 0)"/>
      </g>
     </g>
    </g>
    <g id="ytick_10">
     <g id="line2d_35">
      <path d="M 87.921719 164.352443 
L 493.921719 164.352443 
" clip-path="url(#p0543ce2380)" style="fill: none; stroke: #cccccc; stroke-width: 0.8; stroke-linecap: round"/>
     </g>
     <g id="line2d_36"/>
     <g id="text_19">
      <!-- impact -->
      <g style="fill: #262626" transform="translate(52.025 168.338224) scale(0.11 -0.11)">
       <use xlink:href="#LiberationSans-69"/>
       <use xlink:href="#LiberationSans-6d" transform="translate(22.216797 0)"/>
       <use xlink:href="#LiberationSans-70" transform="translate(105.517578 0)"/>
       <use xlink:href="#LiberationSans-61" transform="translate(161.132812 0)"/>
       <use xlink:href="#LiberationSans-63" transform="translate(216.748047 0)"/>
       <use xlink:href="#LiberationSans-74" transform="translate(266.748047 0)"/>
      </g>
     </g>
    </g>
    <g id="ytick_11">
     <g id="line2d_37">
      <path d="M 87.921719 140.126591 
L 493.921719 140.126591 
" clip-path="url(#p0543ce2380)" style="fill: none; stroke: #cccccc; stroke-width: 0.8; stroke-linecap: round"/>
     </g>
     <g id="line2d_38"/>
     <g id="text_20">
      <!-- know -->
      <g style="fill: #262626" transform="translate(58.743594 144.112372) scale(0.11 -0.11)">
       <defs>
        <path id="LiberationSans-6b" d="M 2550 0 
L 1406 1544 
L 994 1203 
L 994 0 
L 431 0 
L 431 4638 
L 994 4638 
L 994 1741 
L 2478 3381 
L 3138 3381 
L 1766 1928 
L 3209 0 
L 2550 0 
z
" transform="scale(0.015625)"/>
       </defs>
       <use xlink:href="#LiberationSans-6b"/>
       <use xlink:href="#LiberationSans-6e" transform="translate(50 0)"/>
       <use xlink:href="#LiberationSans-6f" transform="translate(105.615234 0)"/>
       <use xlink:href="#LiberationSans-77" transform="translate(161.230469 0)"/>
      </g>
     </g>
    </g>
    <g id="ytick_12">
     <g id="line2d_39">
      <path d="M 87.921719 115.900739 
L 493.921719 115.900739 
" clip-path="url(#p0543ce2380)" style="fill: none; stroke: #cccccc; stroke-width: 0.8; stroke-linecap: round"/>
     </g>
     <g id="line2d_40"/>
     <g id="text_21">
      <!-- signal -->
      <g style="fill: #262626" transform="translate(55.6825 119.88652) scale(0.11 -0.11)">
       <use xlink:href="#LiberationSans-73"/>
       <use xlink:href="#LiberationSans-69" transform="translate(50 0)"/>
       <use xlink:href="#LiberationSans-67" transform="translate(72.216797 0)"/>
       <use xlink:href="#LiberationSans-6e" transform="translate(127.832031 0)"/>
       <use xlink:href="#LiberationSans-61" transform="translate(183.447266 0)"/>
       <use xlink:href="#LiberationSans-6c" transform="translate(239.0625 0)"/>
      </g>
     </g>
    </g>
    <g id="ytick_13">
     <g id="line2d_41">
      <path d="M 87.921719 91.674886 
L 493.921719 91.674886 
" clip-path="url(#p0543ce2380)" style="fill: none; stroke: #cccccc; stroke-width: 0.8; stroke-linecap: round"/>
     </g>
     <g id="line2d_42"/>
     <g id="text_22">
      <!-- state -->
      <g style="fill: #262626" transform="translate(60.575781 95.660668) scale(0.11 -0.11)">
       <use xlink:href="#LiberationSans-73"/>
       <use xlink:href="#LiberationSans-74" transform="translate(50 0)"/>
       <use xlink:href="#LiberationSans-61" transform="translate(77.783203 0)"/>
       <use xlink:href="#LiberationSans-74" transform="translate(133.398438 0)"/>
       <use xlink:href="#LiberationSans-65" transform="translate(161.181641 0)"/>
      </g>
     </g>
    </g>
   </g>
   <g id="patch_3">
    <path d="M 203.921719 392.075455 
L 117.501719 392.075455 
L 117.501719 372.694773 
L 203.921719 372.694773 
z
" clip-path="url(#p0543ce2380)" style="fill: #e74c3c; opacity: 0.7"/>
   </g>
   <g id="patch_4">
    <path d="M 203.921719 367.849602 
L 329.781719 367.849602 
L 329.781719 348.46892 
L 203.921719 348.46892 
z
" clip-path="url(#p0543ce2380)" style="fill: #2ecc71; opacity: 0.7"/>
   </g>
   <g id="patch_5">
    <path d="M 203.921719 343.62375 
L 278.161719 343.62375 
L 278.161719 324.243068 
L 203.921719 324.243068 
z
" clip-path="url(#p0543ce2380)" style="fill: #2ecc71; opacity: 0.7"/>
   </g>
   <g id="patch_6">
    <path d="M 203.921719 319.397898 
L 264.821719 319.397898 
L 264.821719 300.017216 
L 203.921719 300.017216 
z
" clip-path="url(#p0543ce2380)" style="fill: #2ecc71; opacity: 0.7"/>
   </g>
   <g id="patch_7">
    <path d="M 203.921719 295.172045 
L 443.461719 295.172045 
L 443.461719 275.791364 
L 203.921719 275.791364 
z
" clip-path="url(#p0543ce2380)" style="fill: #2ecc71; opacity: 0.7"/>
   </g>
   <g id="patch_8">
    <path d="M 203.921719 270.946193 
L 264.241719 270.946193 
L 264.241719 251.565511 
L 203.921719 251.565511 
z
" clip-path="url(#p0543ce2380)" style="fill: #2ecc71; opacity: 0.7"/>
   </g>
   <g id="patch_9">
    <path d="M 203.921719 246.720341 
L 235.821719 246.720341 
L 235.821719 227.339659 
L 203.921719 227.339659 
z
" clip-path="url(#p0543ce2380)" style="fill: #2ecc71; opacity: 0.7"/>
   </g>
   <g id="patch_10">
    <path d="M 203.921719 222.494489 
L 273.521719 222.494489 
L 273.521719 203.113807 
L 203.921719 203.113807 
z
" clip-path="url(#p0543ce2380)" style="fill: #2ecc71; opacity: 0.7"/>
   </g>
   <g id="patch_11">
    <path d="M 203.921719 198.268636 
L 214.361719 198.268636 
L 214.361719 178.887955 
L 203.921719 178.887955 
z
" clip-path="url(#p0543ce2380)" style="fill: #2ecc71; opacity: 0.7"/>
   </g>
   <g id="patch_12">
    <path d="M 203.921719 174.042784 
L 322.241719 174.042784 
L 322.241719 154.662102 
L 203.921719 154.662102 
z
" clip-path="url(#p0543ce2380)" style="fill: #2ecc71; opacity: 0.7"/>
   </g>
   <g id="patch_13">
    <path d="M 203.921719 149.816932 
L 289.181719 149.816932 
L 289.181719 130.43625 
L 203.921719 130.43625 
z
" clip-path="url(#p0543ce2380)" style="fill: #2ecc71; opacity: 0.7"/>
   </g>
   <g id="patch_14">
    <path d="M 203.921719 125.59108 
L 267.141719 125.59108 
L 267.141719 106.210398 
L 203.921719 106.210398 
z
" clip-path="url(#p0543ce2380)" style="fill: #2ecc71; opacity: 0.7"/>
   </g>
   <g id="patch_15">
    <path d="M 203.921719 101.365227 
L 291.501719 101.365227 
L 291.501719 81.984545 
L 203.921719 81.984545 
z
" clip-path="url(#p0543ce2380)" style="fill: #2ecc71; opacity: 0.7"/>
   </g>
   <g id="line2d_43">
    <path d="M 203.921719 407.58 
L 203.921719 66.48 
" clip-path="url(#p0543ce2380)" style="fill: none; stroke: #000000; stroke-linecap: round"/>
   </g>
   <g id="patch_16">
    <path d="M 87.921719 407.58 
L 87.921719 66.48 
" style="fill: none; stroke: #cccccc; stroke-linejoin: miter; stroke-linecap: square"/>
   </g>
   <g id="patch_17">
    <path d="M 493.921719 407.58 
L 493.921719 66.48 
" style="fill: none; stroke: #cccccc; stroke-linejoin: miter; stroke-linecap: square"/>
   </g>
   <g id="patch_18">
    <path d="M 87.921719 407.58 
L 493.921719 407.58 
" style="fill: none; stroke: #cccccc; stroke-linejoin: miter; stroke-linecap: square"/>
   </g>
   <g id="patch_19">
    <path d="M 87.921719 66.48 
L 493.921719 66.48 
" style="fill: none; stroke: #cccccc; stroke-linejoin: miter; stroke-linecap: square"/>
   </g>
   <g id="text_23">
    <!-- 12:1 "Asymmetry" -->
    <g style="fill: #ff0000" transform="translate(230.201094 100.59) scale(0.14 -0.14)">
     <defs>
      <path id="LiberationSans-Bold-31" d="M 403 0 
L 403 653 
L 1494 653 
L 1494 3656 
L 438 2997 
L 438 3688 
L 1541 4403 
L 2372 4403 
L 2372 653 
L 3381 653 
L 3381 0 
L 403 0 
z
" transform="scale(0.015625)"/>
      <path id="LiberationSans-Bold-32" d="M 222 0 
L 222 609 
Q 394 988 711 1347 
Q 1028 1706 1509 2097 
Q 1972 2472 2158 2715 
Q 2344 2959 2344 3194 
Q 2344 3769 1766 3769 
Q 1484 3769 1336 3617 
Q 1188 3466 1144 3163 
L 259 3213 
Q 334 3825 717 4147 
Q 1100 4469 1759 4469 
Q 2472 4469 2853 4144 
Q 3234 3819 3234 3231 
Q 3234 2922 3112 2672 
Q 2991 2422 2800 2211 
Q 2609 2000 2376 1815 
Q 2144 1631 1925 1456 
Q 1706 1281 1526 1103 
Q 1347 925 1259 722 
L 3303 722 
L 3303 0 
L 222 0 
z
" transform="scale(0.015625)"/>
      <path id="LiberationSans-Bold-3a" d="M 616 2350 
L 616 3231 
L 1516 3231 
L 1516 2350 
L 616 2350 
z
M 616 0 
L 616 878 
L 1516 878 
L 1516 0 
L 616 0 
z
" transform="scale(0.015625)"/>
      <path id="LiberationSans-Bold-20" transform="scale(0.015625)"/>
      <path id="LiberationSans-Bold-22" d="M 2522 2806 
L 1838 2806 
L 1753 4403 
L 2613 4403 
L 2522 2806 
z
M 1191 2806 
L 506 2806 
L 422 4403 
L 1275 4403 
L 1191 2806 
z
" transform="scale(0.015625)"/>
      <path id="LiberationSans-Bold-41" d="M 3541 0 
L 3150 1125 
L 1472 1125 
L 1081 0 
L 159 0 
L 1766 4403 
L 2853 4403 
L 4453 0 
L 3541 0 
z
M 2309 3725 
L 2291 3656 
Q 2259 3544 2215 3400 
Q 2172 3256 1678 1819 
L 2944 1819 
L 2509 3084 
L 2375 3509 
L 2309 3725 
z
" transform="scale(0.015625)"/>
      <path id="LiberationSans-Bold-73" d="M 3297 988 
Q 3297 497 2895 217 
Q 2494 -63 1784 -63 
Q 1088 -63 717 157 
Q 347 378 225 844 
L 997 959 
Q 1063 719 1223 619 
Q 1384 519 1784 519 
Q 2153 519 2322 612 
Q 2491 706 2491 906 
Q 2491 1069 2355 1164 
Q 2219 1259 1894 1325 
Q 1150 1472 890 1598 
Q 631 1725 495 1926 
Q 359 2128 359 2422 
Q 359 2906 732 3176 
Q 1106 3447 1791 3447 
Q 2394 3447 2761 3212 
Q 3128 2978 3219 2534 
L 2441 2453 
Q 2403 2659 2256 2761 
Q 2109 2863 1791 2863 
Q 1478 2863 1322 2783 
Q 1166 2703 1166 2516 
Q 1166 2369 1286 2283 
Q 1406 2197 1691 2141 
Q 2088 2059 2395 1973 
Q 2703 1888 2889 1769 
Q 3075 1650 3186 1464 
Q 3297 1278 3297 988 
z
" transform="scale(0.015625)"/>
      <path id="LiberationSans-Bold-79" d="M 884 -1328 
Q 569 -1328 331 -1288 
L 331 -663 
Q 497 -688 634 -688 
Q 822 -688 945 -628 
Q 1069 -569 1167 -431 
Q 1266 -294 1388 34 
L 50 3381 
L 978 3381 
L 1509 1797 
Q 1634 1456 1825 753 
L 1903 1050 
L 2106 1784 
L 2606 3381 
L 3525 3381 
L 2188 -178 
Q 1919 -828 1630 -1078 
Q 1341 -1328 884 -1328 
z
" transform="scale(0.015625)"/>
      <path id="LiberationSans-Bold-6d" d="M 2438 0 
L 2438 1897 
Q 2438 2788 1925 2788 
Q 1659 2788 1492 2516 
Q 1325 2244 1325 1813 
L 1325 0 
L 447 0 
L 447 2625 
Q 447 2897 439 3070 
Q 431 3244 422 3381 
L 1259 3381 
Q 1269 3322 1284 3064 
Q 1300 2806 1300 2709 
L 1313 2709 
Q 1475 3097 1717 3272 
Q 1959 3447 2297 3447 
Q 3072 3447 3238 2709 
L 3256 2709 
Q 3428 3103 3668 3275 
Q 3909 3447 4281 3447 
Q 4775 3447 5034 3111 
Q 5294 2775 5294 2147 
L 5294 0 
L 4422 0 
L 4422 1897 
Q 4422 2788 3909 2788 
Q 3653 2788 3489 2539 
Q 3325 2291 3309 1853 
L 3309 0 
L 2438 0 
z
" transform="scale(0.015625)"/>
      <path id="LiberationSans-Bold-65" d="M 1831 -63 
Q 1069 -63 659 389 
Q 250 841 250 1706 
Q 250 2544 665 2994 
Q 1081 3444 1844 3444 
Q 2572 3444 2956 2961 
Q 3341 2478 3341 1547 
L 3341 1522 
L 1172 1522 
Q 1172 1028 1355 776 
Q 1538 525 1875 525 
Q 2341 525 2463 928 
L 3291 856 
Q 2931 -63 1831 -63 
z
M 1831 2891 
Q 1522 2891 1355 2675 
Q 1188 2459 1178 2072 
L 2491 2072 
Q 2466 2481 2294 2686 
Q 2122 2891 1831 2891 
z
" transform="scale(0.015625)"/>
      <path id="LiberationSans-Bold-74" d="M 1313 -56 
Q 925 -56 715 155 
Q 506 366 506 794 
L 506 2788 
L 78 2788 
L 78 3381 
L 550 3381 
L 825 4175 
L 1375 4175 
L 1375 3381 
L 2016 3381 
L 2016 2788 
L 1375 2788 
L 1375 1031 
Q 1375 784 1469 667 
Q 1563 550 1759 550 
Q 1863 550 2053 594 
L 2053 50 
Q 1728 -56 1313 -56 
z
" transform="scale(0.015625)"/>
      <path id="LiberationSans-Bold-72" d="M 447 0 
L 447 2588 
Q 447 2866 439 3052 
Q 431 3238 422 3381 
L 1259 3381 
Q 1269 3325 1284 3039 
Q 1300 2753 1300 2659 
L 1313 2659 
Q 1441 3016 1541 3161 
Q 1641 3306 1778 3376 
Q 1916 3447 2122 3447 
Q 2291 3447 2394 3400 
L 2394 2666 
Q 2181 2713 2019 2713 
Q 1691 2713 1508 2447 
Q 1325 2181 1325 1659 
L 1325 0 
L 447 0 
z
" transform="scale(0.015625)"/>
     </defs>
     <use xlink:href="#LiberationSans-Bold-31"/>
     <use xlink:href="#LiberationSans-Bold-32" transform="translate(55.615234 0)"/>
     <use xlink:href="#LiberationSans-Bold-3a" transform="translate(111.230469 0)"/>
     <use xlink:href="#LiberationSans-Bold-31" transform="translate(144.53125 0)"/>
     <use xlink:href="#LiberationSans-Bold-20" transform="translate(200.146484 0)"/>
     <use xlink:href="#LiberationSans-Bold-22" transform="translate(227.929688 0)"/>
     <use xlink:href="#LiberationSans-Bold-41" transform="translate(275.341797 0)"/>
     <use xlink:href="#LiberationSans-Bold-73" transform="translate(347.558594 0)"/>
     <use xlink:href="#LiberationSans-Bold-79" transform="translate(403.173828 0)"/>
     <use xlink:href="#LiberationSans-Bold-6d" transform="translate(458.789062 0)"/>
     <use xlink:href="#LiberationSans-Bold-6d" transform="translate(547.705078 0)"/>
     <use xlink:href="#LiberationSans-Bold-65" transform="translate(636.621094 0)"/>
     <use xlink:href="#LiberationSans-Bold-74" transform="translate(692.236328 0)"/>
     <use xlink:href="#LiberationSans-Bold-72" transform="translate(725.537109 0)"/>
     <use xlink:href="#LiberationSans-Bold-79" transform="translate(764.453125 0)"/>
     <use xlink:href="#LiberationSans-Bold-22" transform="translate(820.068359 0)"/>
    </g>
   </g>
   <g id="text_24">
    <!-- Original Framing (Misleading) -->
    <g style="fill: #262626" transform="translate(212.235469 60.48) scale(0.12 -0.12)">
     <defs>
      <path id="LiberationSans-4f" d="M 4672 2222 
Q 4672 1531 4408 1012 
Q 4144 494 3650 215 
Q 3156 -63 2484 -63 
Q 1806 -63 1314 212 
Q 822 488 562 1008 
Q 303 1528 303 2222 
Q 303 3278 881 3873 
Q 1459 4469 2491 4469 
Q 3163 4469 3656 4201 
Q 4150 3934 4411 3425 
Q 4672 2916 4672 2222 
z
M 4063 2222 
Q 4063 3044 3652 3512 
Q 3241 3981 2491 3981 
Q 1734 3981 1321 3518 
Q 909 3056 909 2222 
Q 909 1394 1326 908 
Q 1744 422 2484 422 
Q 3247 422 3655 892 
Q 4063 1363 4063 2222 
z
" transform="scale(0.015625)"/>
      <path id="LiberationSans-46" d="M 1122 3916 
L 1122 2278 
L 3578 2278 
L 3578 1784 
L 1122 1784 
L 1122 0 
L 525 0 
L 525 4403 
L 3653 4403 
L 3653 3916 
L 1122 3916 
z
" transform="scale(0.015625)"/>
      <path id="LiberationSans-28" d="M 397 1663 
Q 397 2566 680 3284 
Q 963 4003 1550 4638 
L 2094 4638 
Q 1509 3988 1236 3256 
Q 963 2525 963 1656 
Q 963 791 1233 62 
Q 1503 -666 2094 -1325 
L 1550 -1325 
Q 959 -688 678 32 
Q 397 753 397 1650 
L 397 1663 
z
" transform="scale(0.015625)"/>
      <path id="LiberationSans-4d" d="M 4269 0 
L 4269 2938 
Q 4269 3425 4297 3875 
Q 4144 3316 4022 3000 
L 2884 0 
L 2466 0 
L 1313 3000 
L 1138 3531 
L 1034 3875 
L 1044 3528 
L 1056 2938 
L 1056 0 
L 525 0 
L 525 4403 
L 1309 4403 
L 2481 1350 
Q 2544 1166 2601 955 
Q 2659 744 2678 650 
Q 2703 775 2783 1029 
Q 2863 1284 2891 1350 
L 4041 4403 
L 4806 4403 
L 4806 0 
L 4269 0 
z
" transform="scale(0.015625)"/>
      <path id="LiberationSans-29" d="M 1734 1650 
Q 1734 747 1451 28 
Q 1169 -691 581 -1325 
L 38 -1325 
Q 625 -669 897 57 
Q 1169 784 1169 1656 
Q 1169 2528 895 3256 
Q 622 3984 38 4638 
L 581 4638 
Q 1172 4000 1453 3279 
Q 1734 2559 1734 1663 
L 1734 1650 
z
" transform="scale(0.015625)"/>
     </defs>
     <use xlink:href="#LiberationSans-4f"/>
     <use xlink:href="#LiberationSans-72" transform="translate(77.783203 0)"/>
     <use xlink:href="#LiberationSans-69" transform="translate(111.083984 0)"/>
     <use xlink:href="#LiberationSans-67" transform="translate(133.300781 0)"/>
     <use xlink:href="#LiberationSans-69" transform="translate(188.916016 0)"/>
     <use xlink:href="#LiberationSans-6e" transform="translate(211.132812 0)"/>
     <use xlink:href="#LiberationSans-61" transform="translate(266.748047 0)"/>
     <use xlink:href="#LiberationSans-6c" transform="translate(322.363281 0)"/>
     <use xlink:href="#LiberationSans-20" transform="translate(344.580078 0)"/>
     <use xlink:href="#LiberationSans-46" transform="translate(372.363281 0)"/>
     <use xlink:href="#LiberationSans-72" transform="translate(433.447266 0)"/>
     <use xlink:href="#LiberationSans-61" transform="translate(466.748047 0)"/>
     <use xlink:href="#LiberationSans-6d" transform="translate(522.363281 0)"/>
     <use xlink:href="#LiberationSans-69" transform="translate(605.664062 0)"/>
     <use xlink:href="#LiberationSans-6e" transform="translate(627.880859 0)"/>
     <use xlink:href="#LiberationSans-67" transform="translate(683.496094 0)"/>
     <use xlink:href="#LiberationSans-20" transform="translate(739.111328 0)"/>
     <use xlink:href="#LiberationSans-28" transform="translate(766.894531 0)"/>
     <use xlink:href="#LiberationSans-4d" transform="translate(800.195312 0)"/>
     <use xlink:href="#LiberationSans-69" transform="translate(883.496094 0)"/>
     <use xlink:href="#LiberationSans-73" transform="translate(905.712891 0)"/>
     <use xlink:href="#LiberationSans-6c" transform="translate(955.712891 0)"/>
     <use xlink:href="#LiberationSans-65" transform="translate(977.929688 0)"/>
     <use xlink:href="#LiberationSans-61" transform="translate(1033.544922 0)"/>
     <use xlink:href="#LiberationSans-64" transform="translate(1089.160156 0)"/>
     <use xlink:href="#LiberationSans-69" transform="translate(1144.775391 0)"/>
     <use xlink:href="#LiberationSans-6e" transform="translate(1166.992188 0)"/>
     <use xlink:href="#LiberationSans-67" transform="translate(1222.607422 0)"/>
     <use xlink:href="#LiberationSans-29" transform="translate(1278.222656 0)"/>
    </g>
   </g>
   <g id="legend_1">
    <g id="patch_20">
     <path d="M 375.577187 84.351562 
L 397.577187 84.351562 
L 397.577187 76.651562 
L 375.577187 76.651562 
z
" style="fill: #e74c3c; opacity: 0.7"/>
    </g>
    <g id="text_25">
     <!-- Overestimated -->
     <g style="fill: #262626" transform="translate(406.377187 84.351562) scale(0.11 -0.11)">
      <defs>
       <path id="LiberationSans-76" d="M 1916 0 
L 1250 0 
L 22 3381 
L 622 3381 
L 1366 1181 
Q 1406 1056 1581 441 
L 1691 806 
L 1813 1175 
L 2581 3381 
L 3178 3381 
L 1916 0 
z
" transform="scale(0.015625)"/>
      </defs>
      <use xlink:href="#LiberationSans-4f"/>
      <use xlink:href="#LiberationSans-76" transform="translate(77.783203 0)"/>
      <use xlink:href="#LiberationSans-65" transform="translate(127.783203 0)"/>
      <use xlink:href="#LiberationSans-72" transform="translate(183.398438 0)"/>
      <use xlink:href="#LiberationSans-65" transform="translate(216.699219 0)"/>
      <use xlink:href="#LiberationSans-73" transform="translate(272.314453 0)"/>
      <use xlink:href="#LiberationSans-74" transform="translate(322.314453 0)"/>
      <use xlink:href="#LiberationSans-69" transform="translate(350.097656 0)"/>
      <use xlink:href="#LiberationSans-6d" transform="translate(372.314453 0)"/>
      <use xlink:href="#LiberationSans-61" transform="translate(455.615234 0)"/>
      <use xlink:href="#LiberationSans-74" transform="translate(511.230469 0)"/>
      <use xlink:href="#LiberationSans-65" transform="translate(539.013672 0)"/>
      <use xlink:href="#LiberationSans-64" transform="translate(594.628906 0)"/>
     </g>
    </g>
    <g id="patch_21">
     <path d="M 375.577187 100.105625 
L 397.577187 100.105625 
L 397.577187 92.405625 
L 375.577187 92.405625 
z
" style="fill: #2ecc71; opacity: 0.7"/>
    </g>
    <g id="text_26">
     <!-- Underestimated -->
     <g style="fill: #262626" transform="translate(406.377187 100.105625) scale(0.11 -0.11)">
      <use xlink:href="#LiberationSans-55"/>
      <use xlink:href="#LiberationSans-6e" transform="translate(72.216797 0)"/>
      <use xlink:href="#LiberationSans-64" transform="translate(127.832031 0)"/>
      <use xlink:href="#LiberationSans-65" transform="translate(183.447266 0)"/>
      <use xlink:href="#LiberationSans-72" transform="translate(239.0625 0)"/>
      <use xlink:href="#LiberationSans-65" transform="translate(272.363281 0)"/>
      <use xlink:href="#LiberationSans-73" transform="translate(327.978516 0)"/>
      <use xlink:href="#LiberationSans-74" transform="translate(377.978516 0)"/>
      <use xlink:href="#LiberationSans-69" transform="translate(405.761719 0)"/>
      <use xlink:href="#LiberationSans-6d" transform="translate(427.978516 0)"/>
      <use xlink:href="#LiberationSans-61" transform="translate(511.279297 0)"/>
      <use xlink:href="#LiberationSans-74" transform="translate(566.894531 0)"/>
      <use xlink:href="#LiberationSans-65" transform="translate(594.677734 0)"/>
      <use xlink:href="#LiberationSans-64" transform="translate(650.292969 0)"/>
     </g>
    </g>
   </g>
  </g>
  <g id="axes_2">
   <g id="patch_22">
    <path d="M 578.016719 407.58 
L 984.016719 407.58 
L 984.016719 66.48 
L 578.016719 66.48 
z
" style="fill: #ffffff"/>
   </g>
   <g id="matplotlib.axis_3">
    <g id="xtick_9">
     <g id="line2d_44">
      <path d="M 614.92581 407.58 
L 614.92581 66.48 
" clip-path="url(#p6e213d8b70)" style="fill: none; stroke: #cccccc; stroke-width: 0.8; stroke-linecap: round"/>
     </g>
     <g id="line2d_45"/>
     <g id="text_27">
      <!-- 0.0 -->
      <g style="fill: #262626" transform="translate(607.28081 419.051562) scale(0.11 -0.11)">
       <use xlink:href="#LiberationSans-30"/>
       <use xlink:href="#LiberationSans-2e" transform="translate(55.615234 0)"/>
       <use xlink:href="#LiberationSans-30" transform="translate(83.398438 0)"/>
      </g>
     </g>
    </g>
    <g id="xtick_10">
     <g id="line2d_46">
      <path d="M 688.743991 407.58 
L 688.743991 66.48 
" clip-path="url(#p6e213d8b70)" style="fill: none; stroke: #cccccc; stroke-width: 0.8; stroke-linecap: round"/>
     </g>
     <g id="line2d_47"/>
     <g id="text_28">
      <!-- 0.1 -->
      <g style="fill: #262626" transform="translate(681.098991 419.051562) scale(0.11 -0.11)">
       <use xlink:href="#LiberationSans-30"/>
       <use xlink:href="#LiberationSans-2e" transform="translate(55.615234 0)"/>
       <use xlink:href="#LiberationSans-31" transform="translate(83.398438 0)"/>
      </g>
     </g>
    </g>
    <g id="xtick_11">
     <g id="line2d_48">
      <path d="M 762.562173 407.58 
L 762.562173 66.48 
" clip-path="url(#p6e213d8b70)" style="fill: none; stroke: #cccccc; stroke-width: 0.8; stroke-linecap: round"/>
     </g>
     <g id="line2d_49"/>
     <g id="text_29">
      <!-- 0.2 -->
      <g style="fill: #262626" transform="translate(754.917173 419.051562) scale(0.11 -0.11)">
       <use xlink:href="#LiberationSans-30"/>
       <use xlink:href="#LiberationSans-2e" transform="translate(55.615234 0)"/>
       <use xlink:href="#LiberationSans-32" transform="translate(83.398438 0)"/>
      </g>
     </g>
    </g>
    <g id="xtick_12">
     <g id="line2d_50">
      <path d="M 836.380355 407.58 
L 836.380355 66.48 
" clip-path="url(#p6e213d8b70)" style="fill: none; stroke: #cccccc; stroke-width: 0.8; stroke-linecap: round"/>
     </g>
     <g id="line2d_51"/>
     <g id="text_30">
      <!-- 0.3 -->
      <g style="fill: #262626" transform="translate(828.735355 419.051562) scale(0.11 -0.11)">
       <use xlink:href="#LiberationSans-30"/>
       <use xlink:href="#LiberationSans-2e" transform="translate(55.615234 0)"/>
       <use xlink:href="#LiberationSans-33" transform="translate(83.398438 0)"/>
      </g>
     </g>
    </g>
    <g id="xtick_13">
     <g id="line2d_52">
      <path d="M 910.198537 407.58 
L 910.198537 66.48 
" clip-path="url(#p6e213d8b70)" style="fill: none; stroke: #cccccc; stroke-width: 0.8; stroke-linecap: round"/>
     </g>
     <g id="line2d_53"/>
     <g id="text_31">
      <!-- 0.4 -->
      <g style="fill: #262626" transform="translate(902.553537 419.051562) scale(0.11 -0.11)">
       <use xlink:href="#LiberationSans-30"/>
       <use xlink:href="#LiberationSans-2e" transform="translate(55.615234 0)"/>
       <use xlink:href="#LiberationSans-34" transform="translate(83.398438 0)"/>
      </g>
     </g>
    </g>
    <g id="xtick_14">
     <g id="line2d_54">
      <path d="M 984.016719 407.58 
L 984.016719 66.48 
" clip-path="url(#p6e213d8b70)" style="fill: none; stroke: #cccccc; stroke-width: 0.8; stroke-linecap: round"/>
     </g>
     <g id="line2d_55"/>
     <g id="text_32">
      <!-- 0.5 -->
      <g style="fill: #262626" transform="translate(976.371719 419.051562) scale(0.11 -0.11)">
       <use xlink:href="#LiberationSans-30"/>
       <use xlink:href="#LiberationSans-2e" transform="translate(55.615234 0)"/>
       <use xlink:href="#LiberationSans-35" transform="translate(83.398438 0)"/>
      </g>
     </g>
    </g>
    <g id="text_33">
     <!-- Confidence Delta (uncertainty inverted) -->
     <g style="fill: #262626" transform="translate(676.970156 434.030312) scale(0.12 -0.12)">
      <defs>
       <path id="LiberationSans-66" d="M 1128 2972 
L 1128 0 
L 566 0 
L 566 2972 
L 91 2972 
L 91 3381 
L 566 3381 
L 566 3763 
Q 566 4225 769 4428 
Q 972 4631 1391 4631 
Q 1625 4631 1788 4594 
L 1788 4166 
Q 1647 4191 1538 4191 
Q 1322 4191 1225 4081 
Q 1128 3972 1128 3684 
L 1128 3381 
L 1788 3381 
L 1788 2972 
L 1128 2972 
z
" transform="scale(0.015625)"/>
       <path id="LiberationSans-75" d="M 981 3381 
L 981 1238 
Q 981 903 1047 718 
Q 1113 534 1256 453 
Q 1400 372 1678 372 
Q 2084 372 2318 650 
Q 2553 928 2553 1422 
L 2553 3381 
L 3116 3381 
L 3116 722 
Q 3116 131 3134 0 
L 2603 0 
Q 2600 16 2597 84 
Q 2594 153 2589 242 
Q 2584 331 2578 578 
L 2569 578 
Q 2375 228 2120 82 
Q 1866 -63 1488 -63 
Q 931 -63 673 214 
Q 416 491 416 1128 
L 416 3381 
L 981 3381 
z
" transform="scale(0.015625)"/>
      </defs>
      <use xlink:href="#LiberationSans-43"/>
      <use xlink:href="#LiberationSans-6f" transform="translate(72.216797 0)"/>
      <use xlink:href="#LiberationSans-6e" transform="translate(127.832031 0)"/>
      <use xlink:href="#LiberationSans-66" transform="translate(183.447266 0)"/>
      <use xlink:href="#LiberationSans-69" transform="translate(211.230469 0)"/>
      <use xlink:href="#LiberationSans-64" transform="translate(233.447266 0)"/>
      <use xlink:href="#LiberationSans-65" transform="translate(289.0625 0)"/>
      <use xlink:href="#LiberationSans-6e" transform="translate(344.677734 0)"/>
      <use xlink:href="#LiberationSans-63" transform="translate(400.292969 0)"/>
      <use xlink:href="#LiberationSans-65" transform="translate(450.292969 0)"/>
      <use xlink:href="#LiberationSans-20" transform="translate(505.908203 0)"/>
      <use xlink:href="#LiberationSans-44" transform="translate(533.691406 0)"/>
      <use xlink:href="#LiberationSans-65" transform="translate(605.908203 0)"/>
      <use xlink:href="#LiberationSans-6c" transform="translate(661.523438 0)"/>
      <use xlink:href="#LiberationSans-74" transform="translate(683.740234 0)"/>
      <use xlink:href="#LiberationSans-61" transform="translate(711.523438 0)"/>
      <use xlink:href="#LiberationSans-20" transform="translate(767.138672 0)"/>
      <use xlink:href="#LiberationSans-28" transform="translate(794.921875 0)"/>
      <use xlink:href="#LiberationSans-75" transform="translate(828.222656 0)"/>
      <use xlink:href="#LiberationSans-6e" transform="translate(883.837891 0)"/>
      <use xlink:href="#LiberationSans-63" transform="translate(939.453125 0)"/>
      <use xlink:href="#LiberationSans-65" transform="translate(989.453125 0)"/>
      <use xlink:href="#LiberationSans-72" transform="translate(1045.068359 0)"/>
      <use xlink:href="#LiberationSans-74" transform="translate(1078.369141 0)"/>
      <use xlink:href="#LiberationSans-61" transform="translate(1106.152344 0)"/>
      <use xlink:href="#LiberationSans-69" transform="translate(1161.767578 0)"/>
      <use xlink:href="#LiberationSans-6e" transform="translate(1183.984375 0)"/>
      <use xlink:href="#LiberationSans-74" transform="translate(1239.599609 0)"/>
      <use xlink:href="#LiberationSans-79" transform="translate(1267.382812 0)"/>
      <use xlink:href="#LiberationSans-20" transform="translate(1317.382812 0)"/>
      <use xlink:href="#LiberationSans-69" transform="translate(1345.166016 0)"/>
      <use xlink:href="#LiberationSans-6e" transform="translate(1367.382812 0)"/>
      <use xlink:href="#LiberationSans-76" transform="translate(1422.998047 0)"/>
      <use xlink:href="#LiberationSans-65" transform="translate(1472.998047 0)"/>
      <use xlink:href="#LiberationSans-72" transform="translate(1528.613281 0)"/>
      <use xlink:href="#LiberationSans-74" transform="translate(1561.914062 0)"/>
      <use xlink:href="#LiberationSans-65" transform="translate(1589.697266 0)"/>
      <use xlink:href="#LiberationSans-64" transform="translate(1645.3125 0)"/>
      <use xlink:href="#LiberationSans-29" transform="translate(1700.927734 0)"/>
     </g>
    </g>
   </g>
   <g id="matplotlib.axis_4">
    <g id="ytick_14">
     <g id="line2d_56">
      <path d="M 578.016719 382.385114 
L 984.016719 382.385114 
" clip-path="url(#p6e213d8b70)" style="fill: none; stroke: #cccccc; stroke-width: 0.8; stroke-linecap: round"/>
     </g>
     <g id="line2d_57"/>
     <g id="text_34">
      <!-- completion -->
      <g style="fill: #262626" transform="translate(521.324844 386.370895) scale(0.11 -0.11)">
       <use xlink:href="#LiberationSans-63"/>
       <use xlink:href="#LiberationSans-6f" transform="translate(50 0)"/>
       <use xlink:href="#LiberationSans-6d" transform="translate(105.615234 0)"/>
       <use xlink:href="#LiberationSans-70" transform="translate(188.916016 0)"/>
       <use xlink:href="#LiberationSans-6c" transform="translate(244.53125 0)"/>
       <use xlink:href="#LiberationSans-65" transform="translate(266.748047 0)"/>
       <use xlink:href="#LiberationSans-74" transform="translate(322.363281 0)"/>
       <use xlink:href="#LiberationSans-69" transform="translate(350.146484 0)"/>
       <use xlink:href="#LiberationSans-6f" transform="translate(372.363281 0)"/>
       <use xlink:href="#LiberationSans-6e" transform="translate(427.978516 0)"/>
      </g>
     </g>
    </g>
    <g id="ytick_15">
     <g id="line2d_58">
      <path d="M 578.016719 358.159261 
L 984.016719 358.159261 
" clip-path="url(#p6e213d8b70)" style="fill: none; stroke: #cccccc; stroke-width: 0.8; stroke-linecap: round"/>
     </g>
     <g id="line2d_59"/>
     <g id="text_35">
      <!-- change -->
      <g style="fill: #262626" transform="translate(538.431563 362.145043) scale(0.11 -0.11)">
       <use xlink:href="#LiberationSans-63"/>
       <use xlink:href="#LiberationSans-68" transform="translate(50 0)"/>
       <use xlink:href="#LiberationSans-61" transform="translate(105.615234 0)"/>
       <use xlink:href="#LiberationSans-6e" transform="translate(161.230469 0)"/>
       <use xlink:href="#LiberationSans-67" transform="translate(216.845703 0)"/>
       <use xlink:href="#LiberationSans-65" transform="translate(272.460938 0)"/>
      </g>
     </g>
    </g>
    <g id="ytick_16">
     <g id="line2d_60">
      <path d="M 578.016719 333.933409 
L 984.016719 333.933409 
" clip-path="url(#p6e213d8b70)" style="fill: none; stroke: #cccccc; stroke-width: 0.8; stroke-linecap: round"/>
     </g>
     <g id="line2d_61"/>
     <g id="text_36">
      <!-- impact -->
      <g style="fill: #262626" transform="translate(542.12 337.91919) scale(0.11 -0.11)">
       <use xlink:href="#LiberationSans-69"/>
       <use xlink:href="#LiberationSans-6d" transform="translate(22.216797 0)"/>
       <use xlink:href="#LiberationSans-70" transform="translate(105.517578 0)"/>
       <use xlink:href="#LiberationSans-61" transform="translate(161.132812 0)"/>
       <use xlink:href="#LiberationSans-63" transform="translate(216.748047 0)"/>
       <use xlink:href="#LiberationSans-74" transform="translate(266.748047 0)"/>
      </g>
     </g>
    </g>
    <g id="ytick_17">
     <g id="line2d_62">
      <path d="M 578.016719 309.707557 
L 984.016719 309.707557 
" clip-path="url(#p6e213d8b70)" style="fill: none; stroke: #cccccc; stroke-width: 0.8; stroke-linecap: round"/>
     </g>
     <g id="line2d_63"/>
     <g id="text_37">
      <!-- state -->
      <g style="fill: #262626" transform="translate(550.670781 313.693338) scale(0.11 -0.11)">
       <use xlink:href="#LiberationSans-73"/>
       <use xlink:href="#LiberationSans-74" transform="translate(50 0)"/>
       <use xlink:href="#LiberationSans-61" transform="translate(77.783203 0)"/>
       <use xlink:href="#LiberationSans-74" transform="translate(133.398438 0)"/>
       <use xlink:href="#LiberationSans-65" transform="translate(161.181641 0)"/>
      </g>
     </g>
    </g>
    <g id="ytick_18">
     <g id="line2d_64">
      <path d="M 578.016719 285.481705 
L 984.016719 285.481705 
" clip-path="url(#p6e213d8b70)" style="fill: none; stroke: #cccccc; stroke-width: 0.8; stroke-linecap: round"/>
     </g>
     <g id="line2d_65"/>
     <g id="text_38">
      <!-- uncertainty -->
      <g style="fill: #262626" transform="translate(520.712969 289.467486) scale(0.11 -0.11)">
       <use xlink:href="#LiberationSans-75"/>
       <use xlink:href="#LiberationSans-6e" transform="translate(55.615234 0)"/>
       <use xlink:href="#LiberationSans-63" transform="translate(111.230469 0)"/>
       <use xlink:href="#LiberationSans-65" transform="translate(161.230469 0)"/>
       <use xlink:href="#LiberationSans-72" transform="translate(216.845703 0)"/>
       <use xlink:href="#LiberationSans-74" transform="translate(250.146484 0)"/>
       <use xlink:href="#LiberationSans-61" transform="translate(277.929688 0)"/>
       <use xlink:href="#LiberationSans-69" transform="translate(333.544922 0)"/>
       <use xlink:href="#LiberationSans-6e" transform="translate(355.761719 0)"/>
       <use xlink:href="#LiberationSans-74" transform="translate(411.376953 0)"/>
       <use xlink:href="#LiberationSans-79" transform="translate(439.160156 0)"/>
      </g>
     </g>
    </g>
    <g id="ytick_19">
     <g id="line2d_66">
      <path d="M 578.016719 261.255852 
L 984.016719 261.255852 
" clip-path="url(#p6e213d8b70)" style="fill: none; stroke: #cccccc; stroke-width: 0.8; stroke-linecap: round"/>
     </g>
     <g id="line2d_67"/>
     <g id="text_39">
      <!-- know -->
      <g style="fill: #262626" transform="translate(548.838594 265.241634) scale(0.11 -0.11)">
       <use xlink:href="#LiberationSans-6b"/>
       <use xlink:href="#LiberationSans-6e" transform="translate(50 0)"/>
       <use xlink:href="#LiberationSans-6f" transform="translate(105.615234 0)"/>
       <use xlink:href="#LiberationSans-77" transform="translate(161.230469 0)"/>
      </g>
     </g>
    </g>
    <g id="ytick_20">
     <g id="line2d_68">
      <path d="M 578.016719 237.03 
L 984.016719 237.03 
" clip-path="url(#p6e213d8b70)" style="fill: none; stroke: #cccccc; stroke-width: 0.8; stroke-linecap: round"/>
     </g>
     <g id="line2d_69"/>
     <g id="text_40">
      <!-- clarity -->
      <g style="fill: #262626" transform="translate(545.792969 241.015781) scale(0.11 -0.11)">
       <use xlink:href="#LiberationSans-63"/>
       <use xlink:href="#LiberationSans-6c" transform="translate(50 0)"/>
       <use xlink:href="#LiberationSans-61" transform="translate(72.216797 0)"/>
       <use xlink:href="#LiberationSans-72" transform="translate(127.832031 0)"/>
       <use xlink:href="#LiberationSans-69" transform="translate(161.132812 0)"/>
       <use xlink:href="#LiberationSans-74" transform="translate(183.349609 0)"/>
       <use xlink:href="#LiberationSans-79" transform="translate(211.132812 0)"/>
      </g>
     </g>
    </g>
    <g id="ytick_21">
     <g id="line2d_70">
      <path d="M 578.016719 212.804148 
L 984.016719 212.804148 
" clip-path="url(#p6e213d8b70)" style="fill: none; stroke: #cccccc; stroke-width: 0.8; stroke-linecap: round"/>
     </g>
     <g id="line2d_71"/>
     <g id="text_41">
      <!-- do -->
      <g style="fill: #262626" transform="translate(562.282656 216.789929) scale(0.11 -0.11)">
       <use xlink:href="#LiberationSans-64"/>
       <use xlink:href="#LiberationSans-6f" transform="translate(55.615234 0)"/>
      </g>
     </g>
    </g>
    <g id="ytick_22">
     <g id="line2d_72">
      <path d="M 578.016719 188.578295 
L 984.016719 188.578295 
" clip-path="url(#p6e213d8b70)" style="fill: none; stroke: #cccccc; stroke-width: 0.8; stroke-linecap: round"/>
     </g>
     <g id="line2d_73"/>
     <g id="text_42">
      <!-- signal -->
      <g style="fill: #262626" transform="translate(545.7775 192.564077) scale(0.11 -0.11)">
       <use xlink:href="#LiberationSans-73"/>
       <use xlink:href="#LiberationSans-69" transform="translate(50 0)"/>
       <use xlink:href="#LiberationSans-67" transform="translate(72.216797 0)"/>
       <use xlink:href="#LiberationSans-6e" transform="translate(127.832031 0)"/>
       <use xlink:href="#LiberationSans-61" transform="translate(183.447266 0)"/>
       <use xlink:href="#LiberationSans-6c" transform="translate(239.0625 0)"/>
      </g>
     </g>
    </g>
    <g id="ytick_23">
     <g id="line2d_74">
      <path d="M 578.016719 164.352443 
L 984.016719 164.352443 
" clip-path="url(#p6e213d8b70)" style="fill: none; stroke: #cccccc; stroke-width: 0.8; stroke-linecap: round"/>
     </g>
     <g id="line2d_75"/>
     <g id="text_43">
      <!-- coherence -->
      <g style="fill: #262626" transform="translate(523.151875 168.338224) scale(0.11 -0.11)">
       <use xlink:href="#LiberationSans-63"/>
       <use xlink:href="#LiberationSans-6f" transform="translate(50 0)"/>
       <use xlink:href="#LiberationSans-68" transform="translate(105.615234 0)"/>
       <use xlink:href="#LiberationSans-65" transform="translate(161.230469 0)"/>
       <use xlink:href="#LiberationSans-72" transform="translate(216.845703 0)"/>
       <use xlink:href="#LiberationSans-65" transform="translate(250.146484 0)"/>
       <use xlink:href="#LiberationSans-6e" transform="translate(305.761719 0)"/>
       <use xlink:href="#LiberationSans-63" transform="translate(361.376953 0)"/>
       <use xlink:href="#LiberationSans-65" transform="translate(411.376953 0)"/>
      </g>
     </g>
    </g>
    <g id="ytick_24">
     <g id="line2d_76">
      <path d="M 578.016719 140.126591 
L 984.016719 140.126591 
" clip-path="url(#p6e213d8b70)" style="fill: none; stroke: #cccccc; stroke-width: 0.8; stroke-linecap: round"/>
     </g>
     <g id="line2d_77"/>
     <g id="text_44">
      <!-- context -->
      <g style="fill: #262626" transform="translate(539.05375 144.112372) scale(0.11 -0.11)">
       <use xlink:href="#LiberationSans-63"/>
       <use xlink:href="#LiberationSans-6f" transform="translate(50 0)"/>
       <use xlink:href="#LiberationSans-6e" transform="translate(105.615234 0)"/>
       <use xlink:href="#LiberationSans-74" transform="translate(161.230469 0)"/>
       <use xlink:href="#LiberationSans-65" transform="translate(189.013672 0)"/>
       <use xlink:href="#LiberationSans-78" transform="translate(244.628906 0)"/>
       <use xlink:href="#LiberationSans-74" transform="translate(294.628906 0)"/>
      </g>
     </g>
    </g>
    <g id="ytick_25">
     <g id="line2d_78">
      <path d="M 578.016719 115.900739 
L 984.016719 115.900739 
" clip-path="url(#p6e213d8b70)" style="fill: none; stroke: #cccccc; stroke-width: 0.8; stroke-linecap: round"/>
     </g>
     <g id="line2d_79"/>
     <g id="text_45">
      <!-- density -->
      <g style="fill: #262626" transform="translate(539.665625 119.88652) scale(0.11 -0.11)">
       <use xlink:href="#LiberationSans-64"/>
       <use xlink:href="#LiberationSans-65" transform="translate(55.615234 0)"/>
       <use xlink:href="#LiberationSans-6e" transform="translate(111.230469 0)"/>
       <use xlink:href="#LiberationSans-73" transform="translate(166.845703 0)"/>
       <use xlink:href="#LiberationSans-69" transform="translate(216.845703 0)"/>
       <use xlink:href="#LiberationSans-74" transform="translate(239.0625 0)"/>
       <use xlink:href="#LiberationSans-79" transform="translate(266.845703 0)"/>
      </g>
     </g>
    </g>
    <g id="ytick_26">
     <g id="line2d_80">
      <path d="M 578.016719 91.674886 
L 984.016719 91.674886 
" clip-path="url(#p6e213d8b70)" style="fill: none; stroke: #cccccc; stroke-width: 0.8; stroke-linecap: round"/>
     </g>
     <g id="line2d_81"/>
     <g id="text_46">
      <!-- engagement -->
      <g style="fill: #262626" transform="translate(513.361875 95.660668) scale(0.11 -0.11)">
       <use xlink:href="#LiberationSans-65"/>
       <use xlink:href="#LiberationSans-6e" transform="translate(55.615234 0)"/>
       <use xlink:href="#LiberationSans-67" transform="translate(111.230469 0)"/>
       <use xlink:href="#LiberationSans-61" transform="translate(166.845703 0)"/>
       <use xlink:href="#LiberationSans-67" transform="translate(222.460938 0)"/>
       <use xlink:href="#LiberationSans-65" transform="translate(278.076172 0)"/>
       <use xlink:href="#LiberationSans-6d" transform="translate(333.691406 0)"/>
       <use xlink:href="#LiberationSans-65" transform="translate(416.992188 0)"/>
       <use xlink:href="#LiberationSans-6e" transform="translate(472.607422 0)"/>
       <use xlink:href="#LiberationSans-74" transform="translate(528.222656 0)"/>
      </g>
     </g>
    </g>
   </g>
   <g id="patch_23">
    <path d="M 614.92581 392.075455 
L 919.794901 392.075455 
L 919.794901 372.694773 
L 614.92581 372.694773 
z
" clip-path="url(#p6e213d8b70)" style="fill: #2ecc71; opacity: 0.7; stroke: #000000; stroke-linejoin: miter"/>
   </g>
   <g id="patch_24">
    <path d="M 614.92581 367.849602 
L 775.111264 367.849602 
L 775.111264 348.46892 
L 614.92581 348.46892 
z
" clip-path="url(#p6e213d8b70)" style="fill: #2ecc71; opacity: 0.7; stroke: #000000; stroke-linejoin: miter"/>
   </g>
   <g id="patch_25">
    <path d="M 614.92581 343.62375 
L 765.514901 343.62375 
L 765.514901 324.243068 
L 614.92581 324.243068 
z
" clip-path="url(#p6e213d8b70)" style="fill: #2ecc71; opacity: 0.7; stroke: #000000; stroke-linejoin: miter"/>
   </g>
   <g id="patch_26">
    <path d="M 614.92581 319.397898 
L 726.391264 319.397898 
L 726.391264 300.017216 
L 614.92581 300.017216 
z
" clip-path="url(#p6e213d8b70)" style="fill: #2ecc71; opacity: 0.7; stroke: #000000; stroke-linejoin: miter"/>
   </g>
   <g id="patch_27">
    <path d="M 614.92581 295.172045 
L 724.914901 295.172045 
L 724.914901 275.791364 
L 614.92581 275.791364 
z
" clip-path="url(#p6e213d8b70)" style="fill: url(#hfb79827cee); opacity: 0.7; stroke: #000000; stroke-linejoin: miter"/>
   </g>
   <g id="patch_28">
    <path d="M 614.92581 270.946193 
L 723.438537 270.946193 
L 723.438537 251.565511 
L 614.92581 251.565511 
z
" clip-path="url(#p6e213d8b70)" style="fill: #2ecc71; opacity: 0.7; stroke: #000000; stroke-linejoin: miter"/>
   </g>
   <g id="patch_29">
    <path d="M 614.92581 246.720341 
L 709.413082 246.720341 
L 709.413082 227.339659 
L 614.92581 227.339659 
z
" clip-path="url(#p6e213d8b70)" style="fill: #2ecc71; opacity: 0.7; stroke: #000000; stroke-linejoin: miter"/>
   </g>
   <g id="patch_30">
    <path d="M 614.92581 222.494489 
L 703.507628 222.494489 
L 703.507628 203.113807 
L 614.92581 203.113807 
z
" clip-path="url(#p6e213d8b70)" style="fill: #2ecc71; opacity: 0.7; stroke: #000000; stroke-linejoin: miter"/>
   </g>
   <g id="patch_31">
    <path d="M 614.92581 198.268636 
L 695.387628 198.268636 
L 695.387628 178.887955 
L 614.92581 178.887955 
z
" clip-path="url(#p6e213d8b70)" style="fill: #2ecc71; opacity: 0.7; stroke: #000000; stroke-linejoin: miter"/>
   </g>
   <g id="patch_32">
    <path d="M 614.92581 174.042784 
L 692.434901 174.042784 
L 692.434901 154.662102 
L 614.92581 154.662102 
z
" clip-path="url(#p6e213d8b70)" style="fill: #2ecc71; opacity: 0.7; stroke: #000000; stroke-linejoin: miter"/>
   </g>
   <g id="patch_33">
    <path d="M 614.92581 149.816932 
L 691.696719 149.816932 
L 691.696719 130.43625 
L 614.92581 130.43625 
z
" clip-path="url(#p6e213d8b70)" style="fill: #2ecc71; opacity: 0.7; stroke: #000000; stroke-linejoin: miter"/>
   </g>
   <g id="patch_34">
    <path d="M 614.92581 125.59108 
L 655.52581 125.59108 
L 655.52581 106.210398 
L 614.92581 106.210398 
z
" clip-path="url(#p6e213d8b70)" style="fill: #2ecc71; opacity: 0.7; stroke: #000000; stroke-linejoin: miter"/>
   </g>
   <g id="patch_35">
    <path d="M 614.92581 101.365227 
L 628.213082 101.365227 
L 628.213082 81.984545 
L 614.92581 81.984545 
z
" clip-path="url(#p6e213d8b70)" style="fill: #2ecc71; opacity: 0.7; stroke: #000000; stroke-linejoin: miter"/>
   </g>
   <g id="line2d_82">
    <path d="M 614.92581 407.58 
L 614.92581 66.48 
" clip-path="url(#p6e213d8b70)" style="fill: none; stroke: #000000; stroke-linecap: round"/>
   </g>
   <g id="patch_36">
    <path d="M 578.016719 407.58 
L 578.016719 66.48 
" style="fill: none; stroke: #cccccc; stroke-linejoin: miter; stroke-linecap: square"/>
   </g>
   <g id="patch_37">
    <path d="M 984.016719 407.58 
L 984.016719 66.48 
" style="fill: none; stroke: #cccccc; stroke-linejoin: miter; stroke-linecap: square"/>
   </g>
   <g id="patch_38">
    <path d="M 578.016719 407.58 
L 984.016719 407.58 
" style="fill: none; stroke: #cccccc; stroke-linejoin: miter; stroke-linecap: square"/>
   </g>
   <g id="patch_39">
    <path d="M 578.016719 66.48 
L 984.016719 66.48 
" style="fill: none; stroke: #cccccc; stroke-linejoin: miter; stroke-linecap: square"/>
   </g>
   <g id="text_47">
    <!-- ALL 13: Confidence Growth -->
    <g style="fill: #008000" transform="translate(688.976562 100.59) scale(0.14 -0.14)">
     <defs>
      <path id="LiberationSans-Bold-4c" d="M 428 0 
L 428 4403 
L 1350 4403 
L 1350 713 
L 3713 713 
L 3713 0 
L 428 0 
z
" transform="scale(0.015625)"/>
      <path id="LiberationSans-Bold-33" d="M 3328 1222 
Q 3328 603 2922 265 
Q 2516 -72 1766 -72 
Q 1056 -72 637 254 
Q 219 581 147 1197 
L 1041 1275 
Q 1125 641 1763 641 
Q 2078 641 2253 797 
Q 2428 953 2428 1275 
Q 2428 1569 2215 1725 
Q 2003 1881 1584 1881 
L 1278 1881 
L 1278 2591 
L 1566 2591 
Q 1944 2591 2134 2745 
Q 2325 2900 2325 3188 
Q 2325 3459 2173 3614 
Q 2022 3769 1731 3769 
Q 1459 3769 1292 3619 
Q 1125 3469 1100 3194 
L 222 3256 
Q 291 3825 694 4147 
Q 1097 4469 1747 4469 
Q 2438 4469 2827 4158 
Q 3216 3847 3216 3297 
Q 3216 2884 2973 2618 
Q 2731 2353 2275 2266 
L 2275 2253 
Q 2781 2194 3054 1920 
Q 3328 1647 3328 1222 
z
" transform="scale(0.015625)"/>
      <path id="LiberationSans-Bold-43" d="M 2484 663 
Q 3319 663 3644 1500 
L 4447 1197 
Q 4188 559 3686 248 
Q 3184 -63 2484 -63 
Q 1422 -63 842 539 
Q 263 1141 263 2222 
Q 263 3306 822 3887 
Q 1381 4469 2444 4469 
Q 3219 4469 3706 4158 
Q 4194 3847 4391 3244 
L 3578 3022 
Q 3475 3353 3173 3548 
Q 2872 3744 2463 3744 
Q 1838 3744 1514 3356 
Q 1191 2969 1191 2222 
Q 1191 1463 1523 1063 
Q 1856 663 2484 663 
z
" transform="scale(0.015625)"/>
      <path id="LiberationSans-Bold-6f" d="M 3659 1694 
Q 3659 872 3203 404 
Q 2747 -63 1941 -63 
Q 1150 -63 700 406 
Q 250 875 250 1694 
Q 250 2509 700 2976 
Q 1150 3444 1959 3444 
Q 2788 3444 3223 2992 
Q 3659 2541 3659 1694 
z
M 2741 1694 
Q 2741 2297 2544 2569 
Q 2347 2841 1972 2841 
Q 1172 2841 1172 1694 
Q 1172 1128 1367 833 
Q 1563 538 1931 538 
Q 2741 538 2741 1694 
z
" transform="scale(0.015625)"/>
      <path id="LiberationSans-Bold-6e" d="M 2638 0 
L 2638 1897 
Q 2638 2788 2034 2788 
Q 1716 2788 1520 2514 
Q 1325 2241 1325 1813 
L 1325 0 
L 447 0 
L 447 2625 
Q 447 2897 439 3070 
Q 431 3244 422 3381 
L 1259 3381 
Q 1269 3322 1284 3064 
Q 1300 2806 1300 2709 
L 1313 2709 
Q 1491 3097 1759 3272 
Q 2028 3447 2400 3447 
Q 2938 3447 3225 3115 
Q 3513 2784 3513 2147 
L 3513 0 
L 2638 0 
z
" transform="scale(0.015625)"/>
      <path id="LiberationSans-Bold-66" d="M 1478 2788 
L 1478 0 
L 603 0 
L 603 2788 
L 109 2788 
L 109 3381 
L 603 3381 
L 603 3734 
Q 603 4194 847 4416 
Q 1091 4638 1588 4638 
Q 1834 4638 2144 4588 
L 2144 4022 
Q 2016 4050 1888 4050 
Q 1663 4050 1570 3961 
Q 1478 3872 1478 3647 
L 1478 3381 
L 2144 3381 
L 2144 2788 
L 1478 2788 
z
" transform="scale(0.015625)"/>
      <path id="LiberationSans-Bold-69" d="M 447 3991 
L 447 4638 
L 1325 4638 
L 1325 3991 
L 447 3991 
z
M 447 0 
L 447 3381 
L 1325 3381 
L 1325 0 
L 447 0 
z
" transform="scale(0.015625)"/>
      <path id="LiberationSans-Bold-64" d="M 2638 0 
Q 2625 47 2608 236 
Q 2591 425 2591 550 
L 2578 550 
Q 2294 -63 1497 -63 
Q 906 -63 584 398 
Q 263 859 263 1688 
Q 263 2528 602 2986 
Q 941 3444 1563 3444 
Q 1922 3444 2183 3294 
Q 2444 3144 2584 2847 
L 2591 2847 
L 2584 3403 
L 2584 4638 
L 3463 4638 
L 3463 738 
Q 3463 425 3488 0 
L 2638 0 
z
M 2597 1709 
Q 2597 2256 2414 2551 
Q 2231 2847 1875 2847 
Q 1522 2847 1350 2561 
Q 1178 2275 1178 1688 
Q 1178 538 1869 538 
Q 2216 538 2406 842 
Q 2597 1147 2597 1709 
z
" transform="scale(0.015625)"/>
      <path id="LiberationSans-Bold-63" d="M 1856 -63 
Q 1088 -63 669 395 
Q 250 853 250 1672 
Q 250 2509 672 2976 
Q 1094 3444 1869 3444 
Q 2466 3444 2856 3144 
Q 3247 2844 3347 2316 
L 2463 2272 
Q 2425 2531 2275 2686 
Q 2125 2841 1850 2841 
Q 1172 2841 1172 1706 
Q 1172 538 1863 538 
Q 2113 538 2281 695 
Q 2450 853 2491 1166 
L 3372 1125 
Q 3325 778 3123 506 
Q 2922 234 2594 85 
Q 2266 -63 1856 -63 
z
" transform="scale(0.015625)"/>
      <path id="LiberationSans-Bold-47" d="M 2519 659 
Q 2878 659 3215 764 
Q 3553 869 3738 1031 
L 3738 1641 
L 2663 1641 
L 2663 2322 
L 4581 2322 
L 4581 703 
Q 4231 344 3670 140 
Q 3109 -63 2494 -63 
Q 1419 -63 841 532 
Q 263 1128 263 2222 
Q 263 3309 844 3889 
Q 1425 4469 2516 4469 
Q 4066 4469 4488 3322 
L 3638 3066 
Q 3500 3400 3206 3572 
Q 2913 3744 2516 3744 
Q 1866 3744 1528 3350 
Q 1191 2956 1191 2222 
Q 1191 1475 1539 1067 
Q 1888 659 2519 659 
z
" transform="scale(0.015625)"/>
      <path id="LiberationSans-Bold-77" d="M 4103 0 
L 3175 0 
L 2638 2063 
Q 2600 2203 2491 2756 
L 2328 2056 
L 1784 0 
L 856 0 
L -19 3381 
L 806 3381 
L 1363 797 
L 1406 1028 
L 1484 1394 
L 2016 3381 
L 2956 3381 
L 3475 1394 
Q 3519 1231 3603 797 
L 3691 1209 
L 4178 3381 
L 4991 3381 
L 4103 0 
z
" transform="scale(0.015625)"/>
      <path id="LiberationSans-Bold-68" d="M 1313 2706 
Q 1491 3094 1759 3269 
Q 2028 3444 2400 3444 
Q 2938 3444 3225 3112 
Q 3513 2781 3513 2144 
L 3513 0 
L 2638 0 
L 2638 1894 
Q 2638 2784 2034 2784 
Q 1716 2784 1520 2511 
Q 1325 2238 1325 1809 
L 1325 0 
L 447 0 
L 447 4638 
L 1325 4638 
L 1325 3372 
Q 1325 3031 1300 2706 
L 1313 2706 
z
" transform="scale(0.015625)"/>
     </defs>
     <use xlink:href="#LiberationSans-Bold-41"/>
     <use xlink:href="#LiberationSans-Bold-4c" transform="translate(72.216797 0)"/>
     <use xlink:href="#LiberationSans-Bold-4c" transform="translate(133.300781 0)"/>
     <use xlink:href="#LiberationSans-Bold-20" transform="translate(192.634766 0)"/>
     <use xlink:href="#LiberationSans-Bold-31" transform="translate(220.417969 0)"/>
     <use xlink:href="#LiberationSans-Bold-33" transform="translate(276.033203 0)"/>
     <use xlink:href="#LiberationSans-Bold-3a" transform="translate(331.648438 0)"/>
     <use xlink:href="#LiberationSans-Bold-20" transform="translate(364.949219 0)"/>
     <use xlink:href="#LiberationSans-Bold-43" transform="translate(392.732422 0)"/>
     <use xlink:href="#LiberationSans-Bold-6f" transform="translate(464.949219 0)"/>
     <use xlink:href="#LiberationSans-Bold-6e" transform="translate(526.033203 0)"/>
     <use xlink:href="#LiberationSans-Bold-66" transform="translate(587.117188 0)"/>
     <use xlink:href="#LiberationSans-Bold-69" transform="translate(620.417969 0)"/>
     <use xlink:href="#LiberationSans-Bold-64" transform="translate(648.201172 0)"/>
     <use xlink:href="#LiberationSans-Bold-65" transform="translate(709.285156 0)"/>
     <use xlink:href="#LiberationSans-Bold-6e" transform="translate(764.900391 0)"/>
     <use xlink:href="#LiberationSans-Bold-63" transform="translate(825.984375 0)"/>
     <use xlink:href="#LiberationSans-Bold-65" transform="translate(881.599609 0)"/>
     <use xlink:href="#LiberationSans-Bold-20" transform="translate(937.214844 0)"/>
     <use xlink:href="#LiberationSans-Bold-47" transform="translate(964.998047 0)"/>
     <use xlink:href="#LiberationSans-Bold-72" transform="translate(1042.78125 0)"/>
     <use xlink:href="#LiberationSans-Bold-6f" transform="translate(1081.697266 0)"/>
     <use xlink:href="#LiberationSans-Bold-77" transform="translate(1142.78125 0)"/>
     <use xlink:href="#LiberationSans-Bold-74" transform="translate(1220.564453 0)"/>
     <use xlink:href="#LiberationSans-Bold-68" transform="translate(1253.865234 0)"/>
    </g>
   </g>
   <g id="text_48">
    <!-- Correct Framing (Unified) -->
    <g style="fill: #262626" transform="translate(713.339531 60.48) scale(0.12 -0.12)">
     <use xlink:href="#LiberationSans-43"/>
     <use xlink:href="#LiberationSans-6f" transform="translate(72.216797 0)"/>
     <use xlink:href="#LiberationSans-72" transform="translate(127.832031 0)"/>
     <use xlink:href="#LiberationSans-72" transform="translate(161.132812 0)"/>
     <use xlink:href="#LiberationSans-65" transform="translate(194.433594 0)"/>
     <use xlink:href="#LiberationSans-63" transform="translate(250.048828 0)"/>
     <use xlink:href="#LiberationSans-74" transform="translate(300.048828 0)"/>
     <use xlink:href="#LiberationSans-20" transform="translate(327.832031 0)"/>
     <use xlink:href="#LiberationSans-46" transform="translate(355.615234 0)"/>
     <use xlink:href="#LiberationSans-72" transform="translate(416.699219 0)"/>
     <use xlink:href="#LiberationSans-61" transform="translate(450 0)"/>
     <use xlink:href="#LiberationSans-6d" transform="translate(505.615234 0)"/>
     <use xlink:href="#LiberationSans-69" transform="translate(588.916016 0)"/>
     <use xlink:href="#LiberationSans-6e" transform="translate(611.132812 0)"/>
     <use xlink:href="#LiberationSans-67" transform="translate(666.748047 0)"/>
     <use xlink:href="#LiberationSans-20" transform="translate(722.363281 0)"/>
     <use xlink:href="#LiberationSans-28" transform="translate(750.146484 0)"/>
     <use xlink:href="#LiberationSans-55" transform="translate(783.447266 0)"/>
     <use xlink:href="#LiberationSans-6e" transform="translate(855.664062 0)"/>
     <use xlink:href="#LiberationSans-69" transform="translate(911.279297 0)"/>
     <use xlink:href="#LiberationSans-66" transform="translate(933.496094 0)"/>
     <use xlink:href="#LiberationSans-69" transform="translate(961.279297 0)"/>
     <use xlink:href="#LiberationSans-65" transform="translate(983.496094 0)"/>
     <use xlink:href="#LiberationSans-64" transform="translate(1039.111328 0)"/>
     <use xlink:href="#LiberationSans-29" transform="translate(1094.726562 0)"/>
    </g>
   </g>
  </g>
  <g id="text_49">
   <!-- Figure 4: Reframing the Calibration Pattern -->
   <g style="fill: #262626" transform="translate(366.056562 17.345625) scale(0.14 -0.14)">
    <defs>
     <path id="LiberationSans-3a" d="M 584 2734 
L 584 3381 
L 1194 3381 
L 1194 2734 
L 584 2734 
z
M 584 0 
L 584 647 
L 1194 647 
L 1194 0 
L 584 0 
z
" transform="scale(0.015625)"/>
     <path id="LiberationSans-62" d="M 3291 1706 
Q 3291 -63 2047 -63 
Q 1663 -63 1408 76 
Q 1153 216 994 525 
L 988 525 
Q 988 428 975 229 
Q 963 31 956 0 
L 413 0 
Q 431 169 431 697 
L 431 4638 
L 994 4638 
L 994 3316 
Q 994 3113 981 2838 
L 994 2838 
Q 1150 3163 1408 3303 
Q 1666 3444 2047 3444 
Q 2688 3444 2989 3012 
Q 3291 2581 3291 1706 
z
M 2700 1688 
Q 2700 2397 2512 2703 
Q 2325 3009 1903 3009 
Q 1428 3009 1211 2684 
Q 994 2359 994 1653 
Q 994 988 1206 670 
Q 1419 353 1897 353 
Q 2322 353 2511 667 
Q 2700 981 2700 1688 
z
" transform="scale(0.015625)"/>
     <path id="LiberationSans-50" d="M 3931 3078 
Q 3931 2453 3523 2084 
Q 3116 1716 2416 1716 
L 1122 1716 
L 1122 0 
L 525 0 
L 525 4403 
L 2378 4403 
Q 3119 4403 3525 4056 
Q 3931 3709 3931 3078 
z
M 3331 3072 
Q 3331 3925 2306 3925 
L 1122 3925 
L 1122 2188 
L 2331 2188 
Q 3331 2188 3331 3072 
z
" transform="scale(0.015625)"/>
    </defs>
    <use xlink:href="#LiberationSans-46"/>
    <use xlink:href="#LiberationSans-69" transform="translate(61.083984 0)"/>
    <use xlink:href="#LiberationSans-67" transform="translate(83.300781 0)"/>
    <use xlink:href="#LiberationSans-75" transform="translate(138.916016 0)"/>
    <use xlink:href="#LiberationSans-72" transform="translate(194.53125 0)"/>
    <use xlink:href="#LiberationSans-65" transform="translate(227.832031 0)"/>
    <use xlink:href="#LiberationSans-20" transform="translate(283.447266 0)"/>
    <use xlink:href="#LiberationSans-34" transform="translate(311.230469 0)"/>
    <use xlink:href="#LiberationSans-3a" transform="translate(366.845703 0)"/>
    <use xlink:href="#LiberationSans-20" transform="translate(394.628906 0)"/>
    <use xlink:href="#LiberationSans-52" transform="translate(422.412109 0)"/>
    <use xlink:href="#LiberationSans-65" transform="translate(494.628906 0)"/>
    <use xlink:href="#LiberationSans-66" transform="translate(550.244141 0)"/>
    <use xlink:href="#LiberationSans-72" transform="translate(578.027344 0)"/>
    <use xlink:href="#LiberationSans-61" transform="translate(611.328125 0)"/>
    <use xlink:href="#LiberationSans-6d" transform="translate(666.943359 0)"/>
    <use xlink:href="#LiberationSans-69" transform="translate(750.244141 0)"/>
    <use xlink:href="#LiberationSans-6e" transform="translate(772.460938 0)"/>
    <use xlink:href="#LiberationSans-67" transform="translate(828.076172 0)"/>
    <use xlink:href="#LiberationSans-20" transform="translate(883.691406 0)"/>
    <use xlink:href="#LiberationSans-74" transform="translate(911.474609 0)"/>
    <use xlink:href="#LiberationSans-68" transform="translate(939.257812 0)"/>
    <use xlink:href="#LiberationSans-65" transform="translate(994.873047 0)"/>
    <use xlink:href="#LiberationSans-20" transform="translate(1050.488281 0)"/>
    <use xlink:href="#LiberationSans-43" transform="translate(1078.271484 0)"/>
    <use xlink:href="#LiberationSans-61" transform="translate(1150.488281 0)"/>
    <use xlink:href="#LiberationSans-6c" transform="translate(1206.103516 0)"/>
    <use xlink:href="#LiberationSans-69" transform="translate(1228.320312 0)"/>
    <use xlink:href="#LiberationSans-62" transform="translate(1250.537109 0)"/>
    <use xlink:href="#LiberationSans-72" transform="translate(1306.152344 0)"/>
    <use xlink:href="#LiberationSans-61" transform="translate(1339.453125 0)"/>
    <use xlink:href="#LiberationSans-74" transform="translate(1395.068359 0)"/>
    <use xlink:href="#LiberationSans-69" transform="translate(1422.851562 0)"/>
    <use xlink:href="#LiberationSans-6f" transform="translate(1445.068359 0)"/>
    <use xlink:href="#LiberationSans-6e" transform="translate(1500.683594 0)"/>
    <use xlink:href="#LiberationSans-20" transform="translate(1556.298828 0)"/>
    <use xlink:href="#LiberationSans-50" transform="translate(1584.082031 0)"/>
    <use xlink:href="#LiberationSans-61" transform="translate(1650.78125 0)"/>
    <use xlink:href="#LiberationSans-74" transform="translate(1706.396484 0)"/>
    <use xlink:href="#LiberationSans-74" transform="translate(1734.179688 0)"/>
    <use xlink:href="#LiberationSans-65" transform="translate(1761.962891 0)"/>
    <use xlink:href="#LiberationSans-72" transform="translate(1817.578125 0)"/>
    <use xlink:href="#LiberationSans-6e" transform="translate(1850.878906 0)"/>
   </g>
  </g>
 </g>
 <defs>
  <clipPath id="p0543ce2380">
   <rect x="87.921719" y="66.48" width="406" height="341.1"/>
  </clipPath>
  <clipPath id="p6e213d8b70">
   <rect x="578.016719" y="66.48" width="406" height="341.1"/>
  </clipPath>
 </defs>
 <defs>
  <pattern id="hfb79827cee" patternUnits="userSpaceOnUse" x="0" y="0" width="72" height="72">
   <rect x="0" y="0" width="73" height="73" fill="#2ecc71"/>
   <path d="M -36 36 
L 36 -36 
M -32 40 
L 40 -32 
M -28 44 
L 44 -28 
M -24 48 
L 48 -24 
M -20 52 
L 52 -20 
M -16 56 
L 56 -16 
M -12 60 
L 60 -12 
M -8 64 
L 64 -8 
M -4 68 
L 68 -4 
M 0 72 
L 72 0 
M 4 76 
L 76 4 
M 8 80 
L 80 8 
M 12 84 
L 84 12 
M 16 88 
L 88 16 
M 20 92 
L 92 20 
M 24 96 
L 96 24 
M 28 100 
L 100 28 
M 32 104 
L 104 32 
M 36 108 
L 108 36 
" style="fill: #000000; stroke: #000000; stroke-width: 1.0; stroke-linecap: butt; stroke-linejoin: miter; stroke-opacity: 0.7"/>
  </pattern>
 </defs>
</svg>
